SplineFontDB: 3.0
FontName: Orbitron-Medium
FullName: Orbitron Medium
FamilyName: Orbitron
Weight: Medium
Copyright: Copyright (c) 2009, Matt McInerney <matt@pixelspread.com>
Version: 1.000
ItalicAngle: 0
UnderlinePosition: -51.2
UnderlineWidth: 51.2
Ascent: 768
Descent: 256
sfntRevision: 0x00010000
LayerCount: 2
Layer: 0 1 "Back"  1
Layer: 1 1 "Fore"  0
XUID: [1021 496 529952750 9855030]
FSType: 4
OS2Version: 3
OS2_WeightWidthSlopeOnly: 0
OS2_UseTypoMetrics: 1
CreationTime: 1248674940
ModificationTime: 1291111712
PfmFamily: 17
TTFWeight: 500
TTFWidth: 5
LineGap: 0
VLineGap: 0
Panose: 2 0 0 0 0 0 0 0 0 0
OS2TypoAscent: 0
OS2TypoAOffset: 1
OS2TypoDescent: 0
OS2TypoDOffset: 1
OS2TypoLinegap: 0
OS2WinAscent: 0
OS2WinAOffset: 1
OS2WinDescent: 0
OS2WinDOffset: 1
HheadAscent: -245
HheadAOffset: 1
HheadDescent: -20
HheadDOffset: 1
OS2SubXSize: 717
OS2SubYSize: 666
OS2SubXOff: 0
OS2SubYOff: 143
OS2SupXSize: 717
OS2SupYSize: 666
OS2SupXOff: 0
OS2SupYOff: 488
OS2StrikeYSize: 51
OS2StrikeYPos: 256
OS2Vendor: 'pyrs'
OS2CodePages: 00000001.00000000
OS2UnicodeRanges: 80000027.18000042.14000000.00000000
Lookup: 1 0 0 "'aalt' Access All Alternates in Latin lookup 0"  {"'aalt' Access All Alternates in Latin lookup 0 subtable"  } ['aalt' ('latn' <'dflt' > ) ]
Lookup: 3 0 0 "'aalt' Access All Alternates in Latin lookup 1"  {"'aalt' Access All Alternates in Latin lookup 1 subtable"  } ['aalt' ('latn' <'dflt' > ) ]
Lookup: 1 0 0 "'salt' Stylistic Alternatives in Latin lookup 2"  {"'salt' Stylistic Alternatives in Latin lookup 2 subtable"  } ['salt' ('latn' <'dflt' > ) ]
Lookup: 1 0 0 "'smcp' Lowercase to Small Capitals in Latin lookup 3"  {"'smcp' Lowercase to Small Capitals in Latin lookup 3 subtable"  } ['smcp' ('latn' <'dflt' > ) ]
Lookup: 1 0 0 "'ss01' Style Set 1 in Latin lookup 4"  {"'ss01' Style Set 1 in Latin lookup 4 subtable"  } ['ss01' ('latn' <'dflt' > ) ]

StartChar: A.alt3
Encoding: 65539 -1 4
Width: 846
Flags: W
HStem: 0 21G<-29 110.62 732.38 871> 179 111<266 577> 717 20G<356.254 487.692>
LayerCount: 2
Fore
SplineSet
744 0 m 1,0,-1
 640 179 l 1,1,-1
 203 179 l 1,2,-1
 99 0 l 1,3,-1
 -29 0 l 1,4,-1
 367 737 l 1,5,-1
 477 737 l 1,6,-1
 871 0 l 1,7,-1
 744 0 l 1,0,-1
266 290 m 1,8,-1
 577 290 l 1,9,-1
 422 611 l 1,10,-1
 266 290 l 1,8,-1
EndSplineSet
EndChar

StartChar: AE
Encoding: 198 198 5
Width: 1408
Flags: W
HStem: 0 111<793 1358> 258 111<166 682> 313 111<793 1247> 627 110<166.558 675.296 793 1358>
VStem: 55 111<0 258 369 626.913> 682 111<111 258 424 619.781>
LayerCount: 2
Fore
SplineSet
793 424 m 1,0,-1
 1247 424 l 1,1,-1
 1247 313 l 1,2,-1
 793 313 l 1,3,-1
 793 111 l 1,4,-1
 1358 111 l 1,5,-1
 1358 0 l 1,6,-1
 682 0 l 1,7,-1
 682 258 l 1,8,-1
 166 258 l 1,9,-1
 166 0 l 1,10,-1
 55 0 l 1,11,-1
 55 604 l 2,12,13
 55 632 55 632 65.5 656 c 128,-1,14
 76 680 76 680 94.5 698.5 c 128,-1,15
 113 717 113 717 137 727 c 128,-1,16
 161 737 161 737 188 737 c 2,17,-1
 1358 737 l 1,18,-1
 1358 627 l 1,19,-1
 793 627 l 1,20,-1
 793 424 l 1,0,-1
682 604 m 2,21,22
 682 613 682 613 675.5 620 c 128,-1,23
 669 627 669 627 659 627 c 2,24,-1
 188 627 l 2,25,26
 179 627 179 627 172.5 620 c 128,-1,27
 166 613 166 613 166 604 c 2,28,-1
 166 369 l 1,29,-1
 682 369 l 1,30,-1
 682 604 l 2,21,22
EndSplineSet
EndChar

StartChar: B
Encoding: 66 66 12
Width: 851
Flags: W
HStem: 0 111<177.704 680.296> 321 110<177.704 649.296> 627 110<171.007 655.265>
VStem: 60 111<117.704 320.993 438.219 626.993> 656 111<437.704 626.913> 687 111<117.704 320.751>
LayerCount: 2
Fore
SplineSet
754 396 m 1,0,1
 774 379 774 379 786 353.5 c 128,-1,2
 798 328 798 328 798 298 c 2,3,-1
 798 133 l 2,4,5
 798 105 798 105 787.5 81 c 128,-1,6
 777 57 777 57 758.5 38.5 c 128,-1,7
 740 20 740 20 716 10 c 128,-1,8
 692 0 692 0 665 0 c 2,9,-1
 60 0 l 1,10,-1
 60 737 l 1,11,-1
 634 737 l 2,12,13
 662 737 662 737 686 727 c 128,-1,14
 710 717 710 717 728 698.5 c 128,-1,15
 746 680 746 680 756.5 656 c 128,-1,16
 767 632 767 632 767 604 c 2,17,-1
 767 454 l 2,18,19
 767 425 767 425 754 396 c 1,0,1
194 627 m 2,20,21
 185 627 185 627 178 620 c 128,-1,22
 171 613 171 613 171 604 c 2,23,-1
 171 454 l 2,24,25
 171 445 171 445 177.5 438 c 128,-1,26
 184 431 184 431 194 431 c 2,27,-1
 634 431 l 2,28,29
 643 431 643 431 649.5 437.5 c 128,-1,30
 656 444 656 444 656 454 c 2,31,-1
 656 604 l 2,32,33
 656 613 656 613 649.5 620 c 128,-1,34
 643 627 643 627 634 627 c 2,35,-1
 194 627 l 2,20,21
687 298 m 2,36,37
 687 307 687 307 680.5 314 c 128,-1,38
 674 321 674 321 665 321 c 2,39,-1
 194 321 l 2,40,41
 185 321 185 321 178 314 c 128,-1,42
 171 307 171 307 171 298 c 2,43,-1
 171 133 l 2,44,45
 171 124 171 124 177.5 117.5 c 128,-1,46
 184 111 184 111 194 111 c 2,47,-1
 665 111 l 2,48,49
 674 111 674 111 680.5 117.5 c 128,-1,50
 687 124 687 124 687 133 c 2,51,-1
 687 298 l 2,36,37
EndSplineSet
EndChar

StartChar: C
Encoding: 67 67 13
Width: 841
Flags: W
HStem: 0 111<174.704 793> 627 110<168.558 793>
VStem: 57 111<117.704 626.913>
LayerCount: 2
Fore
SplineSet
190 627 m 2,0,1
 181 627 181 627 174.5 620 c 128,-1,2
 168 613 168 613 168 604 c 2,3,-1
 168 133 l 2,4,5
 168 124 168 124 174.5 117.5 c 128,-1,6
 181 111 181 111 190 111 c 2,7,-1
 793 111 l 1,8,-1
 793 0 l 1,9,-1
 190 0 l 2,10,11
 162 0 162 0 138.5 10 c 128,-1,12
 115 20 115 20 96.5 38.5 c 128,-1,13
 78 57 78 57 67.5 81 c 128,-1,14
 57 105 57 105 57 133 c 2,15,-1
 57 604 l 2,16,17
 57 632 57 632 67.5 656 c 128,-1,18
 78 680 78 680 96.5 698.5 c 128,-1,19
 115 717 115 717 139 727 c 128,-1,20
 163 737 163 737 190 737 c 2,21,-1
 793 737 l 1,22,-1
 793 627 l 1,23,-1
 190 627 l 2,0,1
EndSplineSet
Substitution2: "'salt' Stylistic Alternatives in Latin lookup 2 subtable" C.alt
Substitution2: "'aalt' Access All Alternates in Latin lookup 0 subtable" C.alt
EndChar

StartChar: C.alt
Encoding: 65540 -1 14
Width: 841
Flags: W
HStem: 0 111<170.704 680.515> 627 110<164.558 680.515>
VStem: 53 111<117.704 626.913> 681 111<111 221 516 627>
LayerCount: 2
Fore
SplineSet
792 516 m 1,0,-1
 681 516 l 1,1,-1
 681 627 l 1,2,-1
 186 627 l 2,3,4
 177 627 177 627 170.5 620 c 128,-1,5
 164 613 164 613 164 604 c 2,6,-1
 164 133 l 2,7,8
 164 124 164 124 170.5 117.5 c 128,-1,9
 177 111 177 111 186 111 c 2,10,-1
 681 111 l 1,11,-1
 681 221 l 1,12,-1
 788 221 l 1,13,-1
 788 111 l 1,14,15
 784 87 784 87 772.5 67 c 128,-1,16
 761 47 761 47 743.5 32 c 128,-1,17
 726 17 726 17 704 8.5 c 128,-1,18
 682 0 682 0 657 0 c 2,19,-1
 186 0 l 2,20,21
 158 0 158 0 134.5 10 c 128,-1,22
 111 20 111 20 92.5 38.5 c 128,-1,23
 74 57 74 57 63.5 81 c 128,-1,24
 53 105 53 105 53 133 c 2,25,-1
 53 604 l 2,26,27
 53 632 53 632 63.5 656 c 128,-1,28
 74 680 74 680 92.5 698.5 c 128,-1,29
 111 717 111 717 135 727 c 128,-1,30
 159 737 159 737 186 737 c 2,31,-1
 657 737 l 2,32,33
 682 737 682 737 704 728.5 c 128,-1,34
 726 720 726 720 743.5 705 c 128,-1,35
 761 690 761 690 772.5 670 c 128,-1,36
 784 650 784 650 788 627 c 1,37,-1
 792 627 l 1,38,-1
 792 516 l 1,0,-1
EndSplineSet
EndChar

StartChar: A.alt
Encoding: 57355 57355 15
Width: 792
Flags: W
HStem: 0 21G<0 147.751 627 737> 197 110<389 627> 717 20G<589.213 737>
VStem: 627 110<0 197 307 590>
LayerCount: 2
Fore
SplineSet
0 15 m 1,0,-1
 606 737 l 1,1,-1
 737 737 l 1,2,-1
 737 0 l 1,3,-1
 627 0 l 1,4,-1
 627 197 l 1,5,-1
 296 197 l 1,6,-1
 131 0 l 1,7,-1
 0 0 l 1,8,-1
 0 15 l 1,0,-1
389 307 m 1,9,-1
 627 307 l 1,10,-1
 627 590 l 1,11,-1
 389 307 l 1,9,-1
EndSplineSet
EndChar

StartChar: Ccedilla
Encoding: 199 199 16
Width: 841
Flags: W
HStem: 0 111<174.704 386 497 793> 627 110<168.558 793>
VStem: 57 111<117.704 626.913>
LayerCount: 2
Fore
SplineSet
190 627 m 2,0,1
 181 627 181 627 174.5 620 c 128,-1,2
 168 613 168 613 168 604 c 2,3,-1
 168 133 l 2,4,5
 168 124 168 124 174.5 117.5 c 128,-1,6
 181 111 181 111 190 111 c 2,7,-1
 793 111 l 1,8,-1
 793 0 l 1,9,-1
 497 0 l 1,10,-1
 456 -166 l 1,11,-1
 345 -166 l 1,12,-1
 386 0 l 1,13,-1
 190 0 l 2,14,15
 162 0 162 0 138.5 10 c 128,-1,16
 115 20 115 20 96.5 38.5 c 128,-1,17
 78 57 78 57 67.5 81 c 128,-1,18
 57 105 57 105 57 133 c 2,19,-1
 57 604 l 2,20,21
 57 632 57 632 67.5 656 c 128,-1,22
 78 680 78 680 96.5 698.5 c 128,-1,23
 115 717 115 717 139 727 c 128,-1,24
 163 737 163 737 190 737 c 2,25,-1
 793 737 l 1,26,-1
 793 627 l 1,27,-1
 190 627 l 2,0,1
EndSplineSet
EndChar

StartChar: D
Encoding: 68 68 17
Width: 854
Flags: W
HStem: 0 111<176.704 679.296> 627 110<170.007 685.188>
VStem: 59 111<117.704 626.993> 686 111<117.704 626.913>
LayerCount: 2
Fore
SplineSet
664 737 m 2,0,1
 692 737 692 737 715.5 727 c 128,-1,2
 739 717 739 717 757.5 698.5 c 128,-1,3
 776 680 776 680 786.5 656 c 128,-1,4
 797 632 797 632 797 604 c 2,5,-1
 797 133 l 2,6,7
 797 105 797 105 786.5 81 c 128,-1,8
 776 57 776 57 757.5 38.5 c 128,-1,9
 739 20 739 20 715 10 c 128,-1,10
 691 0 691 0 664 0 c 2,11,-1
 59 0 l 1,12,-1
 59 737 l 1,13,-1
 664 737 l 2,0,1
686 604 m 2,14,15
 686 613 686 613 679.5 620 c 128,-1,16
 673 627 673 627 664 627 c 2,17,-1
 193 627 l 2,18,19
 184 627 184 627 177 620 c 128,-1,20
 170 613 170 613 170 604 c 2,21,-1
 170 133 l 2,22,23
 170 124 170 124 176.5 117.5 c 128,-1,24
 183 111 183 111 193 111 c 2,25,-1
 664 111 l 2,26,27
 673 111 673 111 679.5 117.5 c 128,-1,28
 686 124 686 124 686 133 c 2,29,-1
 686 604 l 2,14,15
EndSplineSet
EndChar

StartChar: E
Encoding: 69 69 18
Width: 784
Flags: W
HStem: 0 111<170 735> 313 111<170 625> 627 110<170 735>
VStem: 59 111<111 313 424 627>
LayerCount: 2
Fore
SplineSet
735 627 m 1,0,-1
 170 627 l 1,1,-1
 170 424 l 1,2,-1
 625 424 l 1,3,-1
 625 313 l 1,4,-1
 170 313 l 1,5,-1
 170 111 l 1,6,-1
 735 111 l 1,7,-1
 735 0 l 1,8,-1
 59 0 l 1,9,-1
 59 737 l 1,10,-1
 735 737 l 1,11,-1
 735 627 l 1,0,-1
EndSplineSet
EndChar

StartChar: Euro
Encoding: 8364 8364 23
Width: 818
Flags: W
HStem: 0 111<255.704 771> 223 111<36 138 249 660> 403 111<36 138 249 660> 627 110<249.558 771>
VStem: 138 111<117.704 223 334 403 514 626.913>
LayerCount: 2
Fore
SplineSet
771 111 m 1,0,-1
 771 0 l 1,1,-1
 271 0 l 2,2,3
 243 0 243 0 219.5 10 c 128,-1,4
 196 20 196 20 177.5 38.5 c 128,-1,5
 159 57 159 57 148.5 81 c 128,-1,6
 138 105 138 105 138 133 c 2,7,-1
 138 223 l 1,8,-1
 36 223 l 1,9,-1
 36 334 l 1,10,-1
 138 334 l 1,11,-1
 138 403 l 1,12,-1
 36 403 l 1,13,-1
 36 514 l 1,14,-1
 138 514 l 1,15,-1
 138 604 l 2,16,17
 138 632 138 632 148.5 656 c 128,-1,18
 159 680 159 680 177.5 698.5 c 128,-1,19
 196 717 196 717 220 727 c 128,-1,20
 244 737 244 737 271 737 c 2,21,-1
 771 737 l 1,22,-1
 771 627 l 1,23,-1
 271 627 l 2,24,25
 262 627 262 627 255.5 620 c 128,-1,26
 249 613 249 613 249 604 c 2,27,-1
 249 514 l 1,28,-1
 660 514 l 1,29,-1
 660 403 l 1,30,-1
 249 403 l 1,31,-1
 249 334 l 1,32,-1
 660 334 l 1,33,-1
 660 223 l 1,34,-1
 249 223 l 1,35,-1
 249 133 l 2,36,37
 249 124 249 124 255.5 117.5 c 128,-1,38
 262 111 262 111 271 111 c 2,39,-1
 771 111 l 1,0,-1
EndSplineSet
EndChar

StartChar: F
Encoding: 70 70 24
Width: 740
Flags: W
HStem: 0 21G<59 170> 313 111<170 625> 627 110<170 735>
VStem: 59 111<0 313 424 627>
LayerCount: 2
Fore
SplineSet
735 737 m 1,0,-1
 735 627 l 1,1,-1
 170 627 l 1,2,-1
 170 424 l 1,3,-1
 625 424 l 1,4,-1
 625 313 l 1,5,-1
 170 313 l 1,6,-1
 170 0 l 1,7,-1
 59 0 l 1,8,-1
 59 737 l 1,9,-1
 735 737 l 1,0,-1
EndSplineSet
EndChar

StartChar: G
Encoding: 71 71 25
Width: 849
Flags: W
HStem: 0 111<174.704 677.296> 293 110<510 684> 627 110<168.558 683.188>
VStem: 57 111<117.704 626.913> 684 111<117.704 293 560 626.913>
LayerCount: 2
Fore
SplineSet
795 560 m 1,0,-1
 684 560 l 1,1,-1
 684 604 l 2,2,3
 684 613 684 613 677.5 620 c 128,-1,4
 671 627 671 627 662 627 c 2,5,-1
 190 627 l 2,6,7
 181 627 181 627 174.5 620 c 128,-1,8
 168 613 168 613 168 604 c 2,9,-1
 168 133 l 2,10,11
 168 124 168 124 174.5 117.5 c 128,-1,12
 181 111 181 111 190 111 c 2,13,-1
 662 111 l 2,14,15
 671 111 671 111 677.5 117.5 c 128,-1,16
 684 124 684 124 684 133 c 2,17,-1
 684 293 l 1,18,-1
 510 293 l 1,19,-1
 510 403 l 1,20,-1
 795 403 l 1,21,-1
 795 133 l 2,22,23
 795 105 795 105 784.5 81 c 128,-1,24
 774 57 774 57 755.5 38.5 c 128,-1,25
 737 20 737 20 713 10 c 128,-1,26
 689 0 689 0 662 0 c 2,27,-1
 190 0 l 2,28,29
 162 0 162 0 138.5 10 c 128,-1,30
 115 20 115 20 96.5 38.5 c 128,-1,31
 78 57 78 57 67.5 81 c 128,-1,32
 57 105 57 105 57 133 c 2,33,-1
 57 604 l 2,34,35
 57 632 57 632 67.5 656 c 128,-1,36
 78 680 78 680 96.5 698.5 c 128,-1,37
 115 717 115 717 139 727 c 128,-1,38
 163 737 163 737 190 737 c 2,39,-1
 662 737 l 2,40,41
 690 737 690 737 713.5 727 c 128,-1,42
 737 717 737 717 755.5 698.5 c 128,-1,43
 774 680 774 680 784.5 656 c 128,-1,44
 795 632 795 632 795 604 c 2,45,-1
 795 560 l 1,0,-1
EndSplineSet
EndChar

StartChar: H
Encoding: 72 72 26
Width: 871
Flags: W
HStem: 0 21G<58 169 702 813> 313 111<169 702> 717 20G<58 169 702 813>
VStem: 58 111<0 313 424 737> 702 111<0 313 424 737>
LayerCount: 2
Fore
SplineSet
813 737 m 1,0,-1
 813 0 l 1,1,-1
 702 0 l 1,2,-1
 702 313 l 1,3,-1
 169 313 l 1,4,-1
 169 0 l 1,5,-1
 58 0 l 1,6,-1
 58 737 l 1,7,-1
 169 737 l 1,8,-1
 169 424 l 1,9,-1
 702 424 l 1,10,-1
 702 737 l 1,11,-1
 813 737 l 1,0,-1
EndSplineSet
EndChar

StartChar: I
Encoding: 73 73 27
Width: 225
Flags: W
HStem: 0 21G<58 169> 717 20G<58 169>
VStem: 58 111<0 737>
LayerCount: 2
Fore
SplineSet
58 737 m 1,0,-1
 169 737 l 1,1,-1
 169 0 l 1,2,-1
 58 0 l 1,3,-1
 58 737 l 1,0,-1
EndSplineSet
Substitution2: "'salt' Stylistic Alternatives in Latin lookup 2 subtable" I.alt
Substitution2: "'aalt' Access All Alternates in Latin lookup 0 subtable" I.alt
EndChar

StartChar: I.alt
Encoding: 65541 -1 28
Width: 837
Flags: W
HStem: 0 111<50 364 474 787> 627 110<50 364 474 787>
VStem: 364 110<111 627>
LayerCount: 2
Fore
SplineSet
787 627 m 1,0,-1
 474 627 l 1,1,-1
 474 111 l 1,2,-1
 787 111 l 1,3,-1
 787 0 l 1,4,-1
 50 0 l 1,5,-1
 50 111 l 1,6,-1
 364 111 l 1,7,-1
 364 627 l 1,8,-1
 50 627 l 1,9,-1
 50 737 l 1,10,-1
 787 737 l 1,11,-1
 787 627 l 1,0,-1
EndSplineSet
EndChar

StartChar: J
Encoding: 74 74 33
Width: 798
Flags: W
HStem: 0 111<121.704 630.913> 717 20G<631 741>
VStem: 4 111<117.704 205> 631 110<111.735 737>
LayerCount: 2
Fore
SplineSet
631 737 m 1,0,-1
 741 737 l 1,1,-1
 741 133 l 2,2,3
 741 105 741 105 731 81 c 128,-1,4
 721 57 721 57 702.5 38.5 c 128,-1,5
 684 20 684 20 660 10 c 128,-1,6
 636 0 636 0 608 0 c 2,7,-1
 137 0 l 2,8,9
 109 0 109 0 85 10 c 128,-1,10
 61 20 61 20 43 38.5 c 128,-1,11
 25 57 25 57 14.5 81 c 128,-1,12
 4 105 4 105 4 133 c 2,13,-1
 4 205 l 1,14,-1
 115 205 l 1,15,-1
 115 133 l 2,16,17
 115 124 115 124 121.5 117.5 c 128,-1,18
 128 111 128 111 137 111 c 2,19,-1
 608 111 l 2,20,21
 617 111 617 111 624 117.5 c 128,-1,22
 631 124 631 124 631 133 c 2,23,-1
 631 737 l 1,0,-1
EndSplineSet
Substitution2: "'salt' Stylistic Alternatives in Latin lookup 2 subtable" J.alt
Substitution2: "'aalt' Access All Alternates in Latin lookup 0 subtable" J.alt
EndChar

StartChar: J.alt
Encoding: 65542 -1 34
Width: 660
Flags: W
HStem: 0 111<3 496.913> 717 20G<497 607>
VStem: 497 110<111.735 737>
LayerCount: 2
Fore
SplineSet
497 737 m 1,0,-1
 607 737 l 1,1,-1
 607 133 l 2,2,3
 607 105 607 105 597 81 c 128,-1,4
 587 57 587 57 568.5 38.5 c 128,-1,5
 550 20 550 20 526 10 c 128,-1,6
 502 0 502 0 474 0 c 2,7,-1
 3 0 l 1,8,-1
 3 111 l 1,9,-1
 474 111 l 2,10,11
 483 111 483 111 490 117.5 c 128,-1,12
 497 124 497 124 497 133 c 2,13,-1
 497 737 l 1,0,-1
EndSplineSet
EndChar

StartChar: K
Encoding: 75 75 35
Width: 816
Flags: W
HStem: 0 21G<58 169 620.195 768> 313 111<169 374> 717 20G<58 169 620.195 768>
VStem: 58 111<0 313 424 737>
LayerCount: 2
Fore
SplineSet
768 737 m 1,0,-1
 768 722 l 1,1,-1
 472 369 l 1,2,-1
 768 15 l 1,3,-1
 768 0 l 1,4,-1
 637 0 l 1,5,-1
 374 313 l 1,6,-1
 169 313 l 1,7,-1
 169 0 l 1,8,-1
 58 0 l 1,9,-1
 58 737 l 1,10,-1
 169 737 l 1,11,-1
 169 424 l 1,12,-1
 374 424 l 1,13,-1
 637 737 l 1,14,-1
 768 737 l 1,0,-1
EndSplineSet
Substitution2: "'salt' Stylistic Alternatives in Latin lookup 2 subtable" K.alt
Substitution2: "'aalt' Access All Alternates in Latin lookup 0 subtable" K.alt
EndChar

StartChar: K.alt
Encoding: 65543 -1 36
Width: 848
Flags: W
HStem: 0 21G<55 166 682 793> 310 56<642 675.296> 366 55<642 682.895> 717 20G<55 166 683 794>
VStem: 55 111<0 303.296 427.704 737> 683 111<0 303.296 421.391 737>
LayerCount: 2
Fore
SplineSet
683 737 m 1,0,-1
 794 737 l 1,1,-1
 794 464 l 2,2,3
 794 446 794 446 782.5 428 c 128,-1,4
 771 410 771 410 751 396 c 128,-1,5
 731 382 731 382 703.5 374 c 128,-1,6
 676 366 676 366 642 366 c 1,7,8
 676 366 676 366 703.5 357 c 128,-1,9
 731 348 731 348 751 334.5 c 128,-1,10
 771 321 771 321 782 303.5 c 128,-1,11
 793 286 793 286 793 267 c 2,12,-1
 793 0 l 1,13,-1
 682 0 l 1,14,-1
 682 288 l 2,15,16
 682 297 682 297 675.5 303.5 c 128,-1,17
 669 310 669 310 659 310 c 2,18,-1
 188 310 l 2,19,20
 179 310 179 310 172.5 303.5 c 128,-1,21
 166 297 166 297 166 288 c 2,22,-1
 166 0 l 1,23,-1
 55 0 l 1,24,-1
 55 737 l 1,25,-1
 166 737 l 1,26,-1
 166 443 l 2,27,28
 166 434 166 434 172.5 427.5 c 128,-1,29
 179 421 179 421 188 421 c 2,30,-1
 660 421 l 2,31,32
 669 421 669 421 676 427.5 c 128,-1,33
 683 434 683 434 683 443 c 2,34,-1
 683 737 l 1,0,-1
EndSplineSet
EndChar

StartChar: L
Encoding: 76 76 37
Width: 797
Flags: W
HStem: 0 111<169 796> 718 20G<58 169>
VStem: 58 111<111 738>
LayerCount: 2
Fore
SplineSet
58 738 m 1,0,-1
 169 738 l 1,1,-1
 169 111 l 1,2,-1
 796 111 l 1,3,-1
 796 0 l 1,4,-1
 58 0 l 1,5,-1
 58 738 l 1,0,-1
EndSplineSet
EndChar

StartChar: M
Encoding: 77 77 38
Width: 950
Flags: W
HStem: 0 21G<57 168 782 893> 717 20G<57 204.833 744.226 893>
VStem: 57 111<0 590> 782 111<0 590>
LayerCount: 2
Fore
SplineSet
761 737 m 1,0,-1
 893 737 l 1,1,-1
 893 0 l 1,2,-1
 782 0 l 1,3,-1
 782 590 l 1,4,-1
 475 224 l 1,5,-1
 168 590 l 1,6,-1
 168 0 l 1,7,-1
 57 0 l 1,8,-1
 57 737 l 1,9,-1
 188 737 l 1,10,-1
 475 396 l 1,11,-1
 761 737 l 1,0,-1
EndSplineSet
Substitution2: "'salt' Stylistic Alternatives in Latin lookup 2 subtable" M.alt
Substitution2: "'aalt' Access All Alternates in Latin lookup 0 subtable" M.alt
EndChar

StartChar: M.alt
Encoding: 65544 -1 39
Width: 1182
Flags: W
HStem: 0 21G<55 166 524 635 1018 1128> 627 110<166 523.994 635 1011.3>
VStem: 55 111<0 627> 524 111<0 627> 1018 110<0 619.781>
LayerCount: 2
Fore
SplineSet
995 737 m 2,0,1
 1023 737 1023 737 1047 727 c 128,-1,2
 1071 717 1071 717 1089.5 698.5 c 128,-1,3
 1108 680 1108 680 1118 656 c 128,-1,4
 1128 632 1128 632 1128 604 c 2,5,-1
 1128 0 l 1,6,-1
 1018 0 l 1,7,-1
 1018 604 l 2,8,9
 1018 613 1018 613 1011.5 620 c 128,-1,10
 1005 627 1005 627 995 627 c 2,11,-1
 635 627 l 1,12,-1
 635 0 l 1,13,-1
 524 0 l 1,14,-1
 524 604 l 2,15,16
 524 613 524 613 517.5 620 c 128,-1,17
 511 627 511 627 502 627 c 2,18,-1
 166 627 l 1,19,-1
 166 0 l 1,20,-1
 55 0 l 1,21,-1
 55 737 l 1,22,-1
 995 737 l 2,0,1
EndSplineSet
EndChar

StartChar: N
Encoding: 78 78 40
Width: 851
Flags: W
HStem: 0 21G<57 168 647.186 795> 717 20G<57 204.814 684 795>
VStem: 57 111<0 590> 684 111<147 737>
LayerCount: 2
Fore
SplineSet
684 737 m 1,0,-1
 795 737 l 1,1,-1
 795 0 l 1,2,-1
 664 0 l 1,3,-1
 168 590 l 1,4,-1
 168 0 l 1,5,-1
 57 0 l 1,6,-1
 57 737 l 1,7,-1
 188 737 l 1,8,-1
 684 147 l 1,9,-1
 684 737 l 1,0,-1
EndSplineSet
Substitution2: "'salt' Stylistic Alternatives in Latin lookup 2 subtable" N.alt
Substitution2: "'aalt' Access All Alternates in Latin lookup 0 subtable" N.alt
EndChar

StartChar: N.alt
Encoding: 65545 -1 41
Width: 846
Flags: W
HStem: 0 21G<55 166 682 793> 627 110<166 675.296>
VStem: 55 111<0 627> 682 111<0 619.781>
LayerCount: 2
Fore
SplineSet
55 0 m 1,0,-1
 55 737 l 1,1,-1
 659 737 l 2,2,3
 687 737 687 737 711 727 c 128,-1,4
 735 717 735 717 753.5 698.5 c 128,-1,5
 772 680 772 680 782.5 656 c 128,-1,6
 793 632 793 632 793 604 c 2,7,-1
 793 0 l 1,8,-1
 682 0 l 1,9,-1
 682 604 l 2,10,11
 682 613 682 613 675.5 620 c 128,-1,12
 669 627 669 627 659 627 c 2,13,-1
 166 627 l 1,14,-1
 166 0 l 1,15,-1
 55 0 l 1,0,-1
EndSplineSet
EndChar

StartChar: O
Encoding: 79 79 43
Width: 847
Flags: W
HStem: 0 111<172.704 681.913> 627 110<166.558 675.296>
VStem: 55 111<117.704 626.913> 682 111<111.735 619.781>
LayerCount: 2
Fore
SplineSet
659 737 m 2,0,1
 687 737 687 737 711 727 c 128,-1,2
 735 717 735 717 753.5 698.5 c 128,-1,3
 772 680 772 680 782.5 656 c 128,-1,4
 793 632 793 632 793 604 c 2,5,-1
 793 133 l 2,6,7
 793 105 793 105 782.5 81 c 128,-1,8
 772 57 772 57 753.5 38.5 c 128,-1,9
 735 20 735 20 711 10 c 128,-1,10
 687 0 687 0 659 0 c 2,11,-1
 188 0 l 2,12,13
 160 0 160 0 136.5 10 c 128,-1,14
 113 20 113 20 94.5 38.5 c 128,-1,15
 76 57 76 57 65.5 81 c 128,-1,16
 55 105 55 105 55 133 c 2,17,-1
 55 604 l 2,18,19
 55 632 55 632 65.5 656 c 128,-1,20
 76 680 76 680 94.5 698.5 c 128,-1,21
 113 717 113 717 137 727 c 128,-1,22
 161 737 161 737 188 737 c 2,23,-1
 659 737 l 2,0,1
659 111 m 2,24,25
 668 111 668 111 675 117.5 c 128,-1,26
 682 124 682 124 682 133 c 2,27,-1
 682 604 l 2,28,29
 682 613 682 613 675.5 620 c 128,-1,30
 669 627 669 627 659 627 c 2,31,-1
 188 627 l 2,32,33
 179 627 179 627 172.5 620 c 128,-1,34
 166 613 166 613 166 604 c 2,35,-1
 166 133 l 2,36,37
 166 124 166 124 172.5 117.5 c 128,-1,38
 179 111 179 111 188 111 c 2,39,-1
 659 111 l 2,24,25
EndSplineSet
Substitution2: "'salt' Stylistic Alternatives in Latin lookup 2 subtable" O.alt
Substitution2: "'aalt' Access All Alternates in Latin lookup 0 subtable" O.alt
EndChar

StartChar: O.alt
Encoding: 65546 -1 44
Width: 843
Flags: W
HStem: 0 111<170.704 679.913> 313 111<367 477> 627 110<164.558 673.296>
VStem: 53 111<117.704 626.913> 367 110<313 424> 680 111<111.735 619.781>
CounterMasks: 1 1c
LayerCount: 2
Fore
SplineSet
657 737 m 2,0,1
 685 737 685 737 709 727 c 128,-1,2
 733 717 733 717 751.5 698.5 c 128,-1,3
 770 680 770 680 780.5 656 c 128,-1,4
 791 632 791 632 791 604 c 2,5,-1
 791 133 l 2,6,7
 791 105 791 105 780.5 81 c 128,-1,8
 770 57 770 57 751.5 38.5 c 128,-1,9
 733 20 733 20 709 10 c 128,-1,10
 685 0 685 0 657 0 c 2,11,-1
 186 0 l 2,12,13
 158 0 158 0 134.5 10 c 128,-1,14
 111 20 111 20 92.5 38.5 c 128,-1,15
 74 57 74 57 63.5 81 c 128,-1,16
 53 105 53 105 53 133 c 2,17,-1
 53 604 l 2,18,19
 53 632 53 632 63.5 656 c 128,-1,20
 74 680 74 680 92.5 698.5 c 128,-1,21
 111 717 111 717 135 727 c 128,-1,22
 159 737 159 737 186 737 c 2,23,-1
 657 737 l 2,0,1
680 604 m 2,24,25
 680 613 680 613 673.5 620 c 128,-1,26
 667 627 667 627 657 627 c 2,27,-1
 186 627 l 2,28,29
 177 627 177 627 170.5 620 c 128,-1,30
 164 613 164 613 164 604 c 2,31,-1
 164 133 l 2,32,33
 164 124 164 124 170.5 117.5 c 128,-1,34
 177 111 177 111 186 111 c 2,35,-1
 657 111 l 2,36,37
 666 111 666 111 673 117.5 c 128,-1,38
 680 124 680 124 680 133 c 2,39,-1
 680 604 l 2,24,25
367 313 m 1,40,-1
 367 424 l 1,41,-1
 477 424 l 1,42,-1
 477 313 l 1,43,-1
 367 313 l 1,40,-1
EndSplineSet
EndChar

StartChar: OE
Encoding: 338 338 45
Width: 1406
Flags: W
HStem: 0 111<171.704 681 792 1357> 313 111<792 1246> 627 110<165.558 674.296 792 1357>
VStem: 54 111<117.704 626.913> 681 111<111.006 313 424 619.781>
LayerCount: 2
Fore
SplineSet
792 424 m 1,0,-1
 1246 424 l 1,1,-1
 1246 313 l 1,2,-1
 792 313 l 1,3,-1
 792 111 l 1,4,-1
 1357 111 l 1,5,-1
 1357 0 l 1,6,-1
 187 0 l 2,7,8
 159 0 159 0 135.5 10 c 128,-1,9
 112 20 112 20 93.5 38.5 c 128,-1,10
 75 57 75 57 64.5 81 c 128,-1,11
 54 105 54 105 54 133 c 2,12,-1
 54 604 l 2,13,14
 54 632 54 632 64.5 656 c 128,-1,15
 75 680 75 680 93.5 698.5 c 128,-1,16
 112 717 112 717 136 727 c 128,-1,17
 160 737 160 737 187 737 c 2,18,-1
 1357 737 l 1,19,-1
 1357 627 l 1,20,-1
 792 627 l 1,21,-1
 792 424 l 1,0,-1
658 111 m 2,22,23
 667 111 667 111 674 117.5 c 128,-1,24
 681 124 681 124 681 133 c 2,25,-1
 681 604 l 2,26,27
 681 613 681 613 674.5 620 c 128,-1,28
 668 627 668 627 658 627 c 2,29,-1
 187 627 l 2,30,31
 178 627 178 627 171.5 620 c 128,-1,32
 165 613 165 613 165 604 c 2,33,-1
 165 133 l 2,34,35
 165 124 165 124 171.5 117.5 c 128,-1,36
 178 111 178 111 187 111 c 2,37,-1
 658 111 l 2,22,23
EndSplineSet
EndChar

StartChar: P
Encoding: 80 80 51
Width: 809
Flags: W
HStem: 0 21G<57 168> 263 111<174.704 677.296> 626 110<168.006 683.188>
VStem: 57 111<0 265 380.704 626> 684 111<380.704 625.913>
LayerCount: 2
Fore
SplineSet
662 736 m 2,0,1
 690 736 690 736 713.5 725.5 c 128,-1,2
 737 715 737 715 755.5 697 c 128,-1,3
 774 679 774 679 784.5 655 c 128,-1,4
 795 631 795 631 795 603 c 2,5,-1
 795 396 l 2,6,7
 795 368 795 368 784.5 344.5 c 128,-1,8
 774 321 774 321 755.5 303 c 128,-1,9
 737 285 737 285 713 274 c 128,-1,10
 689 263 689 263 662 263 c 2,11,-1
 190 263 l 2,12,13
 184 263 184 263 178.5 263.5 c 128,-1,14
 173 264 173 264 168 265 c 1,15,-1
 168 0 l 1,16,-1
 57 0 l 1,17,-1
 57 736 l 1,18,-1
 662 736 l 2,0,1
684 603 m 2,19,20
 684 612 684 612 677.5 619 c 128,-1,21
 671 626 671 626 662 626 c 2,22,-1
 190 626 l 2,23,24
 181 626 181 626 174.5 619 c 128,-1,25
 168 612 168 612 168 603 c 2,26,-1
 168 396 l 2,27,28
 168 387 168 387 174.5 380.5 c 128,-1,29
 181 374 181 374 190 374 c 2,30,-1
 662 374 l 2,31,32
 671 374 671 374 677.5 380.5 c 128,-1,33
 684 387 684 387 684 396 c 2,34,-1
 684 603 l 2,19,20
EndSplineSet
EndChar

StartChar: Q
Encoding: 81 81 52
Width: 905
Flags: W
HStem: 0 111<172.704 682 791 885> 627 110<166.558 675.296>
VStem: 55 111<117.704 626.913> 682 111<111.156 619.781>
LayerCount: 2
Fore
SplineSet
885 111 m 1,0,-1
 885 0 l 1,1,-1
 188 0 l 2,2,3
 160 0 160 0 136.5 10 c 128,-1,4
 113 20 113 20 94.5 38.5 c 128,-1,5
 76 57 76 57 65.5 81 c 128,-1,6
 55 105 55 105 55 133 c 2,7,-1
 55 604 l 2,8,9
 55 632 55 632 65.5 656 c 128,-1,10
 76 680 76 680 94.5 698.5 c 128,-1,11
 113 717 113 717 137 727 c 128,-1,12
 161 737 161 737 188 737 c 2,13,-1
 659 737 l 2,14,15
 687 737 687 737 711 727 c 128,-1,16
 735 717 735 717 753.5 698.5 c 128,-1,17
 772 680 772 680 782.5 656 c 128,-1,18
 793 632 793 632 793 604 c 2,19,-1
 793 133 l 2,20,21
 793 127 793 127 792.5 121.5 c 128,-1,22
 792 116 792 116 791 111 c 1,23,-1
 885 111 l 1,0,-1
659 111 m 2,24,25
 668 111 668 111 675 117.5 c 128,-1,26
 682 124 682 124 682 133 c 2,27,-1
 682 604 l 2,28,29
 682 613 682 613 675.5 620 c 128,-1,30
 669 627 669 627 659 627 c 2,31,-1
 188 627 l 2,32,33
 179 627 179 627 172.5 620 c 128,-1,34
 166 613 166 613 166 604 c 2,35,-1
 166 133 l 2,36,37
 166 124 166 124 172.5 117.5 c 128,-1,38
 179 111 179 111 188 111 c 2,39,-1
 659 111 l 2,24,25
EndSplineSet
Substitution2: "'salt' Stylistic Alternatives in Latin lookup 2 subtable" Q.alt
Substitution2: "'aalt' Access All Alternates in Latin lookup 0 subtable" Q.alt
EndChar

StartChar: Q.alt
Encoding: 65547 -1 53
Width: 888
Flags: W
HStem: 0 111<172.704 369 479 681.913> 627 110<166.558 675.296>
VStem: 55 111<117.704 626.913> 369 110<-111 0> 682 111<111.735 619.781>
CounterMasks: 1 38
LayerCount: 2
Fore
SplineSet
659 737 m 2,0,1
 687 737 687 737 711 727 c 128,-1,2
 735 717 735 717 753.5 698.5 c 128,-1,3
 772 680 772 680 782.5 656 c 128,-1,4
 793 632 793 632 793 604 c 2,5,-1
 793 133 l 2,6,7
 793 105 793 105 782.5 81 c 128,-1,8
 772 57 772 57 753.5 38.5 c 128,-1,9
 735 20 735 20 711 10 c 128,-1,10
 687 0 687 0 659 0 c 2,11,-1
 479 0 l 1,12,-1
 479 -111 l 1,13,-1
 369 -111 l 1,14,-1
 369 0 l 1,15,-1
 188 0 l 2,16,17
 160 0 160 0 136.5 10 c 128,-1,18
 113 20 113 20 94.5 38.5 c 128,-1,19
 76 57 76 57 65.5 81 c 128,-1,20
 55 105 55 105 55 133 c 2,21,-1
 55 604 l 2,22,23
 55 632 55 632 65.5 656 c 128,-1,24
 76 680 76 680 94.5 698.5 c 128,-1,25
 113 717 113 717 137 727 c 128,-1,26
 161 737 161 737 188 737 c 2,27,-1
 659 737 l 2,0,1
682 604 m 2,28,29
 682 613 682 613 675.5 620 c 128,-1,30
 669 627 669 627 659 627 c 2,31,-1
 188 627 l 2,32,33
 179 627 179 627 172.5 620 c 128,-1,34
 166 613 166 613 166 604 c 2,35,-1
 166 133 l 2,36,37
 166 124 166 124 172.5 117.5 c 128,-1,38
 179 111 179 111 188 111 c 2,39,-1
 659 111 l 2,40,41
 668 111 668 111 675 117.5 c 128,-1,42
 682 124 682 124 682 133 c 2,43,-1
 682 604 l 2,28,29
EndSplineSet
EndChar

StartChar: R
Encoding: 82 82 54
Width: 844
Flags: W
HStem: 0 21G<56 167 646.118 794> 263 111<173.704 441 586 682.913> 626 110<167.006 676.296>
VStem: 56 111<0 265 380.704 626> 683 111<374.812 618.781>
LayerCount: 2
Fore
SplineSet
794 396 m 2,0,1
 794 368 794 368 783.5 344.5 c 128,-1,2
 773 321 773 321 754.5 303 c 128,-1,3
 736 285 736 285 712 274 c 128,-1,4
 688 263 688 263 660 263 c 2,5,-1
 586 263 l 1,6,-1
 794 15 l 1,7,-1
 794 0 l 1,8,-1
 663 0 l 1,9,-1
 441 263 l 1,10,-1
 189 263 l 2,11,12
 183 263 183 263 177.5 263.5 c 128,-1,13
 172 264 172 264 167 265 c 1,14,-1
 167 0 l 1,15,-1
 56 0 l 1,16,-1
 56 736 l 1,17,-1
 660 736 l 2,18,19
 688 736 688 736 712 725.5 c 128,-1,20
 736 715 736 715 754.5 697 c 128,-1,21
 773 679 773 679 783.5 655 c 128,-1,22
 794 631 794 631 794 603 c 2,23,-1
 794 396 l 2,0,1
660 374 m 2,24,25
 669 374 669 374 676 380.5 c 128,-1,26
 683 387 683 387 683 396 c 2,27,-1
 683 603 l 2,28,29
 683 612 683 612 676.5 619 c 128,-1,30
 670 626 670 626 660 626 c 2,31,-1
 189 626 l 2,32,33
 180 626 180 626 173.5 619 c 128,-1,34
 167 612 167 612 167 603 c 2,35,-1
 167 396 l 2,36,37
 167 387 167 387 173.5 380.5 c 128,-1,38
 180 374 180 374 189 374 c 2,39,-1
 660 374 l 2,24,25
EndSplineSet
Substitution2: "'salt' Stylistic Alternatives in Latin lookup 2 subtable" R.alt
Substitution2: "'aalt' Access All Alternates in Latin lookup 0 subtable" R.alt
EndChar

StartChar: R.alt
Encoding: 65548 -1 55
Width: 845
Flags: W
HStem: 0 21G<55 166 682 793> 263 111<172.704 671.8> 626 111<166.006 675.296>
VStem: 55 111<0 256.296 380.704 626> 682 111<0 256.296 374.672 618.781>
LayerCount: 2
Fore
SplineSet
793 396 m 2,0,1
 793 369 793 369 778.5 354 c 128,-1,2
 764 339 764 339 744 331.5 c 128,-1,3
 724 324 724 324 704 321 c 128,-1,4
 684 318 684 318 672 318 c 1,5,6
 684 318 684 318 704.5 316 c 128,-1,7
 725 314 725 314 744.5 306 c 128,-1,8
 764 298 764 298 778.5 282.5 c 128,-1,9
 793 267 793 267 793 241 c 2,10,-1
 793 0 l 1,11,-1
 682 0 l 1,12,-1
 682 241 l 2,13,14
 682 250 682 250 675.5 256.5 c 128,-1,15
 669 263 669 263 659 263 c 2,16,-1
 188 263 l 2,17,18
 179 263 179 263 172.5 256.5 c 128,-1,19
 166 250 166 250 166 241 c 2,20,-1
 166 0 l 1,21,-1
 55 0 l 1,22,-1
 55 737 l 1,23,-1
 659 736 l 2,24,25
 687 736 687 736 711 725.5 c 128,-1,26
 735 715 735 715 753.5 697 c 128,-1,27
 772 679 772 679 782.5 655 c 128,-1,28
 793 631 793 631 793 603 c 2,29,-1
 793 396 l 2,0,1
188 626 m 2,30,31
 179 626 179 626 172.5 619 c 128,-1,32
 166 612 166 612 166 603 c 2,33,-1
 166 396 l 2,34,35
 166 387 166 387 172.5 380.5 c 128,-1,36
 179 374 179 374 188 374 c 2,37,-1
 659 374 l 2,38,39
 668 374 668 374 675 380.5 c 128,-1,40
 682 387 682 387 682 396 c 2,41,-1
 682 603 l 2,42,43
 682 612 682 612 675.5 619 c 128,-1,44
 669 626 669 626 659 626 c 2,45,-1
 188 626 l 2,30,31
EndSplineSet
EndChar

StartChar: S
Encoding: 83 83 56
Width: 841
Flags: W
HStem: 0 111<169.704 678.913> 313 111<169.704 672.296> 627 110<163.558 672.296>
VStem: 52 111<117.704 176 430.704 626.913> 679 111<111.735 306.296 561 619.781>
LayerCount: 2
Fore
SplineSet
790 561 m 1,0,-1
 679 561 l 1,1,-1
 679 604 l 2,2,3
 679 613 679 613 672.5 620 c 128,-1,4
 666 627 666 627 656 627 c 2,5,-1
 185 627 l 2,6,7
 176 627 176 627 169.5 620 c 128,-1,8
 163 613 163 613 163 604 c 2,9,-1
 163 446 l 2,10,11
 163 437 163 437 169.5 430.5 c 128,-1,12
 176 424 176 424 185 424 c 2,13,-1
 656 424 l 2,14,15
 684 424 684 424 708 413.5 c 128,-1,16
 732 403 732 403 750.5 385 c 128,-1,17
 769 367 769 367 779.5 342.5 c 128,-1,18
 790 318 790 318 790 291 c 2,19,-1
 790 133 l 2,20,21
 790 105 790 105 779.5 81 c 128,-1,22
 769 57 769 57 750.5 38.5 c 128,-1,23
 732 20 732 20 708 10 c 128,-1,24
 684 0 684 0 656 0 c 2,25,-1
 185 0 l 2,26,27
 157 0 157 0 133.5 10 c 128,-1,28
 110 20 110 20 91.5 38.5 c 128,-1,29
 73 57 73 57 62.5 81 c 128,-1,30
 52 105 52 105 52 133 c 2,31,-1
 52 176 l 1,32,-1
 163 176 l 1,33,-1
 163 133 l 2,34,35
 163 124 163 124 169.5 117.5 c 128,-1,36
 176 111 176 111 185 111 c 2,37,-1
 656 111 l 2,38,39
 665 111 665 111 672 117.5 c 128,-1,40
 679 124 679 124 679 133 c 2,41,-1
 679 291 l 2,42,43
 679 300 679 300 672.5 306.5 c 128,-1,44
 666 313 666 313 656 313 c 2,45,-1
 185 313 l 2,46,47
 157 313 157 313 133.5 323.5 c 128,-1,48
 110 334 110 334 91.5 352.5 c 128,-1,49
 73 371 73 371 62.5 395 c 128,-1,50
 52 419 52 419 52 446 c 2,51,-1
 52 604 l 2,52,53
 52 632 52 632 62.5 656 c 128,-1,54
 73 680 73 680 91.5 698.5 c 128,-1,55
 110 717 110 717 134 727 c 128,-1,56
 158 737 158 737 185 737 c 2,57,-1
 656 737 l 2,58,59
 684 737 684 737 708 727 c 128,-1,60
 732 717 732 717 750.5 698.5 c 128,-1,61
 769 680 769 680 779.5 656 c 128,-1,62
 790 632 790 632 790 604 c 2,63,-1
 790 561 l 1,0,-1
EndSplineSet
Substitution2: "'salt' Stylistic Alternatives in Latin lookup 2 subtable" S.alt
Substitution2: "'aalt' Access All Alternates in Latin lookup 0 subtable" S.alt
EndChar

StartChar: S.alt
Encoding: 65549 -1 57
Width: 831
Flags: W
HStem: 0 111<47 673.913> 313 111<164.704 673.913> 627 110<158.475 784>
VStem: 47 111<430.704 626.913> 674 110<111.735 312.525>
LayerCount: 2
Fore
SplineSet
651 424 m 2,0,1
 679 424 679 424 703 413.5 c 128,-1,2
 727 403 727 403 745.5 385 c 128,-1,3
 764 367 764 367 774 342.5 c 128,-1,4
 784 318 784 318 784 291 c 2,5,-1
 784 133 l 2,6,7
 784 105 784 105 774 81 c 128,-1,8
 764 57 764 57 745.5 38.5 c 128,-1,9
 727 20 727 20 703 10 c 128,-1,10
 679 0 679 0 651 0 c 2,11,-1
 47 0 l 1,12,-1
 47 111 l 1,13,-1
 651 111 l 2,14,15
 660 111 660 111 667 117.5 c 128,-1,16
 674 124 674 124 674 133 c 2,17,-1
 674 291 l 2,18,19
 674 300 674 300 667 306.5 c 128,-1,20
 660 313 660 313 651 313 c 2,21,-1
 180 313 l 2,22,23
 152 313 152 313 128 323.5 c 128,-1,24
 104 334 104 334 86 352.5 c 128,-1,25
 68 371 68 371 57.5 395 c 128,-1,26
 47 419 47 419 47 446 c 2,27,-1
 47 604 l 2,28,29
 47 632 47 632 57.5 656 c 128,-1,30
 68 680 68 680 86 698.5 c 128,-1,31
 104 717 104 717 128.5 727 c 128,-1,32
 153 737 153 737 180 737 c 2,33,-1
 784 737 l 1,34,-1
 784 627 l 1,35,-1
 180 627 l 2,36,37
 171 627 171 627 164.5 620 c 128,-1,38
 158 613 158 613 158 604 c 2,39,-1
 158 446 l 2,40,41
 158 437 158 437 164.5 430.5 c 128,-1,42
 171 424 171 424 180 424 c 2,43,-1
 528 424 l 1,44,-1
 651 424 l 2,0,1
EndSplineSet
EndChar

StartChar: T
Encoding: 84 84 59
Width: 777
Flags: W
HStem: 0 21G<334 444> 627 110<20 334 444 758>
VStem: 334 110<0 627>
LayerCount: 2
Fore
SplineSet
758 737 m 1,0,-1
 758 627 l 1,1,-1
 444 627 l 1,2,-1
 444 0 l 1,3,-1
 334 0 l 1,4,-1
 334 627 l 1,5,-1
 20 627 l 1,6,-1
 20 737 l 1,7,-1
 758 737 l 1,0,-1
EndSplineSet
EndChar

StartChar: U
Encoding: 85 85 60
Width: 847
Flags: W
HStem: 0 111<172.704 681.913> 717 20G<55 166 682 793>
VStem: 55 111<117.704 737> 682 111<111.735 737>
LayerCount: 2
Fore
SplineSet
682 737 m 1,0,-1
 793 737 l 1,1,-1
 793 133 l 2,2,3
 793 105 793 105 782.5 81 c 128,-1,4
 772 57 772 57 753.5 38.5 c 128,-1,5
 735 20 735 20 711 10 c 128,-1,6
 687 0 687 0 659 0 c 2,7,-1
 188 0 l 2,8,9
 160 0 160 0 136.5 10 c 128,-1,10
 113 20 113 20 94.5 38.5 c 128,-1,11
 76 57 76 57 65.5 81 c 128,-1,12
 55 105 55 105 55 133 c 2,13,-1
 55 737 l 1,14,-1
 166 737 l 1,15,-1
 166 133 l 2,16,17
 166 124 166 124 172.5 117.5 c 128,-1,18
 179 111 179 111 188 111 c 2,19,-1
 659 111 l 2,20,21
 668 111 668 111 675 117.5 c 128,-1,22
 682 124 682 124 682 133 c 2,23,-1
 682 737 l 1,0,-1
EndSplineSet
EndChar

StartChar: V
Encoding: 86 86 65
Width: 1027
Flags: W
HStem: 0 21G<450.44 583.533> 717 20G<36 175.536 858.464 997>
LayerCount: 2
Fore
SplineSet
870 737 m 1,0,-1
 997 737 l 1,1,-1
 572 0 l 1,2,-1
 462 0 l 1,3,-1
 36 737 l 1,4,-1
 164 737 l 1,5,-1
 517 125 l 1,6,-1
 870 737 l 1,0,-1
EndSplineSet
Substitution2: "'ss02' Style Set 2 in Latin lookup 5 subtable" V.alt2
Substitution2: "'ss01' Style Set 1 in Latin lookup 4 subtable" V.alt
Substitution2: "'salt' Stylistic Alternatives in Latin lookup 2 subtable" V.alt3
AlternateSubs2: "'aalt' Access All Alternates in Latin lookup 1 subtable" V.alt3 V.alt V.alt2
EndChar

StartChar: V.alt
Encoding: 57354 57354 66
Width: 792
Flags: W
HStem: 0 21G<55 202.814> 717 20G<55 166 645.186 793>
VStem: 55 111<147 737>
LayerCount: 2
Fore
SplineSet
166 737 m 1,0,-1
 166 147 l 1,1,-1
 662 737 l 1,2,-1
 793 737 l 1,3,-1
 793 722 l 1,4,-1
 186 0 l 1,5,-1
 55 0 l 1,6,-1
 55 737 l 1,7,-1
 166 737 l 1,0,-1
EndSplineSet
EndChar

StartChar: V.alt2
Encoding: 65550 -1 67
Width: 792
Flags: W
HStem: 0 21G<589.213 737> 717 20G<0 147.814 627 737>
VStem: 627 110<147 737>
LayerCount: 2
Fore
SplineSet
627 737 m 1,0,-1
 737 737 l 1,1,-1
 737 0 l 1,2,-1
 606 0 l 1,3,-1
 0 722 l 1,4,-1
 0 737 l 1,5,-1
 131 737 l 1,6,-1
 627 147 l 1,7,-1
 627 737 l 1,0,-1
EndSplineSet
EndChar

StartChar: V.alt3
Encoding: 65551 -1 68
Width: 846
Flags: W
HStem: 0 111<171.704 681> 717 20G<54 165 681 792>
VStem: 54 111<117.704 737> 681 111<111 737>
LayerCount: 2
Fore
SplineSet
792 737 m 1,0,-1
 792 0 l 1,1,-1
 187 0 l 2,2,3
 159 0 159 0 135.5 10 c 128,-1,4
 112 20 112 20 93.5 38.5 c 128,-1,5
 75 57 75 57 64.5 81 c 128,-1,6
 54 105 54 105 54 133 c 2,7,-1
 54 737 l 1,8,-1
 165 737 l 1,9,-1
 165 133 l 2,10,11
 165 124 165 124 171.5 117.5 c 128,-1,12
 178 111 178 111 187 111 c 2,13,-1
 681 111 l 1,14,-1
 681 737 l 1,15,-1
 792 737 l 1,0,-1
EndSplineSet
EndChar

StartChar: W
Encoding: 87 87 69
Width: 1207
Flags: W
HStem: 0 21G<296.727 401.282 805.683 910.273> 717 20G<36 161.263 537.7 670.263 1046.7 1171>
LayerCount: 2
Fore
SplineSet
1171 737 m 1,0,-1
 903 0 l 1,1,-1
 813 0 l 1,2,-1
 603 574 l 1,3,-1
 394 0 l 1,4,-1
 392 1 l 1,5,-1
 393 0 l 1,6,-1
 304 0 l 1,7,-1
 36 737 l 1,8,-1
 154 737 l 1,9,-1
 349 200 l 1,10,-1
 545 737 l 1,11,-1
 663 737 l 1,12,-1
 858 200 l 1,13,-1
 1054 737 l 1,14,-1
 1171 737 l 1,0,-1
EndSplineSet
Substitution2: "'ss02' Style Set 2 in Latin lookup 5 subtable" W.alt2
Substitution2: "'ss01' Style Set 1 in Latin lookup 4 subtable" W.alt
Substitution2: "'salt' Stylistic Alternatives in Latin lookup 2 subtable" W.alt4
AlternateSubs2: "'aalt' Access All Alternates in Latin lookup 1 subtable" W.alt4 W.alt W.alt2
EndChar

StartChar: W.alt
Encoding: 57353 57353 70
Width: 1176
Flags: W
HStem: 0 21G<48 195.797 436 583.814> 717 20G<48 159 637.22 785 1025.22 1174>
VStem: 48 111<147 737> 436 111<147 306>
LayerCount: 2
Fore
SplineSet
1174 737 m 1,0,-1
 1174 722 l 1,1,-1
 567 0 l 1,2,-1
 436 0 l 1,3,-1
 436 306 l 1,4,-1
 179 0 l 1,5,-1
 48 0 l 1,6,-1
 48 737 l 1,7,-1
 159 737 l 1,8,-1
 159 147 l 1,9,-1
 654 737 l 1,10,-1
 785 737 l 1,11,-1
 785 722 l 1,12,-1
 547 438 l 1,13,-1
 547 147 l 1,14,-1
 1042 737 l 1,15,-1
 1174 737 l 1,0,-1
EndSplineSet
EndChar

StartChar: W.alt2
Encoding: 57352 57352 71
Width: 1158
Flags: W
HStem: 0 21G<589.213 737 977.203 1125> 717 20G<0 147.814 388 535.814 1015 1125>
VStem: 627 110<147 306> 1015 110<147 737>
LayerCount: 2
Fore
SplineSet
131 737 m 1,0,-1
 627 147 l 1,1,-1
 627 438 l 1,2,-1
 388 722 l 1,3,-1
 388 737 l 1,4,-1
 519 737 l 1,5,-1
 1015 147 l 1,6,-1
 1015 737 l 1,7,-1
 1125 737 l 1,8,-1
 1125 0 l 1,9,-1
 994 0 l 1,10,-1
 737 306 l 1,11,-1
 737 0 l 1,12,-1
 606 0 l 1,13,-1
 0 722 l 1,14,-1
 0 737 l 1,15,-1
 131 737 l 1,0,-1
EndSplineSet
EndChar

StartChar: W.alt3
Encoding: 65552 -1 72
Width: 1052
Flags: W
HStem: 0 21G<55 202.832 849.168 997> 717 20G<55 166 887 997>
VStem: 55 111<147 737> 887 110<147 737>
LayerCount: 2
Fore
SplineSet
186 0 m 1,0,-1
 55 0 l 1,1,-1
 55 737 l 1,2,-1
 166 737 l 1,3,-1
 166 147 l 1,4,-1
 526 577 l 1,5,-1
 887 147 l 1,6,-1
 887 737 l 1,7,-1
 997 737 l 1,8,-1
 997 0 l 1,9,-1
 866 0 l 1,10,-1
 526 404 l 1,11,-1
 186 0 l 1,0,-1
EndSplineSet
EndChar

StartChar: W.alt4
Encoding: 65553 -1 73
Width: 1182
Flags: W
HStem: 0 111<171.704 548 658 1017> 717 20G<54 165 548 658 1017 1127>
VStem: 54 111<117.704 737> 548 110<111.006 737> 1017 110<111 737>
LayerCount: 2
Fore
SplineSet
187 0 m 2,0,1
 159 0 159 0 135.5 10 c 128,-1,2
 112 20 112 20 93.5 38.5 c 128,-1,3
 75 57 75 57 64.5 81 c 128,-1,4
 54 105 54 105 54 133 c 2,5,-1
 54 737 l 1,6,-1
 165 737 l 1,7,-1
 165 133 l 2,8,9
 165 124 165 124 171.5 117.5 c 128,-1,10
 178 111 178 111 187 111 c 2,11,-1
 548 111 l 1,12,-1
 548 737 l 1,13,-1
 658 737 l 1,14,-1
 658 133 l 2,15,16
 658 124 658 124 665 117.5 c 128,-1,17
 672 111 672 111 681 111 c 2,18,-1
 1017 111 l 1,19,-1
 1017 737 l 1,20,-1
 1127 737 l 1,21,-1
 1127 0 l 1,22,-1
 187 0 l 2,0,1
EndSplineSet
EndChar

StartChar: X
Encoding: 88 88 74
Width: 831
Flags: W
HStem: 0 21G<47 194.82 636.251 784> 717 20G<47 194.879 636.191 784>
LayerCount: 2
Fore
SplineSet
784 737 m 1,0,-1
 784 722 l 1,1,-1
 487 369 l 1,2,-1
 784 15 l 1,3,-1
 784 0 l 1,4,-1
 653 0 l 1,5,-1
 416 283 l 1,6,-1
 178 0 l 1,7,-1
 47 0 l 1,8,-1
 47 15 l 1,9,-1
 343 369 l 1,10,-1
 47 722 l 1,11,-1
 47 737 l 1,12,-1
 178 737 l 1,13,-1
 416 455 l 1,14,-1
 653 737 l 1,15,-1
 784 737 l 1,0,-1
EndSplineSet
Substitution2: "'salt' Stylistic Alternatives in Latin lookup 2 subtable" X.alt
Substitution2: "'aalt' Access All Alternates in Latin lookup 0 subtable" X.alt
EndChar

StartChar: X.alt
Encoding: 65554 -1 75
Width: 848
Flags: W
HStem: 0 21G<56 167 682 793> 310 56<173.704 207 642 675.296> 366 55<172.704 207 642 682.704> 717 20G<55 166 683 794>
VStem: 55 111<0 303.296 427.704 737> 683 111<0 303.296 421.33 737>
LayerCount: 2
Fore
SplineSet
794 737 m 1,0,-1
 794 464 l 2,1,2
 794 441 794 441 781 423.5 c 128,-1,3
 768 406 768 406 747 393 c 128,-1,4
 726 380 726 380 699 373 c 128,-1,5
 672 366 672 366 642 366 c 1,6,7
 672 366 672 366 699 358.5 c 128,-1,8
 726 351 726 351 747 338.5 c 128,-1,9
 768 326 768 326 780.5 308 c 128,-1,10
 793 290 793 290 793 267 c 2,11,-1
 793 0 l 1,12,-1
 682 0 l 1,13,-1
 682 288 l 2,14,15
 682 297 682 297 675.5 303.5 c 128,-1,16
 669 310 669 310 659 310 c 2,17,-1
 189 310 l 2,18,19
 180 310 180 310 173.5 303.5 c 128,-1,20
 167 297 167 297 167 288 c 2,21,-1
 167 0 l 1,22,-1
 56 0 l 1,23,-1
 56 267 l 2,24,25
 56 290 56 290 68.5 308 c 128,-1,26
 81 326 81 326 101.5 338.5 c 128,-1,27
 122 351 122 351 149.5 358.5 c 128,-1,28
 177 366 177 366 207 366 c 1,29,30
 177 366 177 366 149.5 373 c 128,-1,31
 122 380 122 380 101 393 c 128,-1,32
 80 406 80 406 67.5 423.5 c 128,-1,33
 55 441 55 441 55 464 c 2,34,-1
 55 737 l 1,35,-1
 166 737 l 1,36,-1
 166 443 l 2,37,38
 166 434 166 434 172.5 427.5 c 128,-1,39
 179 421 179 421 188 421 c 2,40,-1
 660 421 l 2,41,42
 669 421 669 421 676 427.5 c 128,-1,43
 683 434 683 434 683 443 c 2,44,-1
 683 737 l 1,45,-1
 794 737 l 1,0,-1
EndSplineSet
EndChar

StartChar: Y
Encoding: 89 89 76
Width: 825
Flags: W
HStem: 0 21G<357 468> 717 20G<17 162.833 661.286 808>
VStem: 357 111<0 276>
LayerCount: 2
Fore
SplineSet
808 737 m 1,0,-1
 468 276 l 1,1,-1
 468 0 l 1,2,-1
 357 0 l 1,3,-1
 357 276 l 1,4,-1
 17 737 l 1,5,-1
 147 737 l 1,6,-1
 413 401 l 1,7,-1
 677 737 l 1,8,-1
 808 737 l 1,0,-1
EndSplineSet
Substitution2: "'salt' Stylistic Alternatives in Latin lookup 2 subtable" Y.alt
Substitution2: "'aalt' Access All Alternates in Latin lookup 0 subtable" Y.alt
EndChar

StartChar: Y.alt
Encoding: 65555 -1 77
Width: 843
Flags: W
HStem: 0 111<52 678.913> 313 111<169.704 672.296> 717 20G<52 163 679 790>
VStem: 52 111<430.704 737> 679 111<111.735 306.296 424 737>
LayerCount: 2
Fore
SplineSet
790 737 m 1,0,-1
 790 133 l 2,1,2
 790 105 790 105 779.5 81 c 128,-1,3
 769 57 769 57 750.5 38.5 c 128,-1,4
 732 20 732 20 708 10 c 128,-1,5
 684 0 684 0 656 0 c 2,6,-1
 52 0 l 1,7,-1
 52 111 l 1,8,-1
 656 111 l 2,9,10
 665 111 665 111 672 117.5 c 128,-1,11
 679 124 679 124 679 133 c 2,12,-1
 679 291 l 2,13,14
 679 300 679 300 672.5 306.5 c 128,-1,15
 666 313 666 313 656 313 c 2,16,-1
 185 313 l 2,17,18
 157 313 157 313 133.5 323.5 c 128,-1,19
 110 334 110 334 91.5 352.5 c 128,-1,20
 73 371 73 371 62.5 395 c 128,-1,21
 52 419 52 419 52 446 c 2,22,-1
 52 737 l 1,23,-1
 163 737 l 1,24,-1
 163 446 l 2,25,26
 163 437 163 437 169.5 430.5 c 128,-1,27
 176 424 176 424 185 424 c 2,28,-1
 679 424 l 1,29,-1
 679 737 l 1,30,-1
 790 737 l 1,0,-1
EndSplineSet
EndChar

StartChar: Z
Encoding: 90 90 80
Width: 840
Flags: W
HStem: 0 111<200 790> 627 110<52 642>
LayerCount: 2
Fore
SplineSet
52 737 m 1,0,-1
 790 737 l 1,1,-1
 790 606 l 1,2,-1
 200 111 l 1,3,-1
 790 111 l 1,4,-1
 790 0 l 1,5,-1
 52 0 l 1,6,-1
 52 131 l 1,7,-1
 642 627 l 1,8,-1
 52 627 l 1,9,-1
 52 737 l 1,0,-1
EndSplineSet
Substitution2: "'salt' Stylistic Alternatives in Latin lookup 2 subtable" Z.alt
Substitution2: "'aalt' Access All Alternates in Latin lookup 0 subtable" Z.alt
EndChar

StartChar: Z.alt
Encoding: 65556 -1 81
Width: 837
Flags: W
HStem: 0 111<167.704 787> 313 111<167.704 676.913> 627 110<50 670.296>
VStem: 50 111<117.704 306.296> 677 110<424.812 619.781>
LayerCount: 2
Fore
SplineSet
306 424 m 1,0,-1
 654 424 l 2,1,2
 663 424 663 424 670 430.5 c 128,-1,3
 677 437 677 437 677 446 c 2,4,-1
 677 604 l 2,5,6
 677 613 677 613 670.5 620 c 128,-1,7
 664 627 664 627 654 627 c 2,8,-1
 50 627 l 1,9,-1
 50 737 l 1,10,-1
 654 737 l 2,11,12
 682 737 682 737 706 727 c 128,-1,13
 730 717 730 717 748.5 698.5 c 128,-1,14
 767 680 767 680 777 656 c 128,-1,15
 787 632 787 632 787 604 c 2,16,-1
 787 446 l 2,17,18
 787 418 787 418 777 394.5 c 128,-1,19
 767 371 767 371 748.5 352.5 c 128,-1,20
 730 334 730 334 706 323.5 c 128,-1,21
 682 313 682 313 654 313 c 2,22,-1
 183 313 l 2,23,24
 174 313 174 313 167.5 306.5 c 128,-1,25
 161 300 161 300 161 291 c 2,26,-1
 161 133 l 2,27,28
 161 124 161 124 167.5 117.5 c 128,-1,29
 174 111 174 111 183 111 c 2,30,-1
 787 111 l 1,31,-1
 787 0 l 1,32,-1
 183 0 l 2,33,34
 155 0 155 0 131.5 10 c 128,-1,35
 108 20 108 20 89.5 38.5 c 128,-1,36
 71 57 71 57 60.5 81 c 128,-1,37
 50 105 50 105 50 133 c 2,38,-1
 50 291 l 2,39,40
 50 319 50 319 60.5 343 c 128,-1,41
 71 367 71 367 89.5 385 c 128,-1,42
 108 403 108 403 132 413.5 c 128,-1,43
 156 424 156 424 183 424 c 2,44,-1
 306 424 l 1,0,-1
EndSplineSet
EndChar

StartChar: a
Encoding: 97 97 83
Width: 710
Flags: W
HStem: 0 111<170.704 547> 242 110<164 547> 483 111<53 540.296>
VStem: 53 111<117.704 242> 547 110<111 242 352 476.296>
CounterMasks: 1 e0
LayerCount: 2
Fore
SplineSet
524 594 m 2,0,1
 552 594 552 594 576 583.5 c 128,-1,2
 600 573 600 573 618.5 555 c 128,-1,3
 637 537 637 537 647 512.5 c 128,-1,4
 657 488 657 488 657 461 c 2,5,-1
 657 0 l 1,6,-1
 186 0 l 2,7,8
 158 0 158 0 134.5 10 c 128,-1,9
 111 20 111 20 92.5 38.5 c 128,-1,10
 74 57 74 57 63.5 81 c 128,-1,11
 53 105 53 105 53 133 c 2,12,-1
 53 352 l 1,13,-1
 547 352 l 1,14,-1
 547 461 l 2,15,16
 547 470 547 470 540.5 476.5 c 128,-1,17
 534 483 534 483 524 483 c 2,18,-1
 53 483 l 1,19,-1
 53 594 l 1,20,-1
 524 594 l 2,0,1
547 242 m 1,21,-1
 164 242 l 1,22,-1
 164 133 l 2,23,24
 164 124 164 124 170.5 117.5 c 128,-1,25
 177 111 177 111 186 111 c 2,26,-1
 547 111 l 1,27,-1
 547 242 l 1,21,-1
EndSplineSet
Substitution2: "'smcp' Lowercase to Small Capitals in Latin lookup 3 subtable" a.sc
Substitution2: "'salt' Stylistic Alternatives in Latin lookup 2 subtable" a.alt
AlternateSubs2: "'aalt' Access All Alternates in Latin lookup 1 subtable" a.sc a.alt
EndChar

StartChar: a.alt
Encoding: 65557 -1 84
Width: 709
Flags: W
HStem: 0 111<169.704 546> 483 111<169.704 545.913>
VStem: 52 111<117.704 476.296> 546 110<111 482.525>
LayerCount: 2
Fore
SplineSet
523 594 m 2,0,1
 551 594 551 594 575 583.5 c 128,-1,2
 599 573 599 573 617.5 555 c 128,-1,3
 636 537 636 537 646 512.5 c 128,-1,4
 656 488 656 488 656 461 c 2,5,-1
 656 0 l 1,6,-1
 185 0 l 2,7,8
 157 0 157 0 133.5 10 c 128,-1,9
 110 20 110 20 91.5 38.5 c 128,-1,10
 73 57 73 57 62.5 81 c 128,-1,11
 52 105 52 105 52 133 c 2,12,-1
 52 461 l 2,13,14
 52 489 52 489 62.5 513 c 128,-1,15
 73 537 73 537 91.5 555 c 128,-1,16
 110 573 110 573 134 583.5 c 128,-1,17
 158 594 158 594 185 594 c 2,18,-1
 523 594 l 2,0,1
546 111 m 1,19,-1
 546 461 l 2,20,21
 546 470 546 470 539 476.5 c 128,-1,22
 532 483 532 483 523 483 c 2,23,-1
 185 483 l 2,24,25
 176 483 176 483 169.5 476.5 c 128,-1,26
 163 470 163 470 163 461 c 2,27,-1
 163 133 l 2,28,29
 163 124 163 124 169.5 117.5 c 128,-1,30
 176 111 176 111 185 111 c 2,31,-1
 546 111 l 1,19,-1
EndSplineSet
EndChar

StartChar: a.sc
Encoding: 65558 -1 85
Width: 742
Flags: W
HStem: 0 21G<54 165 579 689> 156 110<165 579> 483 111<171.704 578.913>
VStem: 54 111<0 156 266 476.296> 579 110<0 156 266 482.525>
LayerCount: 2
Fore
SplineSet
556 594 m 2,0,1
 584 594 584 594 608 583.5 c 128,-1,2
 632 573 632 573 650.5 555 c 128,-1,3
 669 537 669 537 679 512.5 c 128,-1,4
 689 488 689 488 689 461 c 2,5,-1
 689 0 l 1,6,-1
 579 0 l 1,7,-1
 579 156 l 1,8,-1
 165 156 l 1,9,-1
 165 0 l 1,10,-1
 54 0 l 1,11,-1
 54 461 l 2,12,13
 54 489 54 489 64.5 513 c 128,-1,14
 75 537 75 537 93.5 555 c 128,-1,15
 112 573 112 573 136 583.5 c 128,-1,16
 160 594 160 594 187 594 c 2,17,-1
 556 594 l 2,0,1
579 266 m 1,18,-1
 579 461 l 2,19,20
 579 470 579 470 572 476.5 c 128,-1,21
 565 483 565 483 556 483 c 2,22,-1
 187 483 l 2,23,24
 178 483 178 483 171.5 476.5 c 128,-1,25
 165 470 165 470 165 461 c 2,26,-1
 165 266 l 1,27,-1
 579 266 l 1,18,-1
EndSplineSet
EndChar

StartChar: acute
Encoding: 180 180 88
Width: 218
Flags: W
HStem: 847 166<75 144>
VStem: 34 151
LayerCount: 2
Fore
SplineSet
75 1013 m 1,0,-1
 185 1013 l 1,1,-1
 144 847 l 1,2,-1
 34 847 l 1,3,-1
 75 1013 l 1,0,-1
EndSplineSet
EndChar

StartChar: ae
Encoding: 230 230 90
Width: 1206
Flags: W
HStem: 0 111<171.704 548 658 1152> 242 110<165 548 658 1041> 483 111<54 541.296 658 1034.3>
VStem: 54 111<117.704 242> 548 110<111.005 242 352 476.296> 1041 111<352 476.296>
CounterMasks: 1 fc
LayerCount: 2
Fore
SplineSet
1019 594 m 2,0,1
 1047 594 1047 594 1071 583.5 c 128,-1,2
 1095 573 1095 573 1113.5 555 c 128,-1,3
 1132 537 1132 537 1142 512.5 c 128,-1,4
 1152 488 1152 488 1152 461 c 2,5,-1
 1152 242 l 1,6,-1
 658 242 l 1,7,-1
 658 130 l 1,8,9
 659 122 659 122 666 116.5 c 128,-1,10
 673 111 673 111 681 111 c 2,11,-1
 1152 111 l 1,12,-1
 1152 0 l 1,13,-1
 187 0 l 2,14,15
 159 0 159 0 135.5 10 c 128,-1,16
 112 20 112 20 93.5 38.5 c 128,-1,17
 75 57 75 57 64.5 81 c 128,-1,18
 54 105 54 105 54 133 c 2,19,-1
 54 352 l 1,20,-1
 548 352 l 1,21,-1
 548 461 l 2,22,23
 548 470 548 470 541.5 476.5 c 128,-1,24
 535 483 535 483 525 483 c 2,25,-1
 54 483 l 1,26,-1
 54 594 l 1,27,-1
 1019 594 l 2,0,1
548 242 m 1,28,-1
 165 242 l 1,29,-1
 165 133 l 2,30,31
 165 124 165 124 171.5 117.5 c 128,-1,32
 178 111 178 111 187 111 c 2,33,-1
 548 111 l 1,34,-1
 548 242 l 1,28,-1
1041 352 m 1,35,-1
 1041 461 l 2,36,37
 1041 470 1041 470 1034.5 476.5 c 128,-1,38
 1028 483 1028 483 1019 483 c 2,39,-1
 681 483 l 2,40,41
 672 483 672 483 665 476.5 c 128,-1,42
 658 470 658 470 658 461 c 2,43,-1
 658 352 l 1,44,-1
 1041 352 l 1,35,-1
EndSplineSet
EndChar

StartChar: ampersand
Encoding: 38 38 92
Width: 960
Flags: W
HStem: 0 111<171.704 677.607> 626 111<206.558 649.301>
VStem: 54 111<117.704 364.696> 95 111<468 625.265> 650 111<554 626> 681 111<228 354>
LayerCount: 2
Fore
SplineSet
922 110 m 1,0,-1
 922 3 l 1,1,-1
 781 83 l 1,2,3
 767 46 767 46 734 23 c 128,-1,4
 701 0 701 0 658 0 c 2,5,-1
 187 0 l 2,6,7
 159 0 159 0 135.5 10 c 128,-1,8
 112 20 112 20 93.5 38.5 c 128,-1,9
 75 57 75 57 64.5 81 c 128,-1,10
 54 105 54 105 54 133 c 2,11,-1
 54 342 l 2,12,13
 54 352 54 352 58 366 c 128,-1,14
 62 380 62 380 71 391.5 c 128,-1,15
 80 403 80 403 92 411.5 c 128,-1,16
 104 420 104 420 121 420 c 1,17,18
 105 432 105 432 100 454 c 128,-1,19
 95 476 95 476 95 498 c 2,20,-1
 95 604 l 2,21,22
 95 632 95 632 105.5 656 c 128,-1,23
 116 680 116 680 134.5 698.5 c 128,-1,24
 153 717 153 717 177 727 c 128,-1,25
 201 737 201 737 228 737 c 2,26,-1
 628 737 l 2,27,28
 653 737 653 737 675 728.5 c 128,-1,29
 697 720 697 720 714.5 705 c 128,-1,30
 732 690 732 690 744.5 670 c 128,-1,31
 757 650 757 650 761 627 c 1,32,-1
 761 554 l 1,33,-1
 650 554 l 1,34,-1
 650 603 l 2,35,36
 650 612 650 612 643.5 619 c 128,-1,37
 637 626 637 626 628 626 c 2,38,-1
 228 626 l 2,39,40
 219 626 219 626 212.5 619 c 128,-1,41
 206 612 206 612 206 603 c 2,42,-1
 206 468 l 1,43,-1
 681 228 l 1,44,-1
 681 354 l 1,45,-1
 792 354 l 1,46,-1
 792 185 l 1,47,-1
 922 110 l 1,0,-1
658 111 m 2,48,49
 672 111 672 111 678 123 c 1,50,-1
 199 365 l 1,51,-1
 187 365 l 2,52,53
 178 365 178 365 171.5 358 c 128,-1,54
 165 351 165 351 165 342 c 2,55,-1
 165 133 l 2,56,57
 165 124 165 124 171.5 117.5 c 128,-1,58
 178 111 178 111 187 111 c 2,59,-1
 658 111 l 2,48,49
EndSplineSet
EndChar

StartChar: asciitilde
Encoding: 126 126 94
Width: 413
Flags: W
HStem: 238 67<235.422 378.197> 307 68<25.4387 181.062>
LayerCount: 2
Fore
SplineSet
305 305 m 1,0,1
 328 305 328 305 347.5 312 c 128,-1,2
 367 319 367 319 385 332 c 1,3,-1
 385 256 l 1,4,5
 369 249 369 249 349 243.5 c 128,-1,6
 329 238 329 238 305 238 c 0,7,8
 277 238 277 238 253 248.5 c 128,-1,9
 229 259 229 259 204.5 272.5 c 128,-1,10
 180 286 180 286 154.5 296.5 c 128,-1,11
 129 307 129 307 100 307 c 0,12,13
 92 307 92 307 81 306.5 c 128,-1,14
 70 306 70 306 59 303.5 c 128,-1,15
 48 301 48 301 39 296.5 c 128,-1,16
 30 292 30 292 25 284 c 1,17,-1
 25 360 l 1,18,19
 39 366 39 366 58 370.5 c 128,-1,20
 77 375 77 375 100 375 c 0,21,22
 129 375 129 375 153.5 365 c 128,-1,23
 178 355 178 355 202.5 343 c 128,-1,24
 227 331 227 331 251.5 319.5 c 128,-1,25
 276 308 276 308 305 305 c 1,0,1
EndSplineSet
EndChar

StartChar: asterisk
Encoding: 42 42 95
Width: 502
Flags: W
HStem: 716 20G<196 306>
VStem: 196 110<593 736>
LayerCount: 2
Fore
SplineSet
477 532 m 1,0,-1
 341 488 l 1,1,-1
 425 372 l 1,2,-1
 336 307 l 1,3,-1
 251 423 l 1,4,-1
 167 307 l 1,5,-1
 78 372 l 1,6,-1
 162 488 l 1,7,-1
 26 532 l 1,8,-1
 59 638 l 1,9,-1
 196 593 l 1,10,-1
 196 736 l 1,11,-1
 306 736 l 1,12,-1
 306 593 l 1,13,-1
 442 638 l 1,14,-1
 477 532 l 1,0,-1
EndSplineSet
EndChar

StartChar: at
Encoding: 64 64 96
Width: 850
Flags: W
HStem: 0 111<175.704 796> 195 90<344.704 516 606 685> 453 90<338.141 515.859> 627 110<169.558 684.188>
VStem: 58 111<117.704 626.913> 248 90<291.704 452.529> 516 90<285 452.661> 685 111<285 626.913>
LayerCount: 2
Fore
SplineSet
473 543 m 2,0,1
 501 543 501 543 525 532.5 c 128,-1,2
 549 522 549 522 567.5 503.5 c 128,-1,3
 586 485 586 485 596 461 c 128,-1,4
 606 437 606 437 606 410 c 2,5,-1
 606 285 l 1,6,-1
 685 285 l 1,7,-1
 685 604 l 2,8,9
 685 613 685 613 678.5 620 c 128,-1,10
 672 627 672 627 663 627 c 2,11,-1
 191 627 l 2,12,13
 182 627 182 627 175.5 620 c 128,-1,14
 169 613 169 613 169 604 c 2,15,-1
 169 133 l 2,16,17
 169 124 169 124 175.5 117.5 c 128,-1,18
 182 111 182 111 191 111 c 2,19,-1
 796 111 l 1,20,-1
 796 0 l 1,21,-1
 191 0 l 2,22,23
 163 0 163 0 139.5 10 c 128,-1,24
 116 20 116 20 97.5 38.5 c 128,-1,25
 79 57 79 57 68.5 81 c 128,-1,26
 58 105 58 105 58 133 c 2,27,-1
 58 604 l 2,28,29
 58 632 58 632 68.5 656 c 128,-1,30
 79 680 79 680 97.5 698.5 c 128,-1,31
 116 717 116 717 140 727 c 128,-1,32
 164 737 164 737 191 737 c 2,33,-1
 663 737 l 2,34,35
 691 737 691 737 714.5 727 c 128,-1,36
 738 717 738 717 756.5 698.5 c 128,-1,37
 775 680 775 680 785.5 656 c 128,-1,38
 796 632 796 632 796 604 c 2,39,-1
 796 195 l 1,40,-1
 381 195 l 2,41,42
 353 195 353 195 329 205 c 128,-1,43
 305 215 305 215 286.5 233.5 c 128,-1,44
 268 252 268 252 258 276 c 128,-1,45
 248 300 248 300 248 328 c 2,46,-1
 248 410 l 2,47,48
 248 438 248 438 258 461.5 c 128,-1,49
 268 485 268 485 286.5 503.5 c 128,-1,50
 305 522 305 522 329 532.5 c 128,-1,51
 353 543 353 543 381 543 c 2,52,-1
 473 543 l 2,0,1
516 285 m 1,53,-1
 516 430 l 2,54,55
 516 439 516 439 509.5 446 c 128,-1,56
 503 453 503 453 494 453 c 2,57,-1
 360 453 l 2,58,59
 351 453 351 453 344.5 446 c 128,-1,60
 338 439 338 439 338 430 c 2,61,-1
 338 307 l 2,62,63
 338 298 338 298 344.5 291.5 c 128,-1,64
 351 285 351 285 360 285 c 2,65,-1
 516 285 l 1,53,-1
EndSplineSet
EndChar

StartChar: b
Encoding: 98 98 98
Width: 683
Flags: W
HStem: 0 111<172.704 548.913> 483 111<172.704 542.296> 768 20G<55 166>
VStem: 55 111<117.704 476.296 594 788> 549 110<111.735 476.296>
LayerCount: 2
Fore
SplineSet
526 594 m 2,0,1
 554 594 554 594 578 583.5 c 128,-1,2
 602 573 602 573 620.5 555 c 128,-1,3
 639 537 639 537 649 512.5 c 128,-1,4
 659 488 659 488 659 461 c 2,5,-1
 659 133 l 2,6,7
 659 105 659 105 649 81 c 128,-1,8
 639 57 639 57 620.5 38.5 c 128,-1,9
 602 20 602 20 578 10 c 128,-1,10
 554 0 554 0 526 0 c 2,11,-1
 55 0 l 1,12,-1
 55 788 l 1,13,-1
 166 788 l 1,14,-1
 166 594 l 1,15,-1
 526 594 l 2,0,1
549 461 m 2,16,17
 549 470 549 470 542.5 476.5 c 128,-1,18
 536 483 536 483 526 483 c 2,19,-1
 188 483 l 2,20,21
 179 483 179 483 172.5 476.5 c 128,-1,22
 166 470 166 470 166 461 c 2,23,-1
 166 133 l 2,24,25
 166 124 166 124 172.5 117.5 c 128,-1,26
 179 111 179 111 188 111 c 2,27,-1
 526 111 l 2,28,29
 535 111 535 111 542 117.5 c 128,-1,30
 549 124 549 124 549 133 c 2,31,-1
 549 461 l 2,16,17
EndSplineSet
Substitution2: "'smcp' Lowercase to Small Capitals in Latin lookup 3 subtable" b.sc
Substitution2: "'aalt' Access All Alternates in Latin lookup 0 subtable" b.sc
EndChar

StartChar: b.sc
Encoding: 65559 -1 99
Width: 716
Flags: W
HStem: 0 111<172.704 552.296> 239 110<166.006 521.296> 484 111<172.704 521.296>
VStem: 55 111<117.704 239 349 477.296> 528 111<355.704 477.296> 559 111<117.704 238.751>
LayerCount: 2
Fore
SplineSet
626 314 m 1,0,1
 646 297 646 297 658 271.5 c 128,-1,2
 670 246 670 246 670 216 c 2,3,-1
 670 133 l 2,4,5
 670 105 670 105 659.5 81 c 128,-1,6
 649 57 649 57 630.5 38.5 c 128,-1,7
 612 20 612 20 588 10 c 128,-1,8
 564 0 564 0 537 0 c 2,9,-1
 55 0 l 1,10,-1
 55 595 l 1,11,-1
 506 595 l 2,12,13
 534 595 534 595 558 584.5 c 128,-1,14
 582 574 582 574 600 556 c 128,-1,15
 618 538 618 538 628.5 513.5 c 128,-1,16
 639 489 639 489 639 462 c 2,17,-1
 639 372 l 2,18,19
 639 343 639 343 626 314 c 1,0,1
188 484 m 2,20,21
 179 484 179 484 172.5 477.5 c 128,-1,22
 166 471 166 471 166 462 c 2,23,-1
 166 372 l 2,24,25
 166 363 166 363 172.5 356 c 128,-1,26
 179 349 179 349 188 349 c 2,27,-1
 506 349 l 2,28,29
 515 349 515 349 521.5 355.5 c 128,-1,30
 528 362 528 362 528 372 c 2,31,-1
 528 462 l 2,32,33
 528 471 528 471 521.5 477.5 c 128,-1,34
 515 484 515 484 506 484 c 2,35,-1
 188 484 l 2,20,21
559 216 m 2,36,37
 559 225 559 225 552.5 232 c 128,-1,38
 546 239 546 239 537 239 c 2,39,-1
 188 239 l 2,40,41
 179 239 179 239 172.5 232 c 128,-1,42
 166 225 166 225 166 216 c 2,43,-1
 166 133 l 2,44,45
 166 124 166 124 172.5 117.5 c 128,-1,46
 179 111 179 111 188 111 c 2,47,-1
 537 111 l 2,48,49
 546 111 546 111 552.5 117.5 c 128,-1,50
 559 124 559 124 559 133 c 2,51,-1
 559 216 l 2,36,37
EndSplineSet
EndChar

StartChar: backslash
Encoding: 92 92 100
Width: 532
Flags: W
HStem: 0 21G<495.267 527> 717 20G<5 36.7327>
LayerCount: 2
Fore
SplineSet
20 737 m 1,0,-1
 527 131 l 1,1,-1
 527 0 l 1,2,-1
 512 0 l 1,3,-1
 5 606 l 1,4,-1
 5 737 l 1,5,-1
 20 737 l 1,0,-1
EndSplineSet
EndChar

StartChar: bar
Encoding: 124 124 101
Width: 219
Flags: W
VStem: 55 111<-112 848>
LayerCount: 2
Fore
SplineSet
55 848 m 1,0,-1
 166 848 l 1,1,-1
 166 -112 l 1,2,-1
 55 -112 l 1,3,-1
 55 848 l 1,0,-1
EndSplineSet
EndChar

StartChar: braceleft
Encoding: 123 123 102
Width: 295
Flags: W
HStem: 0 111<179.087 245> 627 110<179.087 245>
VStem: 69 110<111.735 293 456 626.913>
LayerCount: 2
Fore
SplineSet
179 133 m 2,0,1
 179 124 179 124 186 117.5 c 128,-1,2
 193 111 193 111 202 111 c 2,3,-1
 245 111 l 1,4,-1
 245 0 l 1,5,-1
 202 0 l 2,6,7
 174 0 174 0 150 10 c 128,-1,8
 126 20 126 20 107.5 38.5 c 128,-1,9
 89 57 89 57 79 81 c 128,-1,10
 69 105 69 105 69 133 c 2,11,-1
 69 293 l 1,12,-1
 24 319 l 1,13,-1
 24 430 l 1,14,-1
 69 456 l 1,15,-1
 69 604 l 2,16,17
 69 632 69 632 79 656 c 128,-1,18
 89 680 89 680 107.5 698.5 c 128,-1,19
 126 717 126 717 150 727 c 128,-1,20
 174 737 174 737 202 737 c 2,21,-1
 245 737 l 1,22,-1
 245 627 l 1,23,-1
 202 627 l 2,24,25
 193 627 193 627 186 620 c 128,-1,26
 179 613 179 613 179 604 c 2,27,-1
 179 431 l 1,28,-1
 108 375 l 1,29,-1
 179 315 l 1,30,-1
 179 133 l 2,0,1
EndSplineSet
EndChar

StartChar: braceright
Encoding: 125 125 103
Width: 295
Flags: W
HStem: 0 111<52 117.913> 627 110<52 117.913>
VStem: 118 110<111.735 293 456 626.913>
LayerCount: 2
Fore
SplineSet
118 315 m 1,0,-1
 189 375 l 1,1,-1
 118 431 l 1,2,-1
 118 604 l 2,3,4
 118 613 118 613 111 620 c 128,-1,5
 104 627 104 627 95 627 c 2,6,-1
 52 627 l 1,7,-1
 52 737 l 1,8,-1
 95 737 l 2,9,10
 123 737 123 737 147 727 c 128,-1,11
 171 717 171 717 189.5 698.5 c 128,-1,12
 208 680 208 680 218 656 c 128,-1,13
 228 632 228 632 228 604 c 2,14,-1
 228 456 l 1,15,-1
 273 430 l 1,16,-1
 273 319 l 1,17,-1
 228 293 l 1,18,-1
 228 133 l 2,19,20
 228 105 228 105 218 81 c 128,-1,21
 208 57 208 57 189.5 38.5 c 128,-1,22
 171 20 171 20 147 10 c 128,-1,23
 123 0 123 0 95 0 c 2,24,-1
 52 0 l 1,25,-1
 52 111 l 1,26,-1
 95 111 l 2,27,28
 104 111 104 111 111 117.5 c 128,-1,29
 118 124 118 124 118 133 c 2,30,-1
 118 315 l 1,0,-1
EndSplineSet
EndChar

StartChar: bracketleft
Encoding: 91 91 104
Width: 281
Flags: W
HStem: 0 111<166 231> 627 110<166 231>
VStem: 55 176<0 111 627 737> 55 111<111 627>
LayerCount: 2
Fore
SplineSet
55 737 m 1,0,-1
 231 737 l 1,1,-1
 231 627 l 1,2,-1
 166 627 l 1,3,-1
 166 111 l 1,4,-1
 231 111 l 1,5,-1
 231 0 l 1,6,-1
 55 0 l 1,7,-1
 55 737 l 1,0,-1
EndSplineSet
EndChar

StartChar: bracketright
Encoding: 93 93 105
Width: 282
Flags: W
HStem: 0 111<52 118> 627 110<52 118>
VStem: 52 176<0 111 627 737> 118 110<111 627>
LayerCount: 2
Fore
SplineSet
52 737 m 1,0,-1
 228 737 l 1,1,-1
 228 0 l 1,2,-1
 52 0 l 1,3,-1
 52 111 l 1,4,-1
 118 111 l 1,5,-1
 118 627 l 1,6,-1
 52 627 l 1,7,-1
 52 737 l 1,0,-1
EndSplineSet
EndChar

StartChar: breve
Encoding: 728 728 106
Width: 293
Flags: W
HStem: 847 53<93.3593 199.641>
VStem: 41 52<900.838 933> 200 52<900.838 933>
LayerCount: 2
Fore
SplineSet
252 933 m 1,0,-1
 252 926 l 2,1,2
 252 893 252 893 229.5 870 c 128,-1,3
 207 847 207 847 173 847 c 2,4,-1
 120 847 l 2,5,6
 86 847 86 847 63.5 870 c 128,-1,7
 41 893 41 893 41 926 c 2,8,-1
 41 933 l 1,9,-1
 93 933 l 1,10,-1
 93 914 l 2,11,12
 93 900 93 900 108 900 c 2,13,-1
 185 900 l 2,14,15
 199 900 199 900 200 914 c 2,16,-1
 200 933 l 1,17,-1
 252 933 l 1,0,-1
EndSplineSet
EndChar

StartChar: bullet
Encoding: 8226 8226 107
Width: 379
Flags: W
HStem: 315 107<137.401 241.52>
VStem: 134 111<318.79 418.21>
LayerCount: 2
Fore
SplineSet
201 422 m 2,0,1
 245 422 245 422 245 379 c 2,2,-1
 245 358 l 2,3,4
 245 315 245 315 201 315 c 2,5,-1
 177 315 l 2,6,7
 134 315 134 315 134 358 c 2,8,-1
 134 379 l 2,9,10
 134 422 134 422 177 422 c 2,11,-1
 201 422 l 2,0,1
EndSplineSet
EndChar

StartChar: c
Encoding: 99 99 108
Width: 711
Flags: W
HStem: 0 111<169.704 656> 483 111<169.704 654>
VStem: 52 111<117.704 476.296>
LayerCount: 2
Fore
SplineSet
656 111 m 1,0,-1
 656 0 l 1,1,-1
 185 0 l 2,2,3
 157 0 157 0 133.5 10 c 128,-1,4
 110 20 110 20 91.5 38.5 c 128,-1,5
 73 57 73 57 62.5 81 c 128,-1,6
 52 105 52 105 52 133 c 2,7,-1
 52 461 l 2,8,9
 52 489 52 489 62.5 513 c 128,-1,10
 73 537 73 537 91.5 555 c 128,-1,11
 110 573 110 573 134 583.5 c 128,-1,12
 158 594 158 594 185 594 c 2,13,-1
 654 594 l 1,14,-1
 654 483 l 1,15,-1
 185 483 l 2,16,17
 176 483 176 483 169.5 476.5 c 128,-1,18
 163 470 163 470 163 461 c 2,19,-1
 163 133 l 2,20,21
 163 124 163 124 169.5 117.5 c 128,-1,22
 176 111 176 111 185 111 c 2,23,-1
 656 111 l 1,0,-1
EndSplineSet
Substitution2: "'smcp' Lowercase to Small Capitals in Latin lookup 3 subtable" c.sc
Substitution2: "'aalt' Access All Alternates in Latin lookup 0 subtable" c.sc
EndChar

StartChar: c.sc
Encoding: 65560 -1 109
Width: 709
Flags: W
HStem: 0 111<169.704 654> 484 111<169.704 654>
VStem: 52 111<117.704 477.296>
LayerCount: 2
Fore
SplineSet
185 484 m 2,0,1
 176 484 176 484 169.5 477.5 c 128,-1,2
 163 471 163 471 163 462 c 2,3,-1
 163 133 l 2,4,5
 163 124 163 124 169.5 117.5 c 128,-1,6
 176 111 176 111 185 111 c 2,7,-1
 654 111 l 1,8,-1
 654 0 l 1,9,-1
 185 0 l 2,10,11
 157 0 157 0 133.5 10 c 128,-1,12
 110 20 110 20 91.5 38.5 c 128,-1,13
 73 57 73 57 62.5 81 c 128,-1,14
 52 105 52 105 52 133 c 2,15,-1
 52 462 l 2,16,17
 52 490 52 490 62.5 514 c 128,-1,18
 73 538 73 538 91.5 556 c 128,-1,19
 110 574 110 574 134 584.5 c 128,-1,20
 158 595 158 595 185 595 c 2,21,-1
 654 595 l 1,22,-1
 654 484 l 1,23,-1
 185 484 l 2,0,1
EndSplineSet
EndChar

StartChar: caron
Encoding: 711 711 110
Width: 304
Flags: W
HStem: 846 144
VStem: 28 250
LayerCount: 2
Fore
SplineSet
103 990 m 1,0,-1
 153 912 l 1,1,-1
 201 990 l 1,2,-1
 278 990 l 1,3,-1
 190 846 l 1,4,-1
 115 846 l 1,5,-1
 28 990 l 1,6,-1
 103 990 l 1,0,-1
EndSplineSet
EndChar

StartChar: cedilla
Encoding: 184 184 112
Width: 218
Flags: W
HStem: -166 166<75 144>
VStem: 34 151
LayerCount: 2
Fore
SplineSet
75 0 m 1,0,-1
 185 0 l 1,1,-1
 144 -166 l 1,2,-1
 34 -166 l 1,3,-1
 75 0 l 1,0,-1
EndSplineSet
EndChar

StartChar: cent
Encoding: 162 162 113
Width: 651
Flags: W
HStem: 0 111<144.087 281 391 636> 494 110<144.087 281 391 636>
VStem: 34 110<111.735 493.913> 281 110<-112 0 111 494 604 735>
LayerCount: 2
Fore
SplineSet
391 494 m 1,0,-1
 391 111 l 1,1,-1
 636 111 l 1,2,-1
 636 0 l 1,3,-1
 391 0 l 1,4,-1
 391 -112 l 1,5,-1
 281 -112 l 1,6,-1
 281 0 l 1,7,-1
 167 0 l 2,8,9
 139 0 139 0 115 10 c 128,-1,10
 91 20 91 20 72.5 38.5 c 128,-1,11
 54 57 54 57 44 81 c 128,-1,12
 34 105 34 105 34 133 c 2,13,-1
 34 471 l 2,14,15
 34 499 34 499 44 523 c 128,-1,16
 54 547 54 547 72.5 565.5 c 128,-1,17
 91 584 91 584 115 594 c 128,-1,18
 139 604 139 604 167 604 c 2,19,-1
 281 604 l 1,20,-1
 281 735 l 1,21,-1
 391 735 l 1,22,-1
 391 604 l 1,23,-1
 636 604 l 1,24,-1
 636 494 l 1,25,-1
 391 494 l 1,0,-1
281 494 m 1,26,-1
 167 494 l 2,27,28
 158 494 158 494 151 487 c 128,-1,29
 144 480 144 480 144 471 c 2,30,-1
 144 133 l 2,31,32
 144 124 144 124 151 117.5 c 128,-1,33
 158 111 158 111 167 111 c 2,34,-1
 281 111 l 1,35,-1
 281 494 l 1,26,-1
EndSplineSet
EndChar

StartChar: circumflex
Encoding: 710 710 114
Width: 307
Flags: W
HStem: 846 144
VStem: 29 250
LayerCount: 2
Fore
SplineSet
29 846 m 1,0,-1
 116 990 l 1,1,-1
 191 990 l 1,2,-1
 279 846 l 1,3,-1
 202 846 l 1,4,-1
 154 924 l 1,5,-1
 104 846 l 1,6,-1
 29 846 l 1,0,-1
EndSplineSet
EndChar

StartChar: colon
Encoding: 58 58 115
Width: 219
Flags: W
HStem: 0 111<55 166> 492 110<55 166>
VStem: 55 111<0 111 492 602>
LayerCount: 2
Fore
SplineSet
166 111 m 1,0,-1
 166 0 l 1,1,-1
 55 0 l 1,2,-1
 55 111 l 1,3,-1
 166 111 l 1,0,-1
166 492 m 1,4,-1
 55 492 l 1,5,-1
 55 602 l 1,6,-1
 166 602 l 1,7,-1
 166 492 l 1,4,-1
EndSplineSet
EndChar

StartChar: comma
Encoding: 44 44 116
Width: 197
Flags: W
HStem: -131 242<55 109.815>
VStem: 55 111<-73.4766 111> 55 102<-85.3942 109.266>
LayerCount: 2
Fore
SplineSet
166 111 m 1,0,-1
 166 0 l 2,1,2
 166 -25 166 -25 157 -47.5 c 128,-1,3
 148 -70 148 -70 133.5 -87 c 128,-1,4
 119 -104 119 -104 99 -115.5 c 128,-1,5
 79 -127 79 -127 55 -131 c 1,6,-1
 55 111 l 1,7,-1
 166 111 l 1,0,-1
EndSplineSet
EndChar

StartChar: d
Encoding: 100 100 117
Width: 683
Flags: W
HStem: 0 111<140.704 510.296> 483 111<134.087 510.296> 768 20G<517 628>
VStem: 24 110<117.704 482.265> 517 111<117.704 476.296 594 788>
LayerCount: 2
Fore
SplineSet
628 788 m 1,0,-1
 628 0 l 1,1,-1
 157 0 l 2,2,3
 129 0 129 0 105 10 c 128,-1,4
 81 20 81 20 62.5 38.5 c 128,-1,5
 44 57 44 57 34 81 c 128,-1,6
 24 105 24 105 24 133 c 2,7,-1
 24 461 l 2,8,9
 24 489 24 489 34 513 c 128,-1,10
 44 537 44 537 62.5 555 c 128,-1,11
 81 573 81 573 105 583.5 c 128,-1,12
 129 594 129 594 157 594 c 2,13,-1
 517 594 l 1,14,-1
 517 788 l 1,15,-1
 628 788 l 1,0,-1
495 111 m 2,16,17
 504 111 504 111 510.5 117.5 c 128,-1,18
 517 124 517 124 517 133 c 2,19,-1
 517 461 l 2,20,21
 517 470 517 470 510.5 476.5 c 128,-1,22
 504 483 504 483 495 483 c 2,23,-1
 157 483 l 2,24,25
 148 483 148 483 141 476.5 c 128,-1,26
 134 470 134 470 134 461 c 2,27,-1
 134 133 l 2,28,29
 134 124 134 124 140.5 117.5 c 128,-1,30
 147 111 147 111 157 111 c 2,31,-1
 495 111 l 2,16,17
EndSplineSet
Substitution2: "'smcp' Lowercase to Small Capitals in Latin lookup 3 subtable" d.sc
Substitution2: "'aalt' Access All Alternates in Latin lookup 0 subtable" d.sc
EndChar

StartChar: d.sc
Encoding: 65561 -1 118
Width: 721
Flags: W
HStem: 0 111<172.704 552.296> 484 111<172.704 552.296>
VStem: 55 111<117.704 477.296> 559 111<117.704 477.296>
LayerCount: 2
Fore
SplineSet
537 595 m 2,0,1
 565 595 565 595 588.5 584.5 c 128,-1,2
 612 574 612 574 630.5 556 c 128,-1,3
 649 538 649 538 659.5 513.5 c 128,-1,4
 670 489 670 489 670 462 c 2,5,-1
 670 133 l 2,6,7
 670 105 670 105 659.5 81 c 128,-1,8
 649 57 649 57 630.5 38.5 c 128,-1,9
 612 20 612 20 588 10 c 128,-1,10
 564 0 564 0 537 0 c 2,11,-1
 55 0 l 1,12,-1
 55 595 l 1,13,-1
 537 595 l 2,0,1
559 462 m 2,14,15
 559 471 559 471 552.5 477.5 c 128,-1,16
 546 484 546 484 537 484 c 2,17,-1
 188 484 l 2,18,19
 179 484 179 484 172.5 477.5 c 128,-1,20
 166 471 166 471 166 462 c 2,21,-1
 166 133 l 2,22,23
 166 124 166 124 172.5 117.5 c 128,-1,24
 179 111 179 111 188 111 c 2,25,-1
 537 111 l 2,26,27
 546 111 546 111 552.5 117.5 c 128,-1,28
 559 124 559 124 559 133 c 2,29,-1
 559 462 l 2,14,15
EndSplineSet
EndChar

StartChar: degree
Encoding: 176 176 119
Width: 449
Flags: W
HStem: 389 90<136.141 313.859> 647 90<136.775 307.296>
VStem: 46 90<479.775 646.859> 314 90<479.141 640.296>
LayerCount: 2
Fore
SplineSet
271 737 m 2,0,1
 299 737 299 737 323 727 c 128,-1,2
 347 717 347 717 365.5 698.5 c 128,-1,3
 384 680 384 680 394 656 c 128,-1,4
 404 632 404 632 404 604 c 2,5,-1
 404 522 l 2,6,7
 404 494 404 494 394 470 c 128,-1,8
 384 446 384 446 365.5 428 c 128,-1,9
 347 410 347 410 323 399.5 c 128,-1,10
 299 389 299 389 271 389 c 2,11,-1
 179 389 l 2,12,13
 151 389 151 389 127 399.5 c 128,-1,14
 103 410 103 410 85 428 c 128,-1,15
 67 446 67 446 56.5 470.5 c 128,-1,16
 46 495 46 495 46 522 c 2,17,-1
 46 604 l 2,18,19
 46 632 46 632 56.5 656 c 128,-1,20
 67 680 67 680 85 698.5 c 128,-1,21
 103 717 103 717 127.5 727 c 128,-1,22
 152 737 152 737 179 737 c 2,23,-1
 271 737 l 2,0,1
292 479 m 2,24,25
 301 479 301 479 307.5 486 c 128,-1,26
 314 493 314 493 314 502 c 2,27,-1
 314 625 l 2,28,29
 314 634 314 634 307.5 640.5 c 128,-1,30
 301 647 301 647 292 647 c 2,31,-1
 159 647 l 2,32,33
 150 647 150 647 143 640.5 c 128,-1,34
 136 634 136 634 136 625 c 2,35,-1
 136 502 l 2,36,37
 136 493 136 493 143 486 c 128,-1,38
 150 479 150 479 159 479 c 2,39,-1
 292 479 l 2,24,25
EndSplineSet
EndChar

StartChar: dieresis
Encoding: 168 168 120
Width: 394
Flags: W
HStem: 847 110<55 166 229 340>
VStem: 55 111<847 957> 229 111<847 957>
LayerCount: 2
Fore
SplineSet
340 847 m 1,0,-1
 229 847 l 1,1,-1
 229 957 l 1,2,-1
 340 957 l 1,3,-1
 340 847 l 1,0,-1
166 847 m 1,4,-1
 55 847 l 1,5,-1
 55 957 l 1,6,-1
 166 957 l 1,7,-1
 166 847 l 1,4,-1
EndSplineSet
EndChar

StartChar: divide
Encoding: 247 247 121
Width: 514
Flags: W
HStem: 0 111<206 316> 248 110<18 510> 492 110<206 316>
VStem: 206 110<0 111 492 602>
LayerCount: 2
Fore
SplineSet
510 248 m 1,0,-1
 18 248 l 1,1,-1
 18 358 l 1,2,-1
 510 358 l 1,3,-1
 510 248 l 1,0,-1
316 111 m 1,4,-1
 316 0 l 1,5,-1
 206 0 l 1,6,-1
 206 111 l 1,7,-1
 316 111 l 1,4,-1
316 492 m 1,8,-1
 206 492 l 1,9,-1
 206 602 l 1,10,-1
 316 602 l 1,11,-1
 316 492 l 1,8,-1
EndSplineSet
EndChar

StartChar: dollar
Encoding: 36 36 122
Width: 806
Flags: W
HStem: 0 111<145.087 348 459 661.913> 313 111<145.087 348 459 661.913> 627 110<145.087 348 459 661.913>
VStem: 35 110<111.735 176 424.558 626.913> 348 111<-111 0 111 313 424 627 737 848> 662 110<111.735 312.525 561 626.913>
CounterMasks: 1 1c
LayerCount: 2
Fore
SplineSet
772 561 m 1,0,-1
 662 561 l 1,1,-1
 662 604 l 2,2,3
 662 613 662 613 655 620 c 128,-1,4
 648 627 648 627 639 627 c 2,5,-1
 459 627 l 1,6,-1
 459 424 l 1,7,-1
 639 424 l 2,8,9
 667 424 667 424 691 413.5 c 128,-1,10
 715 403 715 403 733.5 385 c 128,-1,11
 752 367 752 367 762 342.5 c 128,-1,12
 772 318 772 318 772 291 c 2,13,-1
 772 133 l 2,14,15
 772 105 772 105 762 81 c 128,-1,16
 752 57 752 57 733.5 38.5 c 128,-1,17
 715 20 715 20 691 10 c 128,-1,18
 667 0 667 0 639 0 c 2,19,-1
 459 0 l 1,20,-1
 459 -111 l 1,21,-1
 348 -111 l 1,22,-1
 348 0 l 1,23,-1
 168 0 l 2,24,25
 140 0 140 0 116 10 c 128,-1,26
 92 20 92 20 73.5 38.5 c 128,-1,27
 55 57 55 57 45 81 c 128,-1,28
 35 105 35 105 35 133 c 2,29,-1
 35 176 l 1,30,-1
 145 176 l 1,31,-1
 145 133 l 2,32,33
 145 124 145 124 152 117.5 c 128,-1,34
 159 111 159 111 168 111 c 2,35,-1
 348 111 l 1,36,-1
 348 313 l 1,37,-1
 168 313 l 2,38,39
 140 313 140 313 116 323.5 c 128,-1,40
 92 334 92 334 73.5 352.5 c 128,-1,41
 55 371 55 371 45 395 c 128,-1,42
 35 419 35 419 35 446 c 2,43,-1
 35 604 l 2,44,45
 35 632 35 632 45 656 c 128,-1,46
 55 680 55 680 73.5 698.5 c 128,-1,47
 92 717 92 717 116 727 c 128,-1,48
 140 737 140 737 168 737 c 2,49,-1
 348 737 l 1,50,-1
 348 848 l 1,51,-1
 459 848 l 1,52,-1
 459 737 l 1,53,-1
 639 737 l 2,54,55
 667 737 667 737 691 727 c 128,-1,56
 715 717 715 717 733.5 698.5 c 128,-1,57
 752 680 752 680 762 656 c 128,-1,58
 772 632 772 632 772 604 c 2,59,-1
 772 561 l 1,0,-1
459 313 m 1,60,-1
 459 111 l 1,61,-1
 639 111 l 2,62,63
 648 111 648 111 655 117.5 c 128,-1,64
 662 124 662 124 662 133 c 2,65,-1
 662 291 l 2,66,67
 662 300 662 300 655 306.5 c 128,-1,68
 648 313 648 313 639 313 c 2,69,-1
 459 313 l 1,60,-1
348 424 m 1,70,-1
 348 627 l 1,71,-1
 168 627 l 2,72,73
 159 627 159 627 152 620 c 128,-1,74
 145 613 145 613 145 604 c 2,75,-1
 145 446 l 2,76,77
 145 437 145 437 152 430.5 c 128,-1,78
 159 424 159 424 168 424 c 2,79,-1
 267 424 l 1,80,-1
 348 424 l 1,70,-1
EndSplineSet
EndChar

StartChar: dotaccent
Encoding: 729 729 123
Width: 238
Flags: W
HStem: 848 143<62.5017 177.498>
VStem: 46 148<864.501 974.499>
LayerCount: 2
Fore
SplineSet
138 991 m 2,0,1
 162 991 162 991 178 975 c 128,-1,2
 194 959 194 959 194 937 c 2,3,-1
 194 902 l 2,4,5
 194 879 194 879 178 863.5 c 128,-1,6
 162 848 162 848 138 848 c 2,7,-1
 101 848 l 2,8,9
 77 848 77 848 61.5 864 c 128,-1,10
 46 880 46 880 46 902 c 2,11,-1
 46 937 l 2,12,13
 46 960 46 960 62 975.5 c 128,-1,14
 78 991 78 991 101 991 c 2,15,-1
 138 991 l 2,0,1
EndSplineSet
EndChar

StartChar: dotlessi
Encoding: 305 305 124
Width: 219
Flags: W
HStem: 0 21G<53 164> 574 20G<53 164>
VStem: 53 111<0 594>
LayerCount: 2
Fore
SplineSet
53 594 m 1,0,-1
 164 594 l 1,1,-1
 164 0 l 1,2,-1
 53 0 l 1,3,-1
 53 594 l 1,0,-1
EndSplineSet
EndChar

StartChar: e
Encoding: 101 101 125
Width: 708
Flags: W
HStem: 0 111<169.704 656> 242 110<163 546> 483 111<169.704 545.913>
VStem: 52 111<117.704 242 352 476.296> 546 110<352 482.525>
CounterMasks: 1 e0
LayerCount: 2
Fore
SplineSet
523 594 m 2,0,1
 551 594 551 594 575 583.5 c 128,-1,2
 599 573 599 573 617.5 555 c 128,-1,3
 636 537 636 537 646 512.5 c 128,-1,4
 656 488 656 488 656 461 c 2,5,-1
 656 242 l 1,6,-1
 163 242 l 1,7,-1
 163 133 l 2,8,9
 163 124 163 124 169.5 117.5 c 128,-1,10
 176 111 176 111 185 111 c 2,11,-1
 656 111 l 1,12,-1
 656 0 l 1,13,-1
 185 0 l 2,14,15
 157 0 157 0 133.5 10 c 128,-1,16
 110 20 110 20 91.5 38.5 c 128,-1,17
 73 57 73 57 62.5 81 c 128,-1,18
 52 105 52 105 52 133 c 2,19,-1
 52 461 l 2,20,21
 52 489 52 489 62.5 513 c 128,-1,22
 73 537 73 537 91.5 555 c 128,-1,23
 110 573 110 573 134 583.5 c 128,-1,24
 158 594 158 594 185 594 c 2,25,-1
 523 594 l 2,0,1
546 352 m 1,26,-1
 546 461 l 2,27,28
 546 470 546 470 539 476.5 c 128,-1,29
 532 483 532 483 523 483 c 2,30,-1
 185 483 l 2,31,32
 176 483 176 483 169.5 476.5 c 128,-1,33
 163 470 163 470 163 461 c 2,34,-1
 163 352 l 1,35,-1
 546 352 l 1,26,-1
EndSplineSet
Substitution2: "'smcp' Lowercase to Small Capitals in Latin lookup 3 subtable" e.sc
Substitution2: "'aalt' Access All Alternates in Latin lookup 0 subtable" e.sc
EndChar

StartChar: e.sc
Encoding: 65562 -1 126
Width: 653
Flags: W
HStem: 0 111<166 598> 242 110<166 487> 484 111<166 598>
VStem: 55 111<111 242 352 484>
LayerCount: 2
Fore
SplineSet
598 484 m 1,0,-1
 166 484 l 1,1,-1
 166 352 l 1,2,-1
 487 352 l 1,3,-1
 487 242 l 1,4,-1
 166 242 l 1,5,-1
 166 111 l 1,6,-1
 598 111 l 1,7,-1
 598 0 l 1,8,-1
 55 0 l 1,9,-1
 55 595 l 1,10,-1
 598 595 l 1,11,-1
 598 484 l 1,0,-1
EndSplineSet
EndChar

StartChar: eight
Encoding: 56 56 131
Width: 854
Flags: W
HStem: 0 111<175.704 678.296> 324 99<175.704 678.296> 626 111<169.558 684.301>
VStem: 58 111<117.704 323.669 429.704 625.265> 685 111<117.704 323.669 429.704 626>
LayerCount: 2
Fore
SplineSet
796 457 m 2,0,1
 796 413 796 413 770 379 c 1,2,3
 796 345 796 345 796 301 c 2,4,-1
 796 133 l 2,5,6
 796 105 796 105 785.5 81 c 128,-1,7
 775 57 775 57 756.5 38.5 c 128,-1,8
 738 20 738 20 714 10 c 128,-1,9
 690 0 690 0 663 0 c 2,10,-1
 191 0 l 2,11,12
 163 0 163 0 139.5 10 c 128,-1,13
 116 20 116 20 97.5 38.5 c 128,-1,14
 79 57 79 57 68.5 81 c 128,-1,15
 58 105 58 105 58 133 c 2,16,-1
 58 301 l 2,17,18
 58 345 58 345 84 379 c 1,19,20
 58 413 58 413 58 457 c 2,21,-1
 58 604 l 2,22,23
 58 632 58 632 68.5 656 c 128,-1,24
 79 680 79 680 97.5 698.5 c 128,-1,25
 116 717 116 717 140 727 c 128,-1,26
 164 737 164 737 191 737 c 2,27,-1
 663 737 l 2,28,29
 688 737 688 737 710 728.5 c 128,-1,30
 732 720 732 720 749.5 705 c 128,-1,31
 767 690 767 690 779.5 670 c 128,-1,32
 792 650 792 650 796 627 c 1,33,-1
 796 457 l 2,0,1
685 301 m 2,34,35
 685 310 685 310 678.5 317 c 128,-1,36
 672 324 672 324 663 324 c 2,37,-1
 191 324 l 2,38,39
 182 324 182 324 175.5 317 c 128,-1,40
 169 310 169 310 169 301 c 2,41,-1
 169 133 l 2,42,43
 169 124 169 124 175.5 117.5 c 128,-1,44
 182 111 182 111 191 111 c 2,45,-1
 663 111 l 2,46,47
 672 111 672 111 678.5 117.5 c 128,-1,48
 685 124 685 124 685 133 c 2,49,-1
 685 301 l 2,34,35
685 603 m 2,50,51
 685 612 685 612 678.5 619 c 128,-1,52
 672 626 672 626 663 626 c 2,53,-1
 191 626 l 2,54,55
 182 626 182 626 175.5 619 c 128,-1,56
 169 612 169 612 169 603 c 2,57,-1
 169 445 l 2,58,59
 169 436 169 436 175.5 429.5 c 128,-1,60
 182 423 182 423 191 423 c 2,61,-1
 663 423 l 2,62,63
 672 423 672 423 678.5 429.5 c 128,-1,64
 685 436 685 436 685 445 c 2,65,-1
 685 603 l 2,50,51
EndSplineSet
EndChar

StartChar: ellipsis
Encoding: 8230 8230 132
Width: 587
Flags: W
HStem: 0 111<55 166 239 349 422 532>
VStem: 55 111<0 111> 239 110<0 111> 422 110<0 111>
LayerCount: 2
Fore
SplineSet
166 0 m 1,0,-1
 55 0 l 1,1,-1
 55 111 l 1,2,-1
 166 111 l 1,3,-1
 166 0 l 1,0,-1
532 0 m 1,4,-1
 422 0 l 1,5,-1
 422 111 l 1,6,-1
 532 111 l 1,7,-1
 532 0 l 1,4,-1
349 0 m 1,8,-1
 239 0 l 1,9,-1
 239 111 l 1,10,-1
 349 111 l 1,11,-1
 349 0 l 1,8,-1
EndSplineSet
EndChar

StartChar: emdash
Encoding: 8212 8212 133
Width: 841
Flags: W
HStem: 247 110<55 786>
LayerCount: 2
Fore
SplineSet
786 247 m 1,0,-1
 55 247 l 1,1,-1
 55 357 l 1,2,-1
 786 357 l 1,3,-1
 786 247 l 1,0,-1
EndSplineSet
EndChar

StartChar: endash
Encoding: 8211 8211 134
Width: 724
Flags: W
HStem: 247 110<55 670>
LayerCount: 2
Fore
SplineSet
670 247 m 1,0,-1
 55 247 l 1,1,-1
 55 357 l 1,2,-1
 670 357 l 1,3,-1
 670 247 l 1,0,-1
EndSplineSet
EndChar

StartChar: equal
Encoding: 61 61 135
Width: 653
Flags: W
HStem: 146 111<60 593> 341 111<60 593>
LayerCount: 2
Fore
SplineSet
593 146 m 1,0,-1
 60 146 l 1,1,-1
 60 257 l 1,2,-1
 593 257 l 1,3,-1
 593 146 l 1,0,-1
593 341 m 1,4,-1
 60 341 l 1,5,-1
 60 452 l 1,6,-1
 593 452 l 1,7,-1
 593 341 l 1,4,-1
EndSplineSet
EndChar

StartChar: exclam
Encoding: 33 33 136
Width: 225
Flags: W
HStem: 0 111<59 170> 717 20G<59 170>
VStem: 59 111<0 111 205 737>
LayerCount: 2
Fore
SplineSet
59 0 m 1,0,-1
 59 111 l 1,1,-1
 170 111 l 1,2,-1
 170 0 l 1,3,-1
 59 0 l 1,0,-1
59 737 m 1,4,-1
 170 737 l 1,5,-1
 170 205 l 1,6,-1
 59 205 l 1,7,-1
 59 737 l 1,4,-1
EndSplineSet
EndChar

StartChar: exclamdown
Encoding: 161 161 137
Width: 215
Flags: W
HStem: 0 21G<54 165> 627 110<54 165>
VStem: 54 111<0 532 627 737>
LayerCount: 2
Fore
SplineSet
165 627 m 1,0,-1
 54 627 l 1,1,-1
 54 737 l 1,2,-1
 165 737 l 1,3,-1
 165 627 l 1,0,-1
54 0 m 1,4,-1
 54 532 l 1,5,-1
 165 532 l 1,6,-1
 165 0 l 1,7,-1
 54 0 l 1,4,-1
EndSplineSet
EndChar

StartChar: f
Encoding: 102 102 138
Width: 416
Flags: W
HStem: 0 21G<54 165> 483 111<165 409> 678 110<171.704 409>
VStem: 54 111<0 483 594 671.296>
LayerCount: 2
Fore
SplineSet
187 678 m 2,0,1
 178 678 178 678 171.5 671.5 c 128,-1,2
 165 665 165 665 165 655 c 2,3,-1
 165 594 l 1,4,-1
 409 594 l 1,5,-1
 409 483 l 1,6,-1
 165 483 l 1,7,-1
 165 0 l 1,8,-1
 54 0 l 1,9,-1
 54 328 l 1,10,-1
 54 655 l 2,11,12
 54 683 54 683 64.5 707 c 128,-1,13
 75 731 75 731 93.5 749.5 c 128,-1,14
 112 768 112 768 136 778 c 128,-1,15
 160 788 160 788 187 788 c 2,16,-1
 409 788 l 1,17,-1
 409 678 l 1,18,-1
 187 678 l 2,0,1
EndSplineSet
Substitution2: "'smcp' Lowercase to Small Capitals in Latin lookup 3 subtable" f.sc
Substitution2: "'aalt' Access All Alternates in Latin lookup 0 subtable" f.sc
EndChar

StartChar: f.sc
Encoding: 65563 -1 139
Width: 605
Flags: W
HStem: 0 21G<55 166> 242 110<166 487> 484 111<166 598>
VStem: 55 111<0 242 352 484>
LayerCount: 2
Fore
SplineSet
598 595 m 1,0,-1
 598 484 l 1,1,-1
 166 484 l 1,2,-1
 166 352 l 1,3,-1
 487 352 l 1,4,-1
 487 242 l 1,5,-1
 166 242 l 1,6,-1
 166 0 l 1,7,-1
 55 0 l 1,8,-1
 55 595 l 1,9,-1
 598 595 l 1,0,-1
EndSplineSet
EndChar

StartChar: five
Encoding: 53 53 140
Width: 849
Flags: W
HStem: 0 111<175.704 678.296> 324 110<58 60 169.006 684.188> 627 110<169.006 796>
VStem: 58 111<117.704 176 434.156 627> 685 111<117.704 323.913>
LayerCount: 2
Fore
SplineSet
169 604 m 2,0,-1
 169 457 l 2,1,2
 169 448 169 448 175.5 441 c 128,-1,3
 182 434 182 434 191 434 c 2,4,-1
 663 434 l 2,5,6
 691 434 691 434 714.5 424 c 128,-1,7
 738 414 738 414 756.5 395.5 c 128,-1,8
 775 377 775 377 785.5 353 c 128,-1,9
 796 329 796 329 796 301 c 2,10,-1
 796 133 l 2,11,12
 796 105 796 105 785.5 81 c 128,-1,13
 775 57 775 57 756.5 38.5 c 128,-1,14
 738 20 738 20 714 10 c 128,-1,15
 690 0 690 0 663 0 c 2,16,-1
 191 0 l 2,17,18
 163 0 163 0 139.5 10 c 128,-1,19
 116 20 116 20 97.5 38.5 c 128,-1,20
 79 57 79 57 68.5 81 c 128,-1,21
 58 105 58 105 58 133 c 2,22,-1
 58 176 l 1,23,-1
 169 176 l 1,24,-1
 169 133 l 2,25,26
 169 124 169 124 175.5 117.5 c 128,-1,27
 182 111 182 111 191 111 c 2,28,-1
 663 111 l 2,29,30
 672 111 672 111 678.5 117.5 c 128,-1,31
 685 124 685 124 685 133 c 2,32,-1
 685 301 l 2,33,34
 685 310 685 310 678.5 317 c 128,-1,35
 672 324 672 324 663 324 c 2,36,-1
 58 324 l 1,37,-1
 58 434 l 1,38,-1
 60 434 l 1,39,40
 59 439 59 439 58.5 445 c 128,-1,41
 58 451 58 451 58 457 c 2,42,-1
 58 737 l 1,43,-1
 796 737 l 1,44,-1
 796 627 l 1,45,-1
 191 627 l 2,46,47
 182 627 182 627 175.5 620 c 128,-1,48
 169 613 169 613 169 604 c 2,0,-1
EndSplineSet
EndChar

StartChar: four
Encoding: 52 52 141
Width: 747
Flags: W
HStem: 0 21G<494 604> 187 111<167 494 604 713> 717 20G<471.768 604>
VStem: 494 110<0 187 298 563>
LayerCount: 2
Fore
SplineSet
713 298 m 1,0,-1
 713 187 l 1,1,-1
 604 187 l 1,2,-1
 604 0 l 1,3,-1
 494 0 l 1,4,-1
 494 187 l 1,5,-1
 6 187 l 1,6,-1
 6 298 l 1,7,-1
 494 737 l 1,8,-1
 604 737 l 1,9,-1
 604 298 l 1,10,-1
 713 298 l 1,0,-1
167 298 m 1,11,-1
 494 298 l 1,12,-1
 494 563 l 1,13,-1
 167 298 l 1,11,-1
EndSplineSet
Substitution2: "'ss03' Style Set 3 in Latin lookup 6 subtable" four.alt
Substitution2: "'aalt' Access All Alternates in Latin lookup 0 subtable" four.alt
EndChar

StartChar: four.alt
Encoding: 57351 57351 142
Width: 740
Flags: W
HStem: 0 21G<497 607> 187 111<143 497 607 716> 717 20G<366.916 495>
VStem: 497 110<0 187 298 451>
LayerCount: 2
Fore
SplineSet
716 298 m 1,0,-1
 716 187 l 1,1,-1
 607 187 l 1,2,-1
 607 0 l 1,3,-1
 497 0 l 1,4,-1
 497 187 l 1,5,-1
 9 187 l 1,6,-1
 9 298 l 1,7,-1
 384 737 l 1,8,-1
 495 737 l 1,9,-1
 495 686 l 1,10,-1
 143 298 l 1,11,-1
 497 298 l 1,12,-1
 497 451 l 1,13,-1
 607 451 l 1,14,-1
 607 298 l 1,15,-1
 716 298 l 1,0,-1
EndSplineSet
EndChar

StartChar: g
Encoding: 103 103 143
Width: 699
Flags: W
HStem: -236 111<146 528.781> 0 111<159.704 536> 483 111<159.704 535.913>
VStem: 42 111<117.704 476.296> 536 110<-118.296 0 111.006 482.525>
LayerCount: 2
Fore
SplineSet
646 226 m 1,0,-1
 646 225 l 1,1,-1
 646 -102 l 2,2,3
 646 -130 646 -130 636 -154 c 128,-1,4
 626 -178 626 -178 607.5 -196.5 c 128,-1,5
 589 -215 589 -215 565 -225.5 c 128,-1,6
 541 -236 541 -236 513 -236 c 2,7,-1
 146 -236 l 1,8,-1
 146 -125 l 1,9,-1
 513 -125 l 2,10,11
 522 -125 522 -125 529 -118.5 c 128,-1,12
 536 -112 536 -112 536 -102 c 2,13,-1
 536 0 l 1,14,-1
 175 0 l 2,15,16
 147 0 147 0 123 10 c 128,-1,17
 99 20 99 20 80.5 38.5 c 128,-1,18
 62 57 62 57 52 81 c 128,-1,19
 42 105 42 105 42 133 c 2,20,-1
 42 461 l 2,21,22
 42 489 42 489 52 513 c 128,-1,23
 62 537 62 537 80.5 555 c 128,-1,24
 99 573 99 573 123 583.5 c 128,-1,25
 147 594 147 594 175 594 c 2,26,-1
 513 594 l 2,27,28
 541 594 541 594 565 583.5 c 128,-1,29
 589 573 589 573 607.5 555 c 128,-1,30
 626 537 626 537 636 512.5 c 128,-1,31
 646 488 646 488 646 461 c 2,32,-1
 646 226 l 1,0,-1
513 111 m 2,33,34
 522 111 522 111 529 117.5 c 128,-1,35
 536 124 536 124 536 133 c 2,36,-1
 536 461 l 2,37,38
 536 470 536 470 529 476.5 c 128,-1,39
 522 483 522 483 513 483 c 2,40,-1
 175 483 l 2,41,42
 166 483 166 483 159.5 476.5 c 128,-1,43
 153 470 153 470 153 461 c 2,44,-1
 153 133 l 2,45,46
 153 124 153 124 159.5 117.5 c 128,-1,47
 166 111 166 111 175 111 c 2,48,-1
 513 111 l 2,33,34
EndSplineSet
Substitution2: "'smcp' Lowercase to Small Capitals in Latin lookup 3 subtable" g.sc
Substitution2: "'aalt' Access All Alternates in Latin lookup 0 subtable" g.sc
EndChar

StartChar: g.sc
Encoding: 65564 -1 144
Width: 706
Flags: W
HStem: 0 111<169.704 545.913> 211 111<372 546> 484 111<169.704 545.913>
VStem: 52 111<117.704 477.296> 546 110<111.735 211 433 483.525>
LayerCount: 2
Fore
SplineSet
656 433 m 1,0,-1
 546 433 l 1,1,-1
 546 462 l 2,2,3
 546 471 546 471 539 477.5 c 128,-1,4
 532 484 532 484 523 484 c 2,5,-1
 185 484 l 2,6,7
 176 484 176 484 169.5 477.5 c 128,-1,8
 163 471 163 471 163 462 c 2,9,-1
 163 133 l 2,10,11
 163 124 163 124 169.5 117.5 c 128,-1,12
 176 111 176 111 185 111 c 2,13,-1
 523 111 l 2,14,15
 532 111 532 111 539 117.5 c 128,-1,16
 546 124 546 124 546 133 c 2,17,-1
 546 211 l 1,18,-1
 372 211 l 1,19,-1
 372 322 l 1,20,-1
 656 322 l 1,21,-1
 656 133 l 2,22,23
 656 105 656 105 646 81 c 128,-1,24
 636 57 636 57 617.5 38.5 c 128,-1,25
 599 20 599 20 575 10 c 128,-1,26
 551 0 551 0 523 0 c 2,27,-1
 185 0 l 2,28,29
 157 0 157 0 133.5 10 c 128,-1,30
 110 20 110 20 91.5 38.5 c 128,-1,31
 73 57 73 57 62.5 81 c 128,-1,32
 52 105 52 105 52 133 c 2,33,-1
 52 462 l 2,34,35
 52 490 52 490 62.5 514 c 128,-1,36
 73 538 73 538 91.5 556 c 128,-1,37
 110 574 110 574 134 584.5 c 128,-1,38
 158 595 158 595 185 595 c 2,39,-1
 523 595 l 2,40,41
 551 595 551 595 575 584.5 c 128,-1,42
 599 574 599 574 617.5 556 c 128,-1,43
 636 538 636 538 646 513.5 c 128,-1,44
 656 489 656 489 656 462 c 2,45,-1
 656 433 l 1,0,-1
EndSplineSet
EndChar

StartChar: germandbls
Encoding: 223 223 145
Width: 852
Flags: W
HStem: 0 111<280 678.296> 324 99<280 678.296> 626 111<169.558 684.301>
VStem: 58 111<0 625.265> 685 111<117.704 323.669 429.704 626>
LayerCount: 2
Fore
SplineSet
796 457 m 2,0,1
 796 413 796 413 770 379 c 1,2,3
 796 345 796 345 796 301 c 2,4,-1
 796 133 l 2,5,6
 796 105 796 105 785.5 81 c 128,-1,7
 775 57 775 57 756.5 38.5 c 128,-1,8
 738 20 738 20 714 10 c 128,-1,9
 690 0 690 0 663 0 c 2,10,-1
 280 0 l 1,11,-1
 280 111 l 1,12,-1
 663 111 l 2,13,14
 672 111 672 111 678.5 117.5 c 128,-1,15
 685 124 685 124 685 133 c 2,16,-1
 685 301 l 2,17,18
 685 310 685 310 678.5 317 c 128,-1,19
 672 324 672 324 663 324 c 2,20,-1
 280 324 l 1,21,-1
 280 423 l 1,22,-1
 663 423 l 2,23,24
 672 423 672 423 678.5 429.5 c 128,-1,25
 685 436 685 436 685 445 c 2,26,-1
 685 603 l 2,27,28
 685 612 685 612 678.5 619 c 128,-1,29
 672 626 672 626 663 626 c 2,30,-1
 191 626 l 2,31,32
 182 626 182 626 175.5 619 c 128,-1,33
 169 612 169 612 169 603 c 2,34,-1
 169 0 l 1,35,-1
 58 0 l 1,36,-1
 58 604 l 2,37,38
 58 632 58 632 68.5 656 c 128,-1,39
 79 680 79 680 97.5 698.5 c 128,-1,40
 116 717 116 717 140 727 c 128,-1,41
 164 737 164 737 191 737 c 2,42,-1
 663 737 l 2,43,44
 688 737 688 737 710 728.5 c 128,-1,45
 732 720 732 720 749.5 705 c 128,-1,46
 767 690 767 690 779.5 670 c 128,-1,47
 792 650 792 650 796 627 c 1,48,-1
 796 457 l 2,0,1
EndSplineSet
EndChar

StartChar: grave
Encoding: 96 96 146
Width: 218
Flags: W
HStem: 847 166<74 143>
VStem: 33 151
LayerCount: 2
Fore
SplineSet
184 847 m 1,0,-1
 74 847 l 1,1,-1
 33 1013 l 1,2,-1
 143 1013 l 1,3,-1
 184 847 l 1,0,-1
EndSplineSet
EndChar

StartChar: greater
Encoding: 62 62 147
Width: 486
Flags: W
LayerCount: 2
Fore
SplineSet
60 130 m 1,0,-1
 356 301 l 1,1,-1
 60 471 l 1,2,-1
 60 599 l 1,3,-1
 481 356 l 1,4,-1
 481 246 l 1,5,-1
 60 2 l 1,6,-1
 60 130 l 1,0,-1
EndSplineSet
EndChar

StartChar: h
Encoding: 104 104 148
Width: 684
Flags: W
HStem: 0 21G<55 166 549 659> 483 111<172.704 542.296> 768 20G<55 166>
VStem: 55 111<0 476.296 594 788> 549 110<0 476.296>
LayerCount: 2
Fore
SplineSet
526 594 m 2,0,1
 554 594 554 594 578 583.5 c 128,-1,2
 602 573 602 573 620 555 c 128,-1,3
 638 537 638 537 648.5 512.5 c 128,-1,4
 659 488 659 488 659 461 c 2,5,-1
 659 0 l 1,6,-1
 549 0 l 1,7,-1
 549 461 l 2,8,9
 549 470 549 470 542.5 476.5 c 128,-1,10
 536 483 536 483 526 483 c 2,11,-1
 188 483 l 2,12,13
 179 483 179 483 172.5 476.5 c 128,-1,14
 166 470 166 470 166 461 c 2,15,-1
 166 0 l 1,16,-1
 55 0 l 1,17,-1
 55 788 l 1,18,-1
 166 788 l 1,19,-1
 166 594 l 1,20,-1
 526 594 l 2,0,1
EndSplineSet
Substitution2: "'smcp' Lowercase to Small Capitals in Latin lookup 3 subtable" h.sc
Substitution2: "'aalt' Access All Alternates in Latin lookup 0 subtable" h.sc
EndChar

StartChar: h.sc
Encoding: 65565 -1 149
Width: 732
Flags: W
HStem: 0 21G<55 166 566 677> 242 110<166 566> 574 20G<55 166 566 677>
VStem: 55 111<0 242 352 594> 566 111<0 242 352 594>
LayerCount: 2
Fore
SplineSet
677 594 m 1,0,-1
 677 0 l 1,1,-1
 566 0 l 1,2,-1
 566 242 l 1,3,-1
 166 242 l 1,4,-1
 166 0 l 1,5,-1
 55 0 l 1,6,-1
 55 594 l 1,7,-1
 166 594 l 1,8,-1
 166 352 l 1,9,-1
 566 352 l 1,10,-1
 566 594 l 1,11,-1
 677 594 l 1,0,-1
EndSplineSet
EndChar

StartChar: hyphen
Encoding: 45 45 150
Width: 529
Flags: W
HStem: 248 110<60 470>
LayerCount: 2
Fore
SplineSet
470 248 m 1,0,-1
 60 248 l 1,1,-1
 60 358 l 1,2,-1
 470 358 l 1,3,-1
 470 248 l 1,0,-1
EndSplineSet
EndChar

StartChar: i
Encoding: 105 105 151
Width: 212
Flags: W
HStem: 0 21G<53 164> 574 20G<53 164> 678 110<53 164>
VStem: 53 111<0 594 678 788>
LayerCount: 2
Fore
SplineSet
53 594 m 1,0,-1
 164 594 l 1,1,-1
 164 0 l 1,2,-1
 53 0 l 1,3,-1
 53 594 l 1,0,-1
164 788 m 1,4,-1
 164 678 l 1,5,-1
 53 678 l 1,6,-1
 53 788 l 1,7,-1
 164 788 l 1,4,-1
EndSplineSet
Substitution2: "'smcp' Lowercase to Small Capitals in Latin lookup 3 subtable" i.sc
Substitution2: "'aalt' Access All Alternates in Latin lookup 0 subtable" i.sc
EndChar

StartChar: i.sc
Encoding: 65566 -1 152
Width: 219
Flags: W
HStem: 0 21G<55 166> 574 20G<55 166>
VStem: 55 111<0 594>
LayerCount: 2
Fore
SplineSet
55 594 m 1,0,-1
 166 594 l 1,1,-1
 166 0 l 1,2,-1
 55 0 l 1,3,-1
 55 594 l 1,0,-1
EndSplineSet
EndChar

StartChar: j
Encoding: 106 106 157
Width: 244
Flags: W
HStem: -236 111<-191 77.7808> 572 20G<85 196> 678 110<85 196>
VStem: 85 111<-118.296 592 678 788>
LayerCount: 2
Fore
SplineSet
196 788 m 1,0,-1
 196 678 l 1,1,-1
 85 678 l 1,2,-1
 85 788 l 1,3,-1
 196 788 l 1,0,-1
196 225 m 1,4,-1
 196 -102 l 2,5,6
 196 -130 196 -130 185.5 -154 c 128,-1,7
 175 -178 175 -178 156.5 -196.5 c 128,-1,8
 138 -215 138 -215 114 -225.5 c 128,-1,9
 90 -236 90 -236 62 -236 c 2,10,-1
 -191 -236 l 1,11,-1
 -191 -125 l 1,12,-1
 62 -125 l 2,13,14
 71 -125 71 -125 78 -118.5 c 128,-1,15
 85 -112 85 -112 85 -102 c 2,16,-1
 85 592 l 1,17,-1
 196 592 l 1,18,-1
 196 225 l 1,4,-1
EndSplineSet
Substitution2: "'smcp' Lowercase to Small Capitals in Latin lookup 3 subtable" j.sc
Substitution2: "'aalt' Access All Alternates in Latin lookup 0 subtable" j.sc
EndChar

StartChar: j.sc
Encoding: 65567 -1 158
Width: 672
Flags: W
HStem: 0 111<122.704 508.913> 574 20G<509 620>
VStem: 5 111<117.704 195> 509 111<111.735 594>
LayerCount: 2
Fore
SplineSet
509 594 m 1,0,-1
 620 594 l 1,1,-1
 620 133 l 2,2,3
 620 105 620 105 609.5 81 c 128,-1,4
 599 57 599 57 580.5 38.5 c 128,-1,5
 562 20 562 20 538 10 c 128,-1,6
 514 0 514 0 486 0 c 2,7,-1
 138 0 l 2,8,9
 110 0 110 0 86 10 c 128,-1,10
 62 20 62 20 44 38.5 c 128,-1,11
 26 57 26 57 15.5 81 c 128,-1,12
 5 105 5 105 5 133 c 2,13,-1
 5 195 l 1,14,-1
 116 195 l 1,15,-1
 116 133 l 2,16,17
 116 124 116 124 122.5 117.5 c 128,-1,18
 129 111 129 111 138 111 c 2,19,-1
 486 111 l 2,20,21
 495 111 495 111 502 117.5 c 128,-1,22
 509 124 509 124 509 133 c 2,23,-1
 509 594 l 1,0,-1
EndSplineSet
EndChar

StartChar: k
Encoding: 107 107 159
Width: 661
Flags: W
HStem: 0 21G<55 166 502.653 652> 242 110<166 299> 574 20G<502.653 652> 768 20G<55 166>
VStem: 55 111<0 242 352 788>
LayerCount: 2
Fore
SplineSet
652 594 m 1,0,-1
 652 579 l 1,1,-1
 397 297 l 1,2,-1
 652 15 l 1,3,-1
 652 0 l 1,4,-1
 521 0 l 1,5,-1
 299 242 l 1,6,-1
 166 242 l 1,7,-1
 166 0 l 1,8,-1
 55 0 l 1,9,-1
 55 788 l 1,10,-1
 166 788 l 1,11,-1
 166 352 l 1,12,-1
 299 352 l 1,13,-1
 521 594 l 1,14,-1
 652 594 l 1,0,-1
EndSplineSet
Substitution2: "'smcp' Lowercase to Small Capitals in Latin lookup 3 subtable" k.sc
Substitution2: "'salt' Stylistic Alternatives in Latin lookup 2 subtable" k.alt
AlternateSubs2: "'aalt' Access All Alternates in Latin lookup 1 subtable" k.sc k.alt
EndChar

StartChar: k.alt
Encoding: 65568 -1 160
Width: 685
Flags: W
HStem: 0 21G<55 166 549 659> 242 110<166 542.296> 574 20G<549 659> 768 20G<55 166>
VStem: 55 111<0 242 352 788> 549 110<0 234.781 352.189 594>
LayerCount: 2
Fore
SplineSet
659 375 m 2,0,1
 659 353 659 353 652.5 333 c 128,-1,2
 646 313 646 313 635 297 c 1,3,4
 646 281 646 281 652.5 261 c 128,-1,5
 659 241 659 241 659 219 c 2,6,-1
 659 0 l 1,7,-1
 549 0 l 1,8,-1
 549 219 l 2,9,10
 549 228 549 228 542.5 235 c 128,-1,11
 536 242 536 242 526 242 c 2,12,-1
 166 242 l 1,13,-1
 166 0 l 1,14,-1
 55 0 l 1,15,-1
 55 788 l 1,16,-1
 166 788 l 1,17,-1
 166 352 l 1,18,-1
 526 352 l 2,19,20
 535 352 535 352 542 359 c 128,-1,21
 549 366 549 366 549 375 c 2,22,-1
 549 594 l 1,23,-1
 659 594 l 1,24,-1
 659 375 l 2,0,1
EndSplineSet
EndChar

StartChar: k.sc
Encoding: 65569 -1 161
Width: 698
Flags: W
HStem: 0 21G<55 166 502.653 652> 242 110<166 299> 574 20G<55 166 502.653 652>
VStem: 55 111<0 242 352 594>
LayerCount: 2
Fore
SplineSet
652 594 m 1,0,-1
 652 579 l 1,1,-1
 397 297 l 1,2,-1
 652 15 l 1,3,-1
 652 0 l 1,4,-1
 521 0 l 1,5,-1
 299 242 l 1,6,-1
 166 242 l 1,7,-1
 166 0 l 1,8,-1
 55 0 l 1,9,-1
 55 594 l 1,10,-1
 166 594 l 1,11,-1
 166 352 l 1,12,-1
 299 352 l 1,13,-1
 521 594 l 1,14,-1
 652 594 l 1,0,-1
EndSplineSet
EndChar

StartChar: l
Encoding: 108 108 162
Width: 309
Flags: W
HStem: 0 111<170.704 297> 768 20G<53 164>
VStem: 53 111<117.704 788>
LayerCount: 2
Fore
SplineSet
53 461 m 1,0,-1
 53 788 l 1,1,-1
 164 788 l 1,2,-1
 164 133 l 2,3,4
 164 124 164 124 170.5 117.5 c 128,-1,5
 177 111 177 111 186 111 c 2,6,-1
 297 111 l 1,7,-1
 297 0 l 1,8,-1
 186 0 l 2,9,10
 158 0 158 0 134.5 10 c 128,-1,11
 111 20 111 20 92.5 38.5 c 128,-1,12
 74 57 74 57 63.5 81 c 128,-1,13
 53 105 53 105 53 133 c 2,14,-1
 53 461 l 1,0,-1
EndSplineSet
Substitution2: "'smcp' Lowercase to Small Capitals in Latin lookup 3 subtable" l.sc
Substitution2: "'aalt' Access All Alternates in Latin lookup 0 subtable" l.sc
EndChar

StartChar: l.sc
Encoding: 65570 -1 163
Width: 674
Flags: W
HStem: 0 111<166 670> 574 20G<55 166>
VStem: 55 111<111 594>
LayerCount: 2
Fore
SplineSet
55 594 m 1,0,-1
 166 594 l 1,1,-1
 166 111 l 1,2,-1
 670 111 l 1,3,-1
 670 0 l 1,4,-1
 55 0 l 1,5,-1
 55 594 l 1,0,-1
EndSplineSet
EndChar

StartChar: less
Encoding: 60 60 164
Width: 484
Flags: W
LayerCount: 2
Fore
SplineSet
426 132 m 1,0,-1
 426 4 l 1,1,-1
 5 248 l 1,2,-1
 5 358 l 1,3,-1
 426 601 l 1,4,-1
 426 473 l 1,5,-1
 130 303 l 1,6,-1
 426 132 l 1,0,-1
EndSplineSet
EndChar

StartChar: m
Encoding: 109 109 165
Width: 1001
Flags: W
HStem: 0 21G<55 166 446 557 838 947> 483 111<172.704 439.296 557.002 830.781>
VStem: 55 111<0 476.296> 446 111<0 476.296> 838 109<0 476.296>
LayerCount: 2
Fore
SplineSet
814 594 m 2,0,1
 842 594 842 594 866 583.5 c 128,-1,2
 890 573 890 573 908.5 555 c 128,-1,3
 927 537 927 537 937 512.5 c 128,-1,4
 947 488 947 488 947 461 c 2,5,-1
 947 0 l 1,6,-1
 838 0 l 1,7,-1
 838 461 l 2,8,9
 838 470 838 470 831 476.5 c 128,-1,10
 824 483 824 483 814 483 c 2,11,-1
 580 483 l 2,12,13
 571 483 571 483 564 476.5 c 128,-1,14
 557 470 557 470 557 461 c 2,15,-1
 557 0 l 1,16,-1
 446 0 l 1,17,-1
 446 461 l 2,18,19
 446 470 446 470 439.5 476.5 c 128,-1,20
 433 483 433 483 424 483 c 2,21,-1
 188 483 l 2,22,23
 179 483 179 483 172.5 476.5 c 128,-1,24
 166 470 166 470 166 461 c 2,25,-1
 166 0 l 1,26,-1
 55 0 l 1,27,-1
 55 594 l 1,28,-1
 814 594 l 2,0,1
EndSplineSet
Substitution2: "'smcp' Lowercase to Small Capitals in Latin lookup 3 subtable" m.sc
Substitution2: "'aalt' Access All Alternates in Latin lookup 0 subtable" m.sc
EndChar

StartChar: m.sc
Encoding: 65571 -1 166
Width: 843
Flags: W
HStem: 0 21G<55 166 678 788> 575 20G<55 200.006 642.113 788>
VStem: 55 111<0 457> 678 110<0 457>
LayerCount: 2
Fore
SplineSet
656 595 m 1,0,-1
 788 595 l 1,1,-1
 788 0 l 1,2,-1
 678 0 l 1,3,-1
 678 457 l 1,4,-1
 422 91 l 1,5,-1
 166 457 l 1,6,-1
 166 0 l 1,7,-1
 55 0 l 1,8,-1
 55 595 l 1,9,-1
 186 595 l 1,10,-1
 422 258 l 1,11,-1
 656 595 l 1,0,-1
EndSplineSet
EndChar

StartChar: minus
Encoding: 8722 8722 167
Width: 529
Flags: W
HStem: 248 110<60 470>
LayerCount: 2
Fore
SplineSet
470 248 m 1,0,-1
 60 248 l 1,1,-1
 60 358 l 1,2,-1
 470 358 l 1,3,-1
 470 248 l 1,0,-1
EndSplineSet
EndChar

StartChar: multiply
Encoding: 215 215 168
Width: 559
Flags: W
LayerCount: 2
Fore
SplineSet
505 507 m 1,0,-1
 351 307 l 1,1,-1
 505 108 l 1,2,-1
 505 92 l 1,3,-1
 374 92 l 1,4,-1
 280 221 l 1,5,-1
 185 92 l 1,6,-1
 54 92 l 1,7,-1
 54 108 l 1,8,-1
 207 307 l 1,9,-1
 54 507 l 1,10,-1
 54 522 l 1,11,-1
 185 522 l 1,12,-1
 280 393 l 1,13,-1
 374 522 l 1,14,-1
 505 522 l 1,15,-1
 505 507 l 1,0,-1
EndSplineSet
EndChar

StartChar: n
Encoding: 110 110 169
Width: 712
Flags: W
HStem: 0 21G<55 166 549 659> 483 111<172.704 542.296>
VStem: 55 111<0 476.296> 549 110<0 476.296>
LayerCount: 2
Fore
SplineSet
526 594 m 2,0,1
 554 594 554 594 578 583.5 c 128,-1,2
 602 573 602 573 620.5 555 c 128,-1,3
 639 537 639 537 649 512.5 c 128,-1,4
 659 488 659 488 659 461 c 2,5,-1
 659 0 l 1,6,-1
 549 0 l 1,7,-1
 549 461 l 2,8,9
 549 470 549 470 542.5 476.5 c 128,-1,10
 536 483 536 483 526 483 c 2,11,-1
 188 483 l 2,12,13
 179 483 179 483 172.5 476.5 c 128,-1,14
 166 470 166 470 166 461 c 2,15,-1
 166 0 l 1,16,-1
 55 0 l 1,17,-1
 55 594 l 1,18,-1
 526 594 l 2,0,1
EndSplineSet
Substitution2: "'smcp' Lowercase to Small Capitals in Latin lookup 3 subtable" n.sc
Substitution2: "'aalt' Access All Alternates in Latin lookup 0 subtable" n.sc
EndChar

StartChar: n.sc
Encoding: 65572 -1 170
Width: 724
Flags: W
HStem: 0 21G<55 166 522.311 670> 574 20G<55 202.689 559 670>
VStem: 55 111<0 447> 559 111<147 594>
LayerCount: 2
Fore
SplineSet
559 594 m 1,0,-1
 670 594 l 1,1,-1
 670 0 l 1,2,-1
 539 0 l 1,3,-1
 166 447 l 1,4,-1
 166 0 l 1,5,-1
 55 0 l 1,6,-1
 55 594 l 1,7,-1
 186 594 l 1,8,-1
 559 147 l 1,9,-1
 559 594 l 1,0,-1
EndSplineSet
EndChar

StartChar: nine
Encoding: 57 57 171
Width: 847
Flags: W
HStem: 0 111<112.004 678.913> 8.5 102.5<101.149 405.781> 303 111<169.704 672.296> 627 110<163.558 672.296>
VStem: 52 111<420.704 626.913> 679 111<111.735 296.296 414 619.781>
LayerCount: 2
Fore
SplineSet
185 303 m 2,0,1
 157 303 157 303 133.5 313.5 c 128,-1,2
 110 324 110 324 91.5 342 c 128,-1,3
 73 360 73 360 62.5 384.5 c 128,-1,4
 52 409 52 409 52 436 c 2,5,-1
 52 604 l 2,6,7
 52 632 52 632 62.5 656 c 128,-1,8
 73 680 73 680 91.5 698.5 c 128,-1,9
 110 717 110 717 134 727 c 128,-1,10
 158 737 158 737 185 737 c 2,11,-1
 656 737 l 2,12,13
 684 737 684 737 708 727 c 128,-1,14
 732 717 732 717 750.5 698.5 c 128,-1,15
 769 680 769 680 779.5 656 c 128,-1,16
 790 632 790 632 790 604 c 2,17,-1
 790 133 l 2,18,19
 790 105 790 105 779.5 81 c 128,-1,20
 769 57 769 57 750.5 38.5 c 128,-1,21
 732 20 732 20 708 10 c 128,-1,22
 684 0 684 0 656 0 c 2,23,-1
 185 0 l 2,24,25
 160 0 160 0 138.5 8.5 c 128,-1,26
 117 17 117 17 99.5 32 c 128,-1,27
 82 47 82 47 70 67 c 128,-1,28
 58 87 58 87 54 111 c 1,29,-1
 656 111 l 2,30,31
 665 111 665 111 672 117.5 c 128,-1,32
 679 124 679 124 679 133 c 2,33,-1
 679 281 l 2,34,35
 679 290 679 290 672.5 296.5 c 128,-1,36
 666 303 666 303 656 303 c 2,37,-1
 308 303 l 1,38,-1
 185 303 l 2,0,1
163 436 m 2,39,40
 163 427 163 427 169.5 420.5 c 128,-1,41
 176 414 176 414 185 414 c 2,42,-1
 679 414 l 1,43,-1
 679 604 l 2,44,45
 679 613 679 613 672.5 620 c 128,-1,46
 666 627 666 627 656 627 c 2,47,-1
 185 627 l 2,48,49
 176 627 176 627 169.5 620 c 128,-1,50
 163 613 163 613 163 604 c 2,51,-1
 163 436 l 2,39,40
EndSplineSet
Substitution2: "'ss03' Style Set 3 in Latin lookup 6 subtable" nine.alt
Substitution2: "'aalt' Access All Alternates in Latin lookup 0 subtable" nine.alt
EndChar

StartChar: nine.alt
Encoding: 57347 57347 172
Width: 802
Flags: W
HStem: 0 21G<639 750> 301 111<129.704 632.296> 625 110<123.558 632.296>
VStem: 12 111<418.704 624.913> 639 111<0 294.296 412 617.781>
LayerCount: 2
Fore
SplineSet
616 735 m 2,0,1
 644 735 644 735 668 725 c 128,-1,2
 692 715 692 715 710.5 696.5 c 128,-1,3
 729 678 729 678 739.5 654 c 128,-1,4
 750 630 750 630 750 602 c 2,5,-1
 750 0 l 1,6,-1
 639 0 l 1,7,-1
 639 279 l 2,8,9
 639 288 639 288 632.5 294.5 c 128,-1,10
 626 301 626 301 616 301 c 2,11,-1
 145 301 l 2,12,13
 117 301 117 301 93.5 311.5 c 128,-1,14
 70 322 70 322 51.5 340 c 128,-1,15
 33 358 33 358 22.5 382.5 c 128,-1,16
 12 407 12 407 12 434 c 2,17,-1
 12 602 l 2,18,19
 12 630 12 630 22.5 654 c 128,-1,20
 33 678 33 678 51.5 696.5 c 128,-1,21
 70 715 70 715 94 725 c 128,-1,22
 118 735 118 735 145 735 c 2,23,-1
 616 735 l 2,0,1
639 412 m 1,24,-1
 639 602 l 2,25,26
 639 611 639 611 632.5 618 c 128,-1,27
 626 625 626 625 616 625 c 2,28,-1
 145 625 l 2,29,30
 136 625 136 625 129.5 618 c 128,-1,31
 123 611 123 611 123 602 c 2,32,-1
 123 434 l 2,33,34
 123 425 123 425 129.5 418.5 c 128,-1,35
 136 412 136 412 145 412 c 2,36,-1
 447 412 l 1,37,-1
 639 412 l 1,24,-1
EndSplineSet
EndChar

StartChar: numbersign
Encoding: 35 35 174
Width: 816
Flags: W
HStem: 0 21G<75 191.19 406 522.071> 168 111<33 126 271 457 602 752> 461 110<65 220 366 551 696 783>
LayerCount: 2
Fore
SplineSet
783 461 m 1,0,-1
 662 461 l 1,1,-1
 602 279 l 1,2,-1
 752 279 l 1,3,-1
 752 168 l 1,4,-1
 567 168 l 1,5,-1
 516 0 l 1,6,-1
 406 0 l 1,7,-1
 457 168 l 1,8,-1
 237 168 l 1,9,-1
 185 0 l 1,10,-1
 75 0 l 1,11,-1
 126 168 l 1,12,-1
 33 168 l 1,13,-1
 33 279 l 1,14,-1
 161 279 l 1,15,-1
 220 461 l 1,16,-1
 65 461 l 1,17,-1
 65 571 l 1,18,-1
 255 571 l 1,19,-1
 310 734 l 1,20,-1
 421 734 l 1,21,-1
 366 571 l 1,22,-1
 586 571 l 1,23,-1
 641 734 l 1,24,-1
 752 734 l 1,25,-1
 696 571 l 1,26,-1
 783 571 l 1,27,-1
 783 461 l 1,0,-1
492 279 m 1,28,-1
 551 461 l 1,29,-1
 331 461 l 1,30,-1
 271 279 l 1,31,-1
 492 279 l 1,28,-1
EndSplineSet
EndChar

StartChar: o
Encoding: 111 111 175
Width: 708
Flags: W
HStem: 0 111<169.704 545.913> 483 111<169.704 545.913>
VStem: 52 111<117.704 476.296> 546 110<111.735 482.525>
LayerCount: 2
Fore
SplineSet
523 594 m 2,0,1
 551 594 551 594 575 583.5 c 128,-1,2
 599 573 599 573 617.5 555 c 128,-1,3
 636 537 636 537 646 512.5 c 128,-1,4
 656 488 656 488 656 461 c 2,5,-1
 656 133 l 2,6,7
 656 105 656 105 646 81 c 128,-1,8
 636 57 636 57 617.5 38.5 c 128,-1,9
 599 20 599 20 575 10 c 128,-1,10
 551 0 551 0 523 0 c 2,11,-1
 185 0 l 2,12,13
 157 0 157 0 133.5 10 c 128,-1,14
 110 20 110 20 91.5 38.5 c 128,-1,15
 73 57 73 57 62.5 81 c 128,-1,16
 52 105 52 105 52 133 c 2,17,-1
 52 461 l 2,18,19
 52 489 52 489 62.5 513 c 128,-1,20
 73 537 73 537 91.5 555 c 128,-1,21
 110 573 110 573 134 583.5 c 128,-1,22
 158 594 158 594 185 594 c 2,23,-1
 523 594 l 2,0,1
185 483 m 2,24,25
 176 483 176 483 169.5 476.5 c 128,-1,26
 163 470 163 470 163 461 c 2,27,-1
 163 133 l 2,28,29
 163 124 163 124 169.5 117.5 c 128,-1,30
 176 111 176 111 185 111 c 2,31,-1
 523 111 l 2,32,33
 532 111 532 111 539 117.5 c 128,-1,34
 546 124 546 124 546 133 c 2,35,-1
 546 461 l 2,36,37
 546 470 546 470 539 476.5 c 128,-1,38
 532 483 532 483 523 483 c 2,39,-1
 185 483 l 2,24,25
EndSplineSet
Substitution2: "'smcp' Lowercase to Small Capitals in Latin lookup 3 subtable" o.sc
Substitution2: "'aalt' Access All Alternates in Latin lookup 0 subtable" o.sc
EndChar

StartChar: o.sc
Encoding: 65573 -1 176
Width: 708
Flags: W
HStem: 0 111<169.704 545.913> 483 111<169.704 545.913>
VStem: 52 111<117.704 476.296> 546 110<111.735 482.525>
LayerCount: 2
Fore
SplineSet
523 594 m 2,0,1
 551 594 551 594 575 583.5 c 128,-1,2
 599 573 599 573 617.5 555 c 128,-1,3
 636 537 636 537 646 512.5 c 128,-1,4
 656 488 656 488 656 461 c 2,5,-1
 656 133 l 2,6,7
 656 105 656 105 646 81 c 128,-1,8
 636 57 636 57 617.5 38.5 c 128,-1,9
 599 20 599 20 575 10 c 128,-1,10
 551 0 551 0 523 0 c 2,11,-1
 185 0 l 2,12,13
 157 0 157 0 133.5 10 c 128,-1,14
 110 20 110 20 91.5 38.5 c 128,-1,15
 73 57 73 57 62.5 81 c 128,-1,16
 52 105 52 105 52 133 c 2,17,-1
 52 461 l 2,18,19
 52 489 52 489 62.5 513 c 128,-1,20
 73 537 73 537 91.5 555 c 128,-1,21
 110 573 110 573 134 583.5 c 128,-1,22
 158 594 158 594 185 594 c 2,23,-1
 523 594 l 2,0,1
523 111 m 2,24,25
 532 111 532 111 539 117.5 c 128,-1,26
 546 124 546 124 546 133 c 2,27,-1
 546 461 l 2,28,29
 546 470 546 470 539 476.5 c 128,-1,30
 532 483 532 483 523 483 c 2,31,-1
 185 483 l 2,32,33
 176 483 176 483 169.5 476.5 c 128,-1,34
 163 470 163 470 163 461 c 2,35,-1
 163 133 l 2,36,37
 163 124 163 124 169.5 117.5 c 128,-1,38
 176 111 176 111 185 111 c 2,39,-1
 523 111 l 2,24,25
EndSplineSet
EndChar

StartChar: oe
Encoding: 339 339 180
Width: 1205
Flags: W
HStem: 0 111<170.704 547 657 1151> 242 110<657 1040> 483 111<170.704 540.296 657 1033.3>
VStem: 53 111<117.704 476.296> 547 110<111.006 242 352 476.296> 1040 111<352 476.296>
CounterMasks: 1 fc
LayerCount: 2
Fore
SplineSet
657 242 m 1,0,-1
 657 133 l 2,1,2
 657 124 657 124 664 117.5 c 128,-1,3
 671 111 671 111 680 111 c 2,4,-1
 1151 111 l 1,5,-1
 1151 0 l 1,6,-1
 186 0 l 2,7,8
 158 0 158 0 134.5 10 c 128,-1,9
 111 20 111 20 92.5 38.5 c 128,-1,10
 74 57 74 57 63.5 81 c 128,-1,11
 53 105 53 105 53 133 c 2,12,-1
 53 461 l 2,13,14
 53 489 53 489 63.5 513 c 128,-1,15
 74 537 74 537 92.5 555 c 128,-1,16
 111 573 111 573 135 583.5 c 128,-1,17
 159 594 159 594 186 594 c 2,18,-1
 1018 594 l 2,19,20
 1046 594 1046 594 1070 583.5 c 128,-1,21
 1094 573 1094 573 1112 555 c 128,-1,22
 1130 537 1130 537 1140.5 512.5 c 128,-1,23
 1151 488 1151 488 1151 461 c 2,24,-1
 1151 242 l 1,25,-1
 657 242 l 1,0,-1
680 483 m 2,26,27
 671 483 671 483 664 476.5 c 128,-1,28
 657 470 657 470 657 461 c 2,29,-1
 657 352 l 1,30,-1
 1040 352 l 1,31,-1
 1040 461 l 2,32,33
 1040 470 1040 470 1033.5 476.5 c 128,-1,34
 1027 483 1027 483 1018 483 c 2,35,-1
 680 483 l 2,26,27
524 111 m 2,36,37
 533 111 533 111 540 117.5 c 128,-1,38
 547 124 547 124 547 133 c 2,39,-1
 547 461 l 2,40,41
 547 470 547 470 540.5 476.5 c 128,-1,42
 534 483 534 483 524 483 c 2,43,-1
 186 483 l 2,44,45
 177 483 177 483 170.5 476.5 c 128,-1,46
 164 470 164 470 164 461 c 2,47,-1
 164 133 l 2,48,49
 164 124 164 124 170.5 117.5 c 128,-1,50
 177 111 177 111 186 111 c 2,51,-1
 524 111 l 2,36,37
EndSplineSet
EndChar

StartChar: one
Encoding: 49 49 182
Width: 400
Flags: W
HStem: 0 21G<230 341> 717 20G<192.293 341>
VStem: 230 111<0 590>
LayerCount: 2
Fore
SplineSet
209 737 m 1,0,-1
 341 737 l 1,1,-1
 341 0 l 1,2,-1
 230 0 l 1,3,-1
 230 590 l 1,4,-1
 145 488 l 1,5,-1
 1 488 l 1,6,-1
 209 737 l 1,0,-1
EndSplineSet
EndChar

StartChar: p
Encoding: 112 112 184
Width: 679
Flags: W
HStem: -236 21G<55 166> 0 111<172.704 548.913> 483 111<172.704 542.296>
VStem: 55 111<-236 0 117.704 476.296> 549 110<111.735 476.296>
LayerCount: 2
Fore
SplineSet
526 594 m 2,0,1
 554 594 554 594 578 583.5 c 128,-1,2
 602 573 602 573 620.5 555 c 128,-1,3
 639 537 639 537 649 512.5 c 128,-1,4
 659 488 659 488 659 461 c 2,5,-1
 659 133 l 2,6,7
 659 105 659 105 649 81 c 128,-1,8
 639 57 639 57 620.5 38.5 c 128,-1,9
 602 20 602 20 578 10 c 128,-1,10
 554 0 554 0 526 0 c 2,11,-1
 166 0 l 1,12,-1
 166 -236 l 1,13,-1
 55 -236 l 1,14,-1
 55 594 l 1,15,-1
 526 594 l 2,0,1
549 461 m 2,16,17
 549 470 549 470 542.5 476.5 c 128,-1,18
 536 483 536 483 526 483 c 2,19,-1
 188 483 l 2,20,21
 179 483 179 483 172.5 476.5 c 128,-1,22
 166 470 166 470 166 461 c 2,23,-1
 166 133 l 2,24,25
 166 124 166 124 172.5 117.5 c 128,-1,26
 179 111 179 111 188 111 c 2,27,-1
 526 111 l 2,28,29
 535 111 535 111 542 117.5 c 128,-1,30
 549 124 549 124 549 133 c 2,31,-1
 549 461 l 2,16,17
EndSplineSet
Substitution2: "'smcp' Lowercase to Small Capitals in Latin lookup 3 subtable" p.sc
Substitution2: "'aalt' Access All Alternates in Latin lookup 0 subtable" p.sc
EndChar

StartChar: p.sc
Encoding: 65574 -1 185
Width: 675
Flags: W
HStem: 0 21G<55 166> 202 110<166.156 548.913> 483 111<172.704 542.296>
VStem: 55 111<0 204 312 476.296> 549 110<312.087 476.296>
LayerCount: 2
Fore
SplineSet
526 594 m 2,0,1
 554 594 554 594 578 583 c 128,-1,2
 602 572 602 572 620.5 554.5 c 128,-1,3
 639 537 639 537 649 512.5 c 128,-1,4
 659 488 659 488 659 461 c 2,5,-1
 659 335 l 2,6,7
 659 307 659 307 649 283 c 128,-1,8
 639 259 639 259 620.5 241 c 128,-1,9
 602 223 602 223 578 212.5 c 128,-1,10
 554 202 554 202 526 202 c 2,11,-1
 188 202 l 2,12,13
 182 202 182 202 176.5 202.5 c 128,-1,14
 171 203 171 203 166 204 c 1,15,-1
 166 0 l 1,16,-1
 55 0 l 1,17,-1
 55 594 l 1,18,-1
 526 594 l 2,0,1
549 461 m 2,19,20
 549 470 549 470 542.5 476.5 c 128,-1,21
 536 483 536 483 526 483 c 2,22,-1
 188 483 l 2,23,24
 179 483 179 483 172.5 476.5 c 128,-1,25
 166 470 166 470 166 461 c 2,26,-1
 166 335 l 2,27,28
 166 326 166 326 172.5 319 c 128,-1,29
 179 312 179 312 188 312 c 2,30,-1
 526 312 l 2,31,32
 535 312 535 312 542 319 c 128,-1,33
 549 326 549 326 549 335 c 2,34,-1
 549 461 l 2,19,20
EndSplineSet
EndChar

StartChar: paragraph
Encoding: 182 182 186
Width: 852
Flags: W
HStem: 0 21G<470 581 684 795> 263 111<174.704 470 581 684> 626 110<168.558 470 581 684>
VStem: 57 111<380.704 625.913> 470 111<0 263 374 626> 684 111<0 263 374 626>
LayerCount: 2
Fore
SplineSet
57 603 m 2,0,1
 57 631 57 631 67.5 655 c 128,-1,2
 78 679 78 679 96.5 697 c 128,-1,3
 115 715 115 715 139 725.5 c 128,-1,4
 163 736 163 736 190 736 c 2,5,-1
 795 736 l 1,6,-1
 795 0 l 1,7,-1
 684 0 l 1,8,-1
 684 263 l 1,9,-1
 581 263 l 1,10,-1
 581 0 l 1,11,-1
 470 0 l 1,12,-1
 470 263 l 1,13,-1
 190 263 l 2,14,15
 162 263 162 263 138.5 274 c 128,-1,16
 115 285 115 285 96.5 303 c 128,-1,17
 78 321 78 321 67.5 345 c 128,-1,18
 57 369 57 369 57 396 c 2,19,-1
 57 603 l 2,0,1
581 374 m 1,20,-1
 684 374 l 1,21,-1
 684 626 l 1,22,-1
 581 626 l 1,23,-1
 581 374 l 1,20,-1
168 396 m 2,24,25
 168 387 168 387 174.5 380.5 c 128,-1,26
 181 374 181 374 190 374 c 2,27,-1
 470 374 l 1,28,-1
 470 626 l 1,29,-1
 190 626 l 2,30,31
 181 626 181 626 174.5 619 c 128,-1,32
 168 612 168 612 168 603 c 2,33,-1
 168 396 l 2,24,25
EndSplineSet
EndChar

StartChar: parenleft
Encoding: 40 40 187
Width: 283
Flags: W
HStem: 0 111<170.704 229> 627 110<164.558 229>
VStem: 53 111<117.704 626.913>
LayerCount: 2
Fore
SplineSet
229 111 m 1,0,-1
 229 0 l 1,1,-1
 186 0 l 2,2,3
 158 0 158 0 134.5 10 c 128,-1,4
 111 20 111 20 92.5 38.5 c 128,-1,5
 74 57 74 57 63.5 81 c 128,-1,6
 53 105 53 105 53 133 c 2,7,-1
 53 604 l 2,8,9
 53 632 53 632 63.5 656 c 128,-1,10
 74 680 74 680 92.5 698.5 c 128,-1,11
 111 717 111 717 135 727 c 128,-1,12
 159 737 159 737 186 737 c 2,13,-1
 229 737 l 1,14,-1
 229 627 l 1,15,-1
 186 627 l 2,16,17
 177 627 177 627 170.5 620 c 128,-1,18
 164 613 164 613 164 604 c 2,19,-1
 164 133 l 2,20,21
 164 124 164 124 170.5 117.5 c 128,-1,22
 177 111 177 111 186 111 c 2,23,-1
 229 111 l 1,0,-1
EndSplineSet
EndChar

StartChar: parenright
Encoding: 41 41 188
Width: 284
Flags: W
HStem: 0 111<57 122.913> 627 110<57 116.296>
VStem: 123 110<111.735 619.781>
LayerCount: 2
Fore
SplineSet
57 111 m 1,0,-1
 100 111 l 2,1,2
 109 111 109 111 116 117.5 c 128,-1,3
 123 124 123 124 123 133 c 2,4,-1
 123 604 l 2,5,6
 123 613 123 613 116.5 620 c 128,-1,7
 110 627 110 627 100 627 c 2,8,-1
 57 627 l 1,9,-1
 57 737 l 1,10,-1
 100 737 l 2,11,12
 128 737 128 737 152 727 c 128,-1,13
 176 717 176 717 194 698.5 c 128,-1,14
 212 680 212 680 222.5 656 c 128,-1,15
 233 632 233 632 233 604 c 2,16,-1
 233 133 l 2,17,18
 233 105 233 105 222.5 81 c 128,-1,19
 212 57 212 57 194 38.5 c 128,-1,20
 176 20 176 20 152 10 c 128,-1,21
 128 0 128 0 100 0 c 2,22,-1
 57 0 l 1,23,-1
 57 111 l 1,0,-1
EndSplineSet
EndChar

StartChar: percent
Encoding: 37 37 189
Width: 989
Flags: W
HStem: -1 90<670.141 840.781> 257 90<676.704 841.296> 389 90<139.141 316.859> 647 90<139.775 310.296>
VStem: 49 90<479.775 646.859> 317 91<479.141 640.296> 580 90<89.1406 250.296> 848 90<95.704 249.781>
LayerCount: 2
Fore
SplineSet
872 737 m 1,0,-1
 872 606 l 1,1,-1
 151 0 l 1,2,-1
 135 0 l 1,3,-1
 135 131 l 1,4,-1
 857 737 l 1,5,-1
 872 737 l 1,0,-1
274 737 m 2,6,7
 302 737 302 737 326 727 c 128,-1,8
 350 717 350 717 368.5 698.5 c 128,-1,9
 387 680 387 680 397.5 656 c 128,-1,10
 408 632 408 632 408 604 c 2,11,-1
 408 522 l 2,12,13
 408 494 408 494 397.5 470 c 128,-1,14
 387 446 387 446 368.5 428 c 128,-1,15
 350 410 350 410 326 399.5 c 128,-1,16
 302 389 302 389 274 389 c 2,17,-1
 182 389 l 2,18,19
 154 389 154 389 130 399.5 c 128,-1,20
 106 410 106 410 88 428 c 128,-1,21
 70 446 70 446 59.5 470.5 c 128,-1,22
 49 495 49 495 49 522 c 2,23,-1
 49 604 l 2,24,25
 49 632 49 632 59.5 656 c 128,-1,26
 70 680 70 680 88 698.5 c 128,-1,27
 106 717 106 717 130.5 727 c 128,-1,28
 155 737 155 737 182 737 c 2,29,-1
 274 737 l 2,6,7
295 479 m 2,30,31
 304 479 304 479 310.5 486 c 128,-1,32
 317 493 317 493 317 502 c 2,33,-1
 317 625 l 2,34,35
 317 634 317 634 310.5 640.5 c 128,-1,36
 304 647 304 647 295 647 c 2,37,-1
 162 647 l 2,38,39
 153 647 153 647 146 640.5 c 128,-1,40
 139 634 139 634 139 625 c 2,41,-1
 139 502 l 2,42,43
 139 493 139 493 146 486 c 128,-1,44
 153 479 153 479 162 479 c 2,45,-1
 295 479 l 2,30,31
805 347 m 2,46,47
 833 347 833 347 857 337 c 128,-1,48
 881 327 881 327 899.5 308.5 c 128,-1,49
 918 290 918 290 928 266 c 128,-1,50
 938 242 938 242 938 214 c 2,51,-1
 938 132 l 2,52,53
 938 104 938 104 928 80 c 128,-1,54
 918 56 918 56 899.5 37.5 c 128,-1,55
 881 19 881 19 857 9 c 128,-1,56
 833 -1 833 -1 805 -1 c 2,57,-1
 713 -1 l 2,58,59
 685 -1 685 -1 661 9 c 128,-1,60
 637 19 637 19 618.5 37.5 c 128,-1,61
 600 56 600 56 590 80 c 128,-1,62
 580 104 580 104 580 132 c 2,63,-1
 580 214 l 2,64,65
 580 242 580 242 590 266 c 128,-1,66
 600 290 600 290 618.5 308.5 c 128,-1,67
 637 327 637 327 661 337 c 128,-1,68
 685 347 685 347 713 347 c 2,69,-1
 805 347 l 2,46,47
825 89 m 2,70,71
 834 89 834 89 841 95.5 c 128,-1,72
 848 102 848 102 848 112 c 2,73,-1
 848 234 l 2,74,75
 848 243 848 243 841.5 250 c 128,-1,76
 835 257 835 257 825 257 c 2,77,-1
 692 257 l 2,78,79
 683 257 683 257 676.5 250.5 c 128,-1,80
 670 244 670 244 670 234 c 2,81,-1
 670 112 l 2,82,83
 670 103 670 103 676.5 96 c 128,-1,84
 683 89 683 89 692 89 c 2,85,-1
 825 89 l 2,70,71
EndSplineSet
EndChar

StartChar: period
Encoding: 46 46 190
Width: 219
Flags: W
HStem: 0 111<55 166>
VStem: 55 111<0 111>
LayerCount: 2
Fore
SplineSet
166 0 m 1,0,-1
 55 0 l 1,1,-1
 55 111 l 1,2,-1
 166 111 l 1,3,-1
 166 0 l 1,0,-1
EndSplineSet
EndChar

StartChar: plus
Encoding: 43 43 191
Width: 443
Flags: W
HStem: 248 110<17 165 275 427>
VStem: 165 110<97 248 358 507>
LayerCount: 2
Fore
SplineSet
275 507 m 1,0,-1
 275 358 l 1,1,-1
 427 358 l 1,2,-1
 427 248 l 1,3,-1
 275 248 l 1,4,-1
 275 97 l 1,5,-1
 165 97 l 1,6,-1
 165 248 l 1,7,-1
 17 248 l 1,8,-1
 17 358 l 1,9,-1
 165 358 l 1,10,-1
 165 507 l 1,11,-1
 275 507 l 1,0,-1
EndSplineSet
EndChar

StartChar: q
Encoding: 113 113 192
Width: 679
Flags: W
HStem: -236 21G<514 625> 0 111<137.704 507.296> 483 111<131.087 507.296>
VStem: 20 111<117.704 482.265> 514 111<-236 0 117.704 476.296>
LayerCount: 2
Fore
SplineSet
20 461 m 2,0,1
 20 489 20 489 30.5 513 c 128,-1,2
 41 537 41 537 59.5 555 c 128,-1,3
 78 573 78 573 102 583.5 c 128,-1,4
 126 594 126 594 154 594 c 2,5,-1
 625 594 l 1,6,-1
 625 -236 l 1,7,-1
 514 -236 l 1,8,-1
 514 0 l 1,9,-1
 154 0 l 2,10,11
 126 0 126 0 102 10 c 128,-1,12
 78 20 78 20 59.5 38.5 c 128,-1,13
 41 57 41 57 30.5 81 c 128,-1,14
 20 105 20 105 20 133 c 2,15,-1
 20 461 l 2,0,1
131 133 m 2,16,17
 131 124 131 124 137.5 117.5 c 128,-1,18
 144 111 144 111 154 111 c 2,19,-1
 492 111 l 2,20,21
 501 111 501 111 507.5 117.5 c 128,-1,22
 514 124 514 124 514 133 c 2,23,-1
 514 461 l 2,24,25
 514 470 514 470 507.5 476.5 c 128,-1,26
 501 483 501 483 492 483 c 2,27,-1
 154 483 l 2,28,29
 145 483 145 483 138 476.5 c 128,-1,30
 131 470 131 470 131 461 c 2,31,-1
 131 133 l 2,16,17
EndSplineSet
Substitution2: "'smcp' Lowercase to Small Capitals in Latin lookup 3 subtable" q.sc
Substitution2: "'aalt' Access All Alternates in Latin lookup 0 subtable" q.sc
EndChar

StartChar: q.sc
Encoding: 65575 -1 193
Width: 788
Flags: W
HStem: 0 111<170.704 547 655 750> 483 111<170.704 540.296>
VStem: 53 111<117.704 476.296> 547 110<111.156 476.296>
LayerCount: 2
Fore
SplineSet
750 111 m 1,0,-1
 750 0 l 1,1,-1
 186 0 l 2,2,3
 158 0 158 0 134.5 10 c 128,-1,4
 111 20 111 20 92.5 38.5 c 128,-1,5
 74 57 74 57 63.5 81 c 128,-1,6
 53 105 53 105 53 133 c 2,7,-1
 53 461 l 2,8,9
 53 489 53 489 63.5 513 c 128,-1,10
 74 537 74 537 92.5 555 c 128,-1,11
 111 573 111 573 135 583.5 c 128,-1,12
 159 594 159 594 186 594 c 2,13,-1
 524 594 l 2,14,15
 552 594 552 594 576 583.5 c 128,-1,16
 600 573 600 573 618.5 555 c 128,-1,17
 637 537 637 537 647 512.5 c 128,-1,18
 657 488 657 488 657 461 c 2,19,-1
 657 133 l 2,20,21
 657 127 657 127 656.5 121.5 c 128,-1,22
 656 116 656 116 655 111 c 1,23,-1
 750 111 l 1,0,-1
524 111 m 2,24,25
 533 111 533 111 540 117.5 c 128,-1,26
 547 124 547 124 547 133 c 2,27,-1
 547 461 l 2,28,29
 547 470 547 470 540.5 476.5 c 128,-1,30
 534 483 534 483 524 483 c 2,31,-1
 186 483 l 2,32,33
 177 483 177 483 170.5 476.5 c 128,-1,34
 164 470 164 470 164 461 c 2,35,-1
 164 133 l 2,36,37
 164 124 164 124 170.5 117.5 c 128,-1,38
 177 111 177 111 186 111 c 2,39,-1
 524 111 l 2,24,25
EndSplineSet
EndChar

StartChar: question
Encoding: 63 63 194
Width: 694
Flags: W
HStem: 0 111<142 253> 283 110<253.558 562.442> 627 110<32 562.188>
VStem: 142 111<0 111 204 282.913> 563 111<393.087 626.913>
LayerCount: 2
Fore
SplineSet
541 737 m 2,0,1
 569 737 569 737 592.5 727 c 128,-1,2
 616 717 616 717 634.5 698.5 c 128,-1,3
 653 680 653 680 663.5 656 c 128,-1,4
 674 632 674 632 674 604 c 2,5,-1
 674 416 l 2,6,7
 674 388 674 388 663.5 364 c 128,-1,8
 653 340 653 340 634.5 321.5 c 128,-1,9
 616 303 616 303 592 293 c 128,-1,10
 568 283 568 283 541 283 c 2,11,-1
 275 283 l 2,12,13
 266 283 266 283 259.5 276 c 128,-1,14
 253 269 253 269 253 260 c 2,15,-1
 253 204 l 1,16,-1
 142 204 l 1,17,-1
 142 260 l 2,18,19
 142 288 142 288 152.5 312 c 128,-1,20
 163 336 163 336 181.5 354.5 c 128,-1,21
 200 373 200 373 224 383 c 128,-1,22
 248 393 248 393 275 393 c 2,23,-1
 541 393 l 2,24,25
 550 393 550 393 556.5 400 c 128,-1,26
 563 407 563 407 563 416 c 2,27,-1
 563 604 l 2,28,29
 563 613 563 613 556.5 620 c 128,-1,30
 550 627 550 627 541 627 c 2,31,-1
 32 627 l 1,32,-1
 32 737 l 1,33,-1
 541 737 l 2,0,1
142 0 m 1,34,-1
 142 111 l 1,35,-1
 253 111 l 1,36,-1
 253 0 l 1,37,-1
 142 0 l 1,34,-1
EndSplineSet
Substitution2: "'salt' Stylistic Alternatives in Latin lookup 2 subtable" question.alt
Substitution2: "'aalt' Access All Alternates in Latin lookup 0 subtable" question.alt
EndChar

StartChar: question.alt
Encoding: 57350 57350 195
Width: 683
Flags: W
HStem: 0 111<200 310> 283 110<310.087 549.913> 627 110<138.44 543.296>
VStem: 28 110<516 627> 200 110<0 111 155 282.913> 550 110<393.087 619.781>
LayerCount: 2
Fore
SplineSet
438 393 m 1,0,-1
 445 393 l 1,1,-1
 438 393 l 1,0,-1
527 737 m 2,2,3
 555 737 555 737 579 727 c 128,-1,4
 603 717 603 717 621.5 698.5 c 128,-1,5
 640 680 640 680 650 656 c 128,-1,6
 660 632 660 632 660 604 c 2,7,-1
 660 416 l 2,8,9
 660 388 660 388 650 364 c 128,-1,10
 640 340 640 340 621.5 321.5 c 128,-1,11
 603 303 603 303 579 293 c 128,-1,12
 555 283 555 283 527 283 c 2,13,-1
 333 283 l 2,14,15
 324 283 324 283 317 276 c 128,-1,16
 310 269 310 269 310 260 c 2,17,-1
 310 155 l 1,18,-1
 200 155 l 1,19,-1
 200 260 l 2,20,21
 200 288 200 288 210 312 c 128,-1,22
 220 336 220 336 238.5 354.5 c 128,-1,23
 257 373 257 373 281 383 c 128,-1,24
 305 393 305 393 333 393 c 2,25,-1
 527 393 l 2,26,27
 536 393 536 393 543 400 c 128,-1,28
 550 407 550 407 550 416 c 2,29,-1
 550 604 l 2,30,31
 550 613 550 613 543.5 620 c 128,-1,32
 537 627 537 627 527 627 c 2,33,-1
 138 627 l 1,34,-1
 138 516 l 1,35,-1
 28 516 l 1,36,-1
 28 627 l 1,37,38
 32 651 32 651 43.5 670.5 c 128,-1,39
 55 690 55 690 72.5 705 c 128,-1,40
 90 720 90 720 112 728.5 c 128,-1,41
 134 737 134 737 159 737 c 2,42,-1
 527 737 l 2,2,3
200 0 m 1,43,-1
 200 111 l 1,44,-1
 310 111 l 1,45,-1
 310 0 l 1,46,-1
 200 0 l 1,43,-1
EndSplineSet
EndChar

StartChar: questiondown
Encoding: 191 191 196
Width: 691
Flags: W
HStem: 0 111<136.704 662> 344 111<130.087 433.296> 627 110<440 551>
VStem: 19 111<117.704 343.188> 440 111<461.704 540 627 737>
LayerCount: 2
Fore
SplineSet
153 0 m 2,0,1
 125 0 125 0 101 10 c 128,-1,2
 77 20 77 20 58.5 38.5 c 128,-1,3
 40 57 40 57 29.5 81 c 128,-1,4
 19 105 19 105 19 133 c 2,5,-1
 19 322 l 2,6,7
 19 350 19 350 29.5 373.5 c 128,-1,8
 40 397 40 397 58.5 415.5 c 128,-1,9
 77 434 77 434 101 444.5 c 128,-1,10
 125 455 125 455 153 455 c 2,11,-1
 418 455 l 2,12,13
 427 455 427 455 433.5 461.5 c 128,-1,14
 440 468 440 468 440 477 c 2,15,-1
 440 540 l 1,16,-1
 551 540 l 1,17,-1
 551 477 l 2,18,19
 551 449 551 449 540.5 425 c 128,-1,20
 530 401 530 401 512 383 c 128,-1,21
 494 365 494 365 469.5 354.5 c 128,-1,22
 445 344 445 344 418 344 c 2,23,-1
 153 344 l 2,24,25
 144 344 144 344 137 337.5 c 128,-1,26
 130 331 130 331 130 322 c 2,27,-1
 130 133 l 2,28,29
 130 124 130 124 136.5 117.5 c 128,-1,30
 143 111 143 111 153 111 c 2,31,-1
 662 111 l 1,32,-1
 662 0 l 1,33,-1
 153 0 l 2,0,1
551 627 m 1,34,-1
 440 627 l 1,35,-1
 440 737 l 1,36,-1
 551 737 l 1,37,-1
 551 627 l 1,34,-1
EndSplineSet
EndChar

StartChar: quotedbl
Encoding: 34 34 197
Width: 380
Flags: W
HStem: 570 166<60 171 211 322>
VStem: 60 111<570 736> 211 111<570 736>
LayerCount: 2
Fore
SplineSet
171 570 m 1,0,-1
 60 570 l 1,1,-1
 60 736 l 1,2,-1
 171 736 l 1,3,-1
 171 570 l 1,0,-1
322 570 m 1,4,-1
 211 570 l 1,5,-1
 211 736 l 1,6,-1
 322 736 l 1,7,-1
 322 570 l 1,4,-1
EndSplineSet
EndChar

StartChar: quotedblleft
Encoding: 8220 8220 198
Width: 387
Flags: W
HStem: 496 241<102.037 158 277.037 333>
VStem: 47 111<496 679.672> 56 102<497.719 691.848> 222 111<496 679.672> 231 102<497.719 691.848>
LayerCount: 2
Fore
SplineSet
47 496 m 1,0,-1
 47 606 l 2,1,2
 47 631 47 631 56 653.5 c 128,-1,3
 65 676 65 676 79.5 693.5 c 128,-1,4
 94 711 94 711 114 722 c 128,-1,5
 134 733 134 733 158 737 c 1,6,-1
 158 496 l 1,7,-1
 47 496 l 1,0,-1
222 496 m 1,8,-1
 222 606 l 2,9,10
 222 631 222 631 231 653.5 c 128,-1,11
 240 676 240 676 254.5 693.5 c 128,-1,12
 269 711 269 711 289 722 c 128,-1,13
 309 733 309 733 333 737 c 1,14,-1
 333 496 l 1,15,-1
 222 496 l 1,8,-1
EndSplineSet
EndChar

StartChar: quotedblright
Encoding: 8221 8221 199
Width: 387
Flags: W
HStem: 496 241<55 110.963 230 286.012>
VStem: 55 111<553.328 737> 55 102<541.152 735.281> 230 111<552.122 737> 230 102.5<541.152 735.281>
LayerCount: 2
Fore
SplineSet
341 737 m 1,0,-1
 341 627 l 2,1,2
 341 602 341 602 332.5 579.5 c 128,-1,3
 324 557 324 557 309 539.5 c 128,-1,4
 294 522 294 522 274 511 c 128,-1,5
 254 500 254 500 230 496 c 1,6,-1
 230 737 l 1,7,-1
 341 737 l 1,0,-1
166 737 m 1,8,-1
 166 627 l 2,9,10
 166 602 166 602 157 579.5 c 128,-1,11
 148 557 148 557 133.5 539.5 c 128,-1,12
 119 522 119 522 99 511 c 128,-1,13
 79 500 79 500 55 496 c 1,14,-1
 55 737 l 1,15,-1
 166 737 l 1,8,-1
EndSplineSet
EndChar

StartChar: quoteleft
Encoding: 8216 8216 200
Width: 198
Flags: W
HStem: 496 241<89.9883 145>
VStem: 35 110<496 680.878> 43.5 101.5<497.719 691.848>
LayerCount: 2
Fore
SplineSet
35 496 m 1,0,-1
 35 606 l 2,1,2
 35 631 35 631 43.5 653.5 c 128,-1,3
 52 676 52 676 67 693.5 c 128,-1,4
 82 711 82 711 102 722 c 128,-1,5
 122 733 122 733 145 737 c 1,6,-1
 145 496 l 1,7,-1
 35 496 l 1,0,-1
EndSplineSet
EndChar

StartChar: quoteright
Encoding: 8217 8217 201
Width: 197
Flags: W
HStem: 496 241<55 110.963>
VStem: 55 111<553.328 737> 55 102<541.152 735.281>
LayerCount: 2
Fore
SplineSet
166 737 m 1,0,-1
 166 627 l 2,1,2
 166 602 166 602 157 579.5 c 128,-1,3
 148 557 148 557 133.5 539.5 c 128,-1,4
 119 522 119 522 99 511 c 128,-1,5
 79 500 79 500 55 496 c 1,6,-1
 55 737 l 1,7,-1
 166 737 l 1,0,-1
EndSplineSet
EndChar

StartChar: quotesingle
Encoding: 39 39 202
Width: 229
Flags: W
HStem: 570 166<60 171>
VStem: 60 111<570 736>
LayerCount: 2
Fore
SplineSet
171 570 m 1,0,-1
 60 570 l 1,1,-1
 60 736 l 1,2,-1
 171 736 l 1,3,-1
 171 570 l 1,0,-1
EndSplineSet
EndChar

StartChar: r
Encoding: 114 114 203
Width: 524
Flags: W
HStem: 0 21G<53 164> 483 111<170.704 518>
VStem: 53 111<0 476.296>
LayerCount: 2
Fore
SplineSet
518 594 m 1,0,-1
 518 483 l 1,1,-1
 186 483 l 2,2,3
 177 483 177 483 170.5 476.5 c 128,-1,4
 164 470 164 470 164 461 c 2,5,-1
 164 0 l 1,6,-1
 53 0 l 1,7,-1
 53 133 l 1,8,-1
 53 461 l 2,9,10
 53 489 53 489 63.5 513 c 128,-1,11
 74 537 74 537 92.5 555 c 128,-1,12
 111 573 111 573 135 583.5 c 128,-1,13
 159 594 159 594 186 594 c 2,14,-1
 518 594 l 1,0,-1
EndSplineSet
Substitution2: "'smcp' Lowercase to Small Capitals in Latin lookup 3 subtable" r.sc
Substitution2: "'aalt' Access All Alternates in Latin lookup 0 subtable" r.sc
EndChar

StartChar: r.sc
Encoding: 65576 -1 204
Width: 716
Flags: W
HStem: 0 21G<55 166 517.02 670> 202 110<166.006 317 462 548.913> 483 111<172.704 542.296>
VStem: 55 111<0 202 312 476.296> 549 110<312.087 476.296>
LayerCount: 2
Fore
SplineSet
659 335 m 2,0,1
 659 307 659 307 649 283 c 128,-1,2
 639 259 639 259 620.5 241 c 128,-1,3
 602 223 602 223 578 212.5 c 128,-1,4
 554 202 554 202 526 202 c 2,5,-1
 462 202 l 1,6,-1
 670 15 l 1,7,-1
 670 0 l 1,8,-1
 539 0 l 1,9,-1
 317 202 l 1,10,-1
 166 202 l 1,11,-1
 166 0 l 1,12,-1
 55 0 l 1,13,-1
 55 594 l 1,14,-1
 526 594 l 2,15,16
 554 594 554 594 578 583 c 128,-1,17
 602 572 602 572 620.5 554.5 c 128,-1,18
 639 537 639 537 649 512.5 c 128,-1,19
 659 488 659 488 659 461 c 2,20,-1
 659 335 l 2,0,1
526 312 m 2,21,22
 535 312 535 312 542 319 c 128,-1,23
 549 326 549 326 549 335 c 2,24,-1
 549 461 l 2,25,26
 549 470 549 470 542.5 476.5 c 128,-1,27
 536 483 536 483 526 483 c 2,28,-1
 188 483 l 2,29,30
 179 483 179 483 172.5 476.5 c 128,-1,31
 166 470 166 470 166 461 c 2,32,-1
 166 335 l 2,33,34
 166 326 166 326 172.5 319 c 128,-1,35
 179 312 179 312 188 312 c 2,36,-1
 526 312 l 2,21,22
EndSplineSet
EndChar

StartChar: ring
Encoding: 730 730 205
Width: 238
Flags: W
HStem: 848 41<77.4991 162.889> 971 41<77.3086 162.889>
VStem: 36 41<889.466 970.691> 163 41<889.005 970.691>
LayerCount: 2
Fore
SplineSet
148 1012 m 2,0,1
 172 1012 172 1012 188 996 c 128,-1,2
 204 980 204 980 204 957 c 2,3,-1
 204 902 l 2,4,5
 204 879 204 879 188 863.5 c 128,-1,6
 172 848 172 848 148 848 c 2,7,-1
 91 848 l 2,8,9
 67 848 67 848 51.5 864 c 128,-1,10
 36 880 36 880 36 902 c 2,11,-1
 36 957 l 2,12,13
 36 980 36 980 52 996 c 128,-1,14
 68 1012 68 1012 91 1012 c 2,15,-1
 148 1012 l 2,0,1
154 889 m 2,16,17
 163 889 163 889 163 899 c 2,18,-1
 163 961 l 2,19,20
 163 971 163 971 154 971 c 2,21,-1
 86 971 l 2,22,23
 77 971 77 971 77 961 c 2,24,-1
 77 899 l 2,25,26
 77 889 77 889 86 889 c 2,27,-1
 154 889 l 2,16,17
EndSplineSet
EndChar

StartChar: s
Encoding: 115 115 206
Width: 702
Flags: W
HStem: 0 111<166.704 542.913> 242 110<160.735 542.913> 483 111<166.704 542.913>
VStem: 49 111<117.704 156 352.087 476.296> 543 110<111.735 241.913 438 482.525>
CounterMasks: 1 e0
LayerCount: 2
Fore
SplineSet
653 438 m 1,0,-1
 543 438 l 1,1,-1
 543 461 l 2,2,3
 543 470 543 470 536 476.5 c 128,-1,4
 529 483 529 483 520 483 c 2,5,-1
 182 483 l 2,6,7
 173 483 173 483 166.5 476.5 c 128,-1,8
 160 470 160 470 160 461 c 2,9,-1
 160 375 l 2,10,11
 160 366 160 366 166.5 359 c 128,-1,12
 173 352 173 352 182 352 c 2,13,-1
 520 352 l 2,14,15
 548 352 548 352 572 342 c 128,-1,16
 596 332 596 332 614.5 313.5 c 128,-1,17
 633 295 633 295 643 271 c 128,-1,18
 653 247 653 247 653 219 c 2,19,-1
 653 133 l 2,20,21
 653 105 653 105 643 81 c 128,-1,22
 633 57 633 57 614.5 38.5 c 128,-1,23
 596 20 596 20 572 10 c 128,-1,24
 548 0 548 0 520 0 c 2,25,-1
 182 0 l 2,26,27
 154 0 154 0 130 10 c 128,-1,28
 106 20 106 20 88 38.5 c 128,-1,29
 70 57 70 57 59.5 81 c 128,-1,30
 49 105 49 105 49 133 c 2,31,-1
 49 156 l 1,32,-1
 160 156 l 1,33,-1
 160 133 l 2,34,35
 160 124 160 124 166.5 117.5 c 128,-1,36
 173 111 173 111 182 111 c 2,37,-1
 520 111 l 2,38,39
 529 111 529 111 536 117.5 c 128,-1,40
 543 124 543 124 543 133 c 2,41,-1
 543 219 l 2,42,43
 543 228 543 228 536 235 c 128,-1,44
 529 242 529 242 520 242 c 2,45,-1
 182 242 l 2,46,47
 154 242 154 242 130 252 c 128,-1,48
 106 262 106 262 88 280.5 c 128,-1,49
 70 299 70 299 59.5 323 c 128,-1,50
 49 347 49 347 49 375 c 2,51,-1
 49 461 l 2,52,53
 49 489 49 489 59.5 513 c 128,-1,54
 70 537 70 537 88 555 c 128,-1,55
 106 573 106 573 130.5 583.5 c 128,-1,56
 155 594 155 594 182 594 c 2,57,-1
 520 594 l 2,58,59
 548 594 548 594 572 583.5 c 128,-1,60
 596 573 596 573 614.5 555 c 128,-1,61
 633 537 633 537 643 512.5 c 128,-1,62
 653 488 653 488 653 461 c 2,63,-1
 653 438 l 1,0,-1
EndSplineSet
Substitution2: "'smcp' Lowercase to Small Capitals in Latin lookup 3 subtable" s.sc
Substitution2: "'aalt' Access All Alternates in Latin lookup 0 subtable" s.sc
EndChar

StartChar: s.sc
Encoding: 65577 -1 207
Width: 703
Flags: W
HStem: 0 111<167.704 543.913> 242 110<161.812 543.913> 483 111<167.704 543.913>
VStem: 50 111<117.704 166 352.087 476.296> 544 110<111.735 241.913 428 482.525>
CounterMasks: 1 e0
LayerCount: 2
Fore
SplineSet
654 428 m 1,0,-1
 544 428 l 1,1,-1
 544 461 l 2,2,3
 544 470 544 470 537 476.5 c 128,-1,4
 530 483 530 483 521 483 c 2,5,-1
 183 483 l 2,6,7
 174 483 174 483 167.5 476.5 c 128,-1,8
 161 470 161 470 161 461 c 2,9,-1
 161 375 l 2,10,11
 161 366 161 366 167.5 359 c 128,-1,12
 174 352 174 352 183 352 c 2,13,-1
 521 352 l 2,14,15
 549 352 549 352 573 342 c 128,-1,16
 597 332 597 332 615.5 313.5 c 128,-1,17
 634 295 634 295 644 271 c 128,-1,18
 654 247 654 247 654 219 c 2,19,-1
 654 133 l 2,20,21
 654 105 654 105 644 81 c 128,-1,22
 634 57 634 57 615.5 38.5 c 128,-1,23
 597 20 597 20 573 10 c 128,-1,24
 549 0 549 0 521 0 c 2,25,-1
 183 0 l 2,26,27
 155 0 155 0 131.5 10 c 128,-1,28
 108 20 108 20 89.5 38.5 c 128,-1,29
 71 57 71 57 60.5 81 c 128,-1,30
 50 105 50 105 50 133 c 2,31,-1
 50 166 l 1,32,-1
 161 166 l 1,33,-1
 161 133 l 2,34,35
 161 124 161 124 167.5 117.5 c 128,-1,36
 174 111 174 111 183 111 c 2,37,-1
 521 111 l 2,38,39
 530 111 530 111 537 117.5 c 128,-1,40
 544 124 544 124 544 133 c 2,41,-1
 544 219 l 2,42,43
 544 228 544 228 537 235 c 128,-1,44
 530 242 530 242 521 242 c 2,45,-1
 183 242 l 2,46,47
 155 242 155 242 131.5 252 c 128,-1,48
 108 262 108 262 89.5 280.5 c 128,-1,49
 71 299 71 299 60.5 323 c 128,-1,50
 50 347 50 347 50 375 c 2,51,-1
 50 461 l 2,52,53
 50 489 50 489 60.5 513 c 128,-1,54
 71 537 71 537 89.5 555 c 128,-1,55
 108 573 108 573 132 583.5 c 128,-1,56
 156 594 156 594 183 594 c 2,57,-1
 521 594 l 2,58,59
 549 594 549 594 573 583.5 c 128,-1,60
 597 573 597 573 615.5 555 c 128,-1,61
 634 537 634 537 644 512.5 c 128,-1,62
 654 488 654 488 654 461 c 2,63,-1
 654 428 l 1,0,-1
EndSplineSet
EndChar

StartChar: semicolon
Encoding: 59 59 209
Width: 197
Flags: W
HStem: 492 110<52 163>
VStem: 52 111<-73.4766 111 492 602> 52 102<-85.3942 109.266>
LayerCount: 2
Fore
SplineSet
163 492 m 1,0,-1
 52 492 l 1,1,-1
 52 602 l 1,2,-1
 163 602 l 1,3,-1
 163 492 l 1,0,-1
163 111 m 1,4,-1
 163 0 l 2,5,6
 163 -25 163 -25 154 -47.5 c 128,-1,7
 145 -70 145 -70 130.5 -87 c 128,-1,8
 116 -104 116 -104 96 -115.5 c 128,-1,9
 76 -127 76 -127 52 -131 c 1,10,-1
 52 111 l 1,11,-1
 163 111 l 1,4,-1
EndSplineSet
EndChar

StartChar: seven
Encoding: 55 55 210
Width: 675
Flags: W
HStem: 0 21G<507 617> 627 110<3 500.296>
VStem: 507 110<0 619.781>
LayerCount: 2
Fore
SplineSet
13 737 m 1,0,-1
 484 737 l 2,1,2
 512 737 512 737 536 727 c 128,-1,3
 560 717 560 717 578.5 698.5 c 128,-1,4
 597 680 597 680 607 656 c 128,-1,5
 617 632 617 632 617 604 c 2,6,-1
 617 0 l 1,7,-1
 507 0 l 1,8,-1
 507 604 l 2,9,10
 507 613 507 613 500.5 620 c 128,-1,11
 494 627 494 627 484 627 c 2,12,-1
 3 627 l 1,13,-1
 3 737 l 1,14,-1
 13 737 l 1,0,-1
EndSplineSet
Substitution2: "'ss03' Style Set 3 in Latin lookup 6 subtable" seven.alt
Substitution2: "'aalt' Access All Alternates in Latin lookup 0 subtable" seven.alt
EndChar

StartChar: seven.alt
Encoding: 57346 57346 211
Width: 789
Flags: W
HStem: 0 21G<47 194.787> 627 110<47 560>
LayerCount: 2
Fore
SplineSet
653 737 m 1,0,-1
 784 737 l 1,1,-1
 784 722 l 1,2,-1
 178 0 l 1,3,-1
 47 0 l 1,4,-1
 47 15 l 1,5,-1
 560 627 l 1,6,-1
 47 627 l 1,7,-1
 47 737 l 1,8,-1
 653 737 l 1,0,-1
EndSplineSet
EndChar

StartChar: six
Encoding: 54 54 212
Width: 839
Flags: W
HStem: 0 111<175.704 678.296> 324 110<169.006 684.188> 627 110<169.558 673>
VStem: 58 111<117.704 324 434 626.913> 685 111<117.704 323.913>
LayerCount: 2
Fore
SplineSet
663 434 m 2,0,1
 691 434 691 434 714.5 424 c 128,-1,2
 738 414 738 414 756.5 395.5 c 128,-1,3
 775 377 775 377 785.5 353 c 128,-1,4
 796 329 796 329 796 301 c 2,5,-1
 796 133 l 2,6,7
 796 105 796 105 785.5 81 c 128,-1,8
 775 57 775 57 756.5 38.5 c 128,-1,9
 738 20 738 20 714 10 c 128,-1,10
 690 0 690 0 663 0 c 2,11,-1
 191 0 l 2,12,13
 163 0 163 0 139.5 10 c 128,-1,14
 116 20 116 20 97.5 38.5 c 128,-1,15
 79 57 79 57 68.5 81 c 128,-1,16
 58 105 58 105 58 133 c 2,17,-1
 58 604 l 2,18,19
 58 632 58 632 68.5 656 c 128,-1,20
 79 680 79 680 97.5 698.5 c 128,-1,21
 116 717 116 717 140 727 c 128,-1,22
 164 737 164 737 191 737 c 2,23,-1
 673 737 l 1,24,-1
 673 627 l 1,25,-1
 191 627 l 2,26,27
 182 627 182 627 175.5 620 c 128,-1,28
 169 613 169 613 169 604 c 2,29,-1
 169 457 l 2,30,31
 169 448 169 448 175.5 441 c 128,-1,32
 182 434 182 434 191 434 c 2,33,-1
 540 434 l 1,34,-1
 663 434 l 2,0,1
685 301 m 2,35,36
 685 310 685 310 678.5 317 c 128,-1,37
 672 324 672 324 663 324 c 2,38,-1
 169 324 l 1,39,-1
 169 133 l 2,40,41
 169 124 169 124 175.5 117.5 c 128,-1,42
 182 111 182 111 191 111 c 2,43,-1
 663 111 l 2,44,45
 672 111 672 111 678.5 117.5 c 128,-1,46
 685 124 685 124 685 133 c 2,47,-1
 685 301 l 2,35,36
EndSplineSet
EndChar

StartChar: slash
Encoding: 47 47 213
Width: 533
Flags: W
HStem: 0 21G<6 38.6997> 717 20G<496.267 528>
LayerCount: 2
Fore
SplineSet
513 737 m 1,0,-1
 528 737 l 1,1,-1
 528 606 l 1,2,-1
 22 0 l 1,3,-1
 6 0 l 1,4,-1
 6 131 l 1,5,-1
 513 737 l 1,0,-1
EndSplineSet
EndChar

StartChar: A.alt2
Encoding: 57356 57356 214
Width: 792
Flags: W
HStem: 0 21G<55 166 645.147 793> 197 110<166 403> 717 20G<55 202.814>
VStem: 55 111<0 197 307 590>
LayerCount: 2
Fore
SplineSet
186 737 m 1,0,-1
 793 15 l 1,1,-1
 793 0 l 1,2,-1
 662 0 l 1,3,-1
 496 197 l 1,4,-1
 166 197 l 1,5,-1
 166 0 l 1,6,-1
 55 0 l 1,7,-1
 55 737 l 1,8,-1
 186 737 l 1,0,-1
166 307 m 1,9,-1
 403 307 l 1,10,-1
 166 590 l 1,11,-1
 166 307 l 1,9,-1
EndSplineSet
EndChar

StartChar: sterling
Encoding: 163 163 215
Width: 751
Flags: W
HStem: 0 111<40 142 253 703> 313 111<40 142 253 595> 627 110<253.558 586.296>
VStem: 142 111<111 313 424 626.913> 593 110<573 619.781>
LayerCount: 2
Fore
SplineSet
593 573 m 1,0,-1
 593 604 l 2,1,2
 593 613 593 613 586.5 620 c 128,-1,3
 580 627 580 627 570 627 c 2,4,-1
 275 627 l 2,5,6
 266 627 266 627 259.5 620 c 128,-1,7
 253 613 253 613 253 604 c 2,8,-1
 253 424 l 1,9,-1
 595 424 l 1,10,-1
 595 313 l 1,11,-1
 253 313 l 1,12,-1
 253 111 l 1,13,-1
 703 111 l 1,14,-1
 703 0 l 1,15,-1
 40 0 l 1,16,-1
 40 111 l 1,17,-1
 142 111 l 1,18,-1
 142 313 l 1,19,-1
 40 313 l 1,20,-1
 40 424 l 1,21,-1
 142 424 l 1,22,-1
 142 604 l 2,23,24
 142 632 142 632 152.5 656 c 128,-1,25
 163 680 163 680 181.5 698.5 c 128,-1,26
 200 717 200 717 224 727 c 128,-1,27
 248 737 248 737 275 737 c 2,28,-1
 570 737 l 2,29,30
 598 737 598 737 622 727 c 128,-1,31
 646 717 646 717 664.5 698.5 c 128,-1,32
 683 680 683 680 693 656 c 128,-1,33
 703 632 703 632 703 604 c 2,34,-1
 703 573 l 1,35,-1
 593 573 l 1,0,-1
EndSplineSet
EndChar

StartChar: t
Encoding: 116 116 216
Width: 419
Flags: W
HStem: 0 111<171.704 409> 483 111<165 409> 768 20G<54 165>
VStem: 54 111<117.704 483 594 788>
LayerCount: 2
Fore
SplineSet
165 483 m 1,0,-1
 165 133 l 2,1,2
 165 124 165 124 171.5 117.5 c 128,-1,3
 178 111 178 111 187 111 c 2,4,-1
 409 111 l 1,5,-1
 409 0 l 1,6,-1
 187 0 l 2,7,8
 159 0 159 0 135.5 10 c 128,-1,9
 112 20 112 20 93.5 38.5 c 128,-1,10
 75 57 75 57 64.5 81 c 128,-1,11
 54 105 54 105 54 133 c 2,12,-1
 54 461 l 1,13,-1
 54 788 l 1,14,-1
 165 788 l 1,15,-1
 165 594 l 1,16,-1
 409 594 l 1,17,-1
 409 483 l 1,18,-1
 165 483 l 1,0,-1
EndSplineSet
Substitution2: "'smcp' Lowercase to Small Capitals in Latin lookup 3 subtable" t.sc
Substitution2: "'aalt' Access All Alternates in Latin lookup 0 subtable" t.sc
EndChar

StartChar: t.sc
Encoding: 65578 -1 217
Width: 659
Flags: W
HStem: 0 21G<274 385> 483 111<23 274 385 637>
VStem: 274 111<0 483>
LayerCount: 2
Fore
SplineSet
637 594 m 1,0,-1
 637 483 l 1,1,-1
 385 483 l 1,2,-1
 385 0 l 1,3,-1
 274 0 l 1,4,-1
 274 483 l 1,5,-1
 23 483 l 1,6,-1
 23 594 l 1,7,-1
 637 594 l 1,0,-1
EndSplineSet
EndChar

StartChar: three
Encoding: 51 51 218
Width: 845
Flags: W
HStem: 0 111<171.704 680.913> 321 110<187 643.296> 627 110<165.558 649.188>
VStem: 54 111<117.704 164 563 626.913> 650 111<437.704 626.913> 681 111<111.735 313.781>
LayerCount: 2
Fore
SplineSet
748 396 m 1,0,1
 768 379 768 379 780 353.5 c 128,-1,2
 792 328 792 328 792 298 c 2,3,-1
 792 133 l 2,4,5
 792 105 792 105 781.5 81 c 128,-1,6
 771 57 771 57 752.5 38.5 c 128,-1,7
 734 20 734 20 710 10 c 128,-1,8
 686 0 686 0 658 0 c 2,9,-1
 187 0 l 2,10,11
 159 0 159 0 135.5 10 c 128,-1,12
 112 20 112 20 93.5 38.5 c 128,-1,13
 75 57 75 57 64.5 81 c 128,-1,14
 54 105 54 105 54 133 c 2,15,-1
 54 164 l 1,16,-1
 165 164 l 1,17,-1
 165 133 l 2,18,19
 165 124 165 124 171.5 117.5 c 128,-1,20
 178 111 178 111 187 111 c 2,21,-1
 658 111 l 2,22,23
 667 111 667 111 674 117.5 c 128,-1,24
 681 124 681 124 681 133 c 2,25,-1
 681 298 l 2,26,27
 681 307 681 307 674.5 314 c 128,-1,28
 668 321 668 321 658 321 c 2,29,-1
 187 321 l 1,30,-1
 187 431 l 1,31,-1
 628 431 l 2,32,33
 637 431 637 431 643.5 437.5 c 128,-1,34
 650 444 650 444 650 454 c 2,35,-1
 650 604 l 2,36,37
 650 613 650 613 643.5 620 c 128,-1,38
 637 627 637 627 628 627 c 2,39,-1
 187 627 l 2,40,41
 178 627 178 627 171.5 620 c 128,-1,42
 165 613 165 613 165 604 c 2,43,-1
 165 563 l 1,44,-1
 54 563 l 1,45,-1
 54 604 l 2,46,47
 54 632 54 632 64.5 656 c 128,-1,48
 75 680 75 680 93.5 698.5 c 128,-1,49
 112 717 112 717 136 727 c 128,-1,50
 160 737 160 737 187 737 c 2,51,-1
 628 737 l 2,52,53
 656 737 656 737 679.5 727 c 128,-1,54
 703 717 703 717 721.5 698.5 c 128,-1,55
 740 680 740 680 750.5 656 c 128,-1,56
 761 632 761 632 761 604 c 2,57,-1
 761 454 l 2,58,59
 761 425 761 425 748 396 c 1,0,1
EndSplineSet
EndChar

StartChar: tilde
Encoding: 732 732 219
Width: 412
Flags: W
HStem: 851 68<232.417 378.338> 921 67<25.3235 177.969>
LayerCount: 2
Fore
SplineSet
304 919 m 1,0,1
 327 919 327 919 346.5 926 c 128,-1,2
 366 933 366 933 384 945 c 1,3,-1
 384 869 l 1,4,5
 368 862 368 862 348 856.5 c 128,-1,6
 328 851 328 851 304 851 c 0,7,8
 276 851 276 851 252 861.5 c 128,-1,9
 228 872 228 872 203.5 885.5 c 128,-1,10
 179 899 179 899 153.5 910 c 128,-1,11
 128 921 128 921 99 921 c 0,12,13
 91 921 91 921 80 920.5 c 128,-1,14
 69 920 69 920 58 917 c 128,-1,15
 47 914 47 914 38 909.5 c 128,-1,16
 29 905 29 905 24 897 c 1,17,-1
 24 974 l 1,18,19
 38 980 38 980 57 984 c 128,-1,20
 76 988 76 988 99 988 c 0,21,22
 128 988 128 988 152.5 978.5 c 128,-1,23
 177 969 177 969 201.5 956.5 c 128,-1,24
 226 944 226 944 250.5 933 c 128,-1,25
 275 922 275 922 304 919 c 1,0,1
EndSplineSet
EndChar

StartChar: two
Encoding: 50 50 220
Width: 849
Flags: W
HStem: 0 111<175.704 796> 303 111<175.704 678.296> 627 110<169.558 684.188>
VStem: 58 111<117.704 296.296 561 626.913> 685 111<420.704 626.913>
LayerCount: 2
Fore
SplineSet
663 737 m 2,0,1
 691 737 691 737 714.5 727 c 128,-1,2
 738 717 738 717 756.5 698.5 c 128,-1,3
 775 680 775 680 785.5 656 c 128,-1,4
 796 632 796 632 796 604 c 2,5,-1
 796 436 l 2,6,7
 796 408 796 408 785.5 384 c 128,-1,8
 775 360 775 360 756.5 342 c 128,-1,9
 738 324 738 324 714 313.5 c 128,-1,10
 690 303 690 303 663 303 c 2,11,-1
 191 303 l 2,12,13
 182 303 182 303 175.5 296.5 c 128,-1,14
 169 290 169 290 169 281 c 2,15,-1
 169 133 l 2,16,17
 169 124 169 124 175.5 117.5 c 128,-1,18
 182 111 182 111 191 111 c 2,19,-1
 796 111 l 1,20,-1
 796 0 l 1,21,-1
 58 0 l 1,22,-1
 58 281 l 2,23,24
 58 309 58 309 68.5 332.5 c 128,-1,25
 79 356 79 356 97.5 374.5 c 128,-1,26
 116 393 116 393 140 403.5 c 128,-1,27
 164 414 164 414 191 414 c 2,28,-1
 663 414 l 2,29,30
 672 414 672 414 678.5 420.5 c 128,-1,31
 685 427 685 427 685 436 c 2,32,-1
 685 604 l 2,33,34
 685 613 685 613 678.5 620 c 128,-1,35
 672 627 672 627 663 627 c 2,36,-1
 191 627 l 2,37,38
 182 627 182 627 175.5 620 c 128,-1,39
 169 613 169 613 169 604 c 2,40,-1
 169 561 l 1,41,-1
 58 561 l 1,42,-1
 58 604 l 2,43,44
 58 632 58 632 68.5 656 c 128,-1,45
 79 680 79 680 97.5 698.5 c 128,-1,46
 116 717 116 717 140 727 c 128,-1,47
 164 737 164 737 191 737 c 2,48,-1
 663 737 l 2,0,1
EndSplineSet
Substitution2: "'ss03' Style Set 3 in Latin lookup 6 subtable" two.alt
Substitution2: "'aalt' Access All Alternates in Latin lookup 0 subtable" two.alt
EndChar

StartChar: two.alt
Encoding: 57349 57349 221
Width: 834
Flags: W
HStem: 0 111<161.995 785> 627 110<161.558 674.56>
VStem: 50 111<111 162 548 626.913> 675 110<554 627>
LayerCount: 2
Fore
SplineSet
675 429 m 1,0,-1
 161 162 l 1,1,-1
 161 111 l 1,2,-1
 785 111 l 1,3,-1
 785 0 l 1,4,-1
 181 0 l 2,5,6
 133 0 133 0 97 29.5 c 128,-1,7
 61 59 61 59 51 104 c 1,8,-1
 50 229 l 1,9,-1
 675 554 l 1,10,-1
 675 627 l 1,11,-1
 183 627 l 2,12,13
 174 627 174 627 167.5 620 c 128,-1,14
 161 613 161 613 161 604 c 2,15,-1
 161 548 l 1,16,-1
 50 548 l 1,17,-1
 50 604 l 2,18,19
 50 632 50 632 60.5 656 c 128,-1,20
 71 680 71 680 89.5 698.5 c 128,-1,21
 108 717 108 717 132 727 c 128,-1,22
 156 737 156 737 183 737 c 2,23,-1
 654 737 l 2,24,25
 679 737 679 737 701 728.5 c 128,-1,26
 723 720 723 720 740.5 705 c 128,-1,27
 758 690 758 690 769.5 670 c 128,-1,28
 781 650 781 650 785 627 c 1,29,-1
 785 486 l 1,30,-1
 675 429 l 1,0,-1
EndSplineSet
EndChar

StartChar: u
Encoding: 117 117 222
Width: 711
Flags: W
HStem: 0 111<171.704 547.913> 574 20G<54 165 548 658>
VStem: 54 111<117.704 594> 548 110<111.735 594>
LayerCount: 2
Fore
SplineSet
658 594 m 1,0,-1
 658 133 l 2,1,2
 658 105 658 105 648 81 c 128,-1,3
 638 57 638 57 619.5 38.5 c 128,-1,4
 601 20 601 20 577 10 c 128,-1,5
 553 0 553 0 525 0 c 2,6,-1
 187 0 l 2,7,8
 159 0 159 0 135.5 10 c 128,-1,9
 112 20 112 20 93.5 38.5 c 128,-1,10
 75 57 75 57 64.5 81 c 128,-1,11
 54 105 54 105 54 133 c 2,12,-1
 54 594 l 1,13,-1
 165 594 l 1,14,-1
 165 133 l 2,15,16
 165 124 165 124 171.5 117.5 c 128,-1,17
 178 111 178 111 187 111 c 2,18,-1
 525 111 l 2,19,20
 534 111 534 111 541 117.5 c 128,-1,21
 548 124 548 124 548 133 c 2,22,-1
 548 594 l 1,23,-1
 658 594 l 1,0,-1
EndSplineSet
Substitution2: "'smcp' Lowercase to Small Capitals in Latin lookup 3 subtable" u.sc
Substitution2: "'aalt' Access All Alternates in Latin lookup 0 subtable" u.sc
EndChar

StartChar: u.sc
Encoding: 65579 -1 223
Width: 711
Flags: W
HStem: 0 111<171.704 547.913> 574 20G<54 165 548 658>
VStem: 54 111<117.704 594> 548 110<111.735 594>
LayerCount: 2
Fore
SplineSet
548 594 m 1,0,-1
 658 594 l 1,1,-1
 658 133 l 2,2,3
 658 105 658 105 648 81 c 128,-1,4
 638 57 638 57 619.5 38.5 c 128,-1,5
 601 20 601 20 577 10 c 128,-1,6
 553 0 553 0 525 0 c 2,7,-1
 187 0 l 2,8,9
 159 0 159 0 135.5 10 c 128,-1,10
 112 20 112 20 93.5 38.5 c 128,-1,11
 75 57 75 57 64.5 81 c 128,-1,12
 54 105 54 105 54 133 c 2,13,-1
 54 594 l 1,14,-1
 165 594 l 1,15,-1
 165 133 l 2,16,17
 165 124 165 124 171.5 117.5 c 128,-1,18
 178 111 178 111 187 111 c 2,19,-1
 525 111 l 2,20,21
 534 111 534 111 541 117.5 c 128,-1,22
 548 124 548 124 548 133 c 2,23,-1
 548 594 l 1,0,-1
EndSplineSet
EndChar

StartChar: underscore
Encoding: 95 95 228
Width: 847
Flags: W
HStem: -111 111<55 793>
LayerCount: 2
Fore
SplineSet
793 -111 m 1,0,-1
 55 -111 l 1,1,-1
 55 0 l 1,2,-1
 793 0 l 1,3,-1
 793 -111 l 1,0,-1
EndSplineSet
EndChar

StartChar: v
Encoding: 118 118 229
Width: 808
Flags: W
HStem: 0 21G<337.99 471.01> 574 20G<22 160.832 649.083 787>
LayerCount: 2
Fore
SplineSet
787 594 m 1,0,-1
 460 0 l 1,1,-1
 349 0 l 1,2,-1
 22 594 l 1,3,-1
 150 594 l 1,4,-1
 404 125 l 1,5,-1
 660 594 l 1,6,-1
 787 594 l 1,0,-1
EndSplineSet
Substitution2: "'smcp' Lowercase to Small Capitals in Latin lookup 3 subtable" v.sc
Substitution2: "'salt' Stylistic Alternatives in Latin lookup 2 subtable" v.alt
AlternateSubs2: "'aalt' Access All Alternates in Latin lookup 1 subtable" v.sc v.alt
EndChar

StartChar: v.alt
Encoding: 65580 -1 230
Width: 713
Flags: W
HStem: 0 111<171.704 548> 574 20G<54 165 548 658>
VStem: 54 111<117.704 594> 548 110<111 594>
LayerCount: 2
Fore
SplineSet
658 594 m 1,0,-1
 658 0 l 1,1,-1
 187 0 l 2,2,3
 159 0 159 0 135.5 10 c 128,-1,4
 112 20 112 20 93.5 38.5 c 128,-1,5
 75 57 75 57 64.5 81 c 128,-1,6
 54 105 54 105 54 133 c 2,7,-1
 54 594 l 1,8,-1
 165 594 l 1,9,-1
 165 133 l 2,10,11
 165 124 165 124 171.5 117.5 c 128,-1,12
 178 111 178 111 187 111 c 2,13,-1
 548 111 l 1,14,-1
 548 594 l 1,15,-1
 658 594 l 1,0,-1
EndSplineSet
EndChar

StartChar: v.sc
Encoding: 65581 -1 231
Width: 820
Flags: W
HStem: 0 21G<343.788 477.212> 574 20G<22 161.13 660.87 799>
LayerCount: 2
Fore
SplineSet
672 594 m 1,0,-1
 799 594 l 1,1,-1
 466 0 l 1,2,-1
 355 0 l 1,3,-1
 22 594 l 1,4,-1
 150 594 l 1,5,-1
 411 125 l 1,6,-1
 672 594 l 1,0,-1
EndSplineSet
EndChar

StartChar: w
Encoding: 119 119 232
Width: 1085
Flags: W
HStem: 0 21G<261.155 367.571 738.93 845.508> 574 20G<36 162.122 476.32 620.239 935.386 1061>
LayerCount: 2
Fore
SplineSet
1061 594 m 1,0,-1
 838 0 l 1,1,-1
 748 0 l 1,2,-1
 548 441 l 1,3,-1
 359 0 l 1,4,-1
 357 1 l 1,5,-1
 358 0 l 1,6,-1
 269 0 l 1,7,-1
 36 594 l 1,8,-1
 154 594 l 1,9,-1
 314 200 l 1,10,-1
 485 594 l 1,11,-1
 611 594 l 1,12,-1
 793 200 l 1,13,-1
 943 594 l 1,14,-1
 1061 594 l 1,0,-1
EndSplineSet
Substitution2: "'smcp' Lowercase to Small Capitals in Latin lookup 3 subtable" w.sc
Substitution2: "'salt' Stylistic Alternatives in Latin lookup 2 subtable" w.alt
AlternateSubs2: "'aalt' Access All Alternates in Latin lookup 1 subtable" w.sc w.alt
EndChar

StartChar: w.alt
Encoding: 65582 -1 233
Width: 1001
Flags: W
HStem: 0 111<170.704 437.296 561.704 836> 574 20G<54 164 444 555 836 946>
VStem: 54 110<117.704 594> 444 111<117.704 594> 836 110<111.006 594>
LayerCount: 2
Fore
SplineSet
187 0 m 2,0,1
 159 0 159 0 135.5 10 c 128,-1,2
 112 20 112 20 93.5 38.5 c 128,-1,3
 75 57 75 57 64.5 81 c 128,-1,4
 54 105 54 105 54 133 c 2,5,-1
 54 594 l 1,6,-1
 164 594 l 1,7,-1
 164 133 l 2,8,9
 164 124 164 124 170.5 117.5 c 128,-1,10
 177 111 177 111 187 111 c 2,11,-1
 422 111 l 2,12,13
 431 111 431 111 437.5 117.5 c 128,-1,14
 444 124 444 124 444 133 c 2,15,-1
 444 594 l 1,16,-1
 555 594 l 1,17,-1
 555 133 l 2,18,19
 555 124 555 124 561.5 117.5 c 128,-1,20
 568 111 568 111 578 111 c 2,21,-1
 813 111 l 2,22,23
 822 111 822 111 829 117.5 c 128,-1,24
 836 124 836 124 836 133 c 2,25,-1
 836 594 l 1,26,-1
 946 594 l 1,27,-1
 946 0 l 1,28,-1
 187 0 l 2,0,1
EndSplineSet
EndChar

StartChar: w.sc
Encoding: 65583 -1 234
Width: 1103
Flags: W
HStem: 0 21G<264.02 370.77 741.719 848.643> 574 20G<35 161.325 484.066 619.442 942.183 1068>
LayerCount: 2
Fore
SplineSet
1068 594 m 1,0,-1
 841 0 l 1,1,-1
 751 0 l 1,2,-1
 551 431 l 1,3,-1
 362 0 l 1,4,-1
 360 1 l 1,5,-1
 361 0 l 1,6,-1
 272 0 l 1,7,-1
 35 594 l 1,8,-1
 153 594 l 1,9,-1
 317 200 l 1,10,-1
 493 594 l 1,11,-1
 610 594 l 1,12,-1
 796 200 l 1,13,-1
 950 594 l 1,14,-1
 1068 594 l 1,0,-1
EndSplineSet
EndChar

StartChar: x
Encoding: 120 120 235
Width: 708
Flags: W
HStem: 0 21G<47 194.296 513.704 662> 574 20G<47 195.087 512.913 662>
LayerCount: 2
Fore
SplineSet
662 594 m 1,0,-1
 662 579 l 1,1,-1
 426 302 l 1,2,-1
 662 15 l 1,3,-1
 662 0 l 1,4,-1
 530 0 l 1,5,-1
 354 216 l 1,6,-1
 178 0 l 1,7,-1
 47 0 l 1,8,-1
 47 15 l 1,9,-1
 282 302 l 1,10,-1
 47 579 l 1,11,-1
 47 594 l 1,12,-1
 178 594 l 1,13,-1
 354 388 l 1,14,-1
 530 594 l 1,15,-1
 662 594 l 1,0,-1
EndSplineSet
Substitution2: "'smcp' Lowercase to Small Capitals in Latin lookup 3 subtable" x.sc
Substitution2: "'salt' Stylistic Alternatives in Latin lookup 2 subtable" x.alt
AlternateSubs2: "'aalt' Access All Alternates in Latin lookup 1 subtable" x.sc x.alt
EndChar

StartChar: x.alt
Encoding: 65584 -1 236
Width: 714
Flags: W
HStem: 0 21G<55 166 549 659> 242 110<166.006 542.296> 574 20G<55 166 549 659>
VStem: 55 111<0 241.811 352.189 594> 549 110<0 234.781 352.189 594>
LayerCount: 2
Fore
SplineSet
659 375 m 2,0,1
 659 353 659 353 652.5 333 c 128,-1,2
 646 313 646 313 635 297 c 1,3,4
 646 281 646 281 652.5 261 c 128,-1,5
 659 241 659 241 659 219 c 2,6,-1
 659 0 l 1,7,-1
 549 0 l 1,8,-1
 549 219 l 2,9,10
 549 228 549 228 542.5 235 c 128,-1,11
 536 242 536 242 526 242 c 2,12,-1
 188 242 l 2,13,14
 179 242 179 242 172.5 235 c 128,-1,15
 166 228 166 228 166 219 c 2,16,-1
 166 0 l 1,17,-1
 55 0 l 1,18,-1
 55 219 l 2,19,20
 55 241 55 241 62 261 c 128,-1,21
 69 281 69 281 80 297 c 1,22,23
 69 313 69 313 62 333 c 128,-1,24
 55 353 55 353 55 375 c 2,25,-1
 55 594 l 1,26,-1
 166 594 l 1,27,-1
 166 375 l 2,28,29
 166 366 166 366 172.5 359 c 128,-1,30
 179 352 179 352 188 352 c 2,31,-1
 526 352 l 2,32,33
 535 352 535 352 542 359 c 128,-1,34
 549 366 549 366 549 375 c 2,35,-1
 549 594 l 1,36,-1
 659 594 l 1,37,-1
 659 375 l 2,0,1
EndSplineSet
EndChar

StartChar: x.sc
Encoding: 65585 -1 237
Width: 708
Flags: W
HStem: 0 21G<47 194.221 513.779 662> 574 20G<47 195.171 512.829 662>
LayerCount: 2
Fore
SplineSet
662 594 m 1,0,-1
 662 579 l 1,1,-1
 426 303 l 1,2,-1
 662 15 l 1,3,-1
 662 0 l 1,4,-1
 530 0 l 1,5,-1
 354 217 l 1,6,-1
 178 0 l 1,7,-1
 47 0 l 1,8,-1
 47 15 l 1,9,-1
 282 303 l 1,10,-1
 47 579 l 1,11,-1
 47 594 l 1,12,-1
 178 594 l 1,13,-1
 354 389 l 1,14,-1
 530 594 l 1,15,-1
 662 594 l 1,0,-1
EndSplineSet
EndChar

StartChar: y
Encoding: 121 121 238
Width: 701
Flags: W
HStem: -236 111<147 529.781> 0 111<160.704 537> 572 20G<43 154 537 647>
VStem: 43 111<117.704 592> 537 110<-118.296 0 111.006 592>
LayerCount: 2
Fore
SplineSet
647 227 m 1,0,-1
 647 225 l 1,1,-1
 647 -102 l 2,2,3
 647 -130 647 -130 637 -154 c 128,-1,4
 627 -178 627 -178 608.5 -196.5 c 128,-1,5
 590 -215 590 -215 566 -225.5 c 128,-1,6
 542 -236 542 -236 514 -236 c 2,7,-1
 147 -236 l 1,8,-1
 147 -125 l 1,9,-1
 514 -125 l 2,10,11
 523 -125 523 -125 530 -118.5 c 128,-1,12
 537 -112 537 -112 537 -102 c 2,13,-1
 537 0 l 1,14,-1
 176 0 l 2,15,16
 148 0 148 0 124 10 c 128,-1,17
 100 20 100 20 81.5 38.5 c 128,-1,18
 63 57 63 57 53 81 c 128,-1,19
 43 105 43 105 43 133 c 2,20,-1
 43 592 l 1,21,-1
 154 592 l 1,22,-1
 154 133 l 2,23,24
 154 124 154 124 160.5 117.5 c 128,-1,25
 167 111 167 111 176 111 c 2,26,-1
 514 111 l 2,27,28
 523 111 523 111 530 117.5 c 128,-1,29
 537 124 537 124 537 133 c 2,30,-1
 537 592 l 1,31,-1
 647 592 l 1,32,-1
 647 227 l 1,0,-1
EndSplineSet
Substitution2: "'smcp' Lowercase to Small Capitals in Latin lookup 3 subtable" y.sc
Substitution2: "'aalt' Access All Alternates in Latin lookup 0 subtable" y.sc
EndChar

StartChar: y.sc
Encoding: 65586 -1 239
Width: 704
Flags: W
HStem: 0 21G<297 408> 574 20G<18 163.455 539.621 686>
VStem: 297 111<0 205>
LayerCount: 2
Fore
SplineSet
686 594 m 1,0,-1
 408 205 l 1,1,-1
 408 0 l 1,2,-1
 297 0 l 1,3,-1
 297 205 l 1,4,-1
 18 594 l 1,5,-1
 148 594 l 1,6,-1
 352 330 l 1,7,-1
 555 594 l 1,8,-1
 686 594 l 1,0,-1
EndSplineSet
EndChar

StartChar: z
Encoding: 122 122 242
Width: 714
Flags: W
HStem: 0 111<203 659> 483 111<55 512>
LayerCount: 2
Fore
SplineSet
55 594 m 1,0,-1
 659 594 l 1,1,-1
 659 463 l 1,2,-1
 203 111 l 1,3,-1
 659 111 l 1,4,-1
 659 0 l 1,5,-1
 55 0 l 1,6,-1
 55 131 l 1,7,-1
 512 483 l 1,8,-1
 55 483 l 1,9,-1
 55 594 l 1,0,-1
EndSplineSet
Substitution2: "'smcp' Lowercase to Small Capitals in Latin lookup 3 subtable" z.sc
Substitution2: "'salt' Stylistic Alternatives in Latin lookup 2 subtable" z.alt
AlternateSubs2: "'aalt' Access All Alternates in Latin lookup 1 subtable" z.sc z.alt
EndChar

StartChar: z.alt
Encoding: 65587 -1 243
Width: 708
Flags: W
HStem: 0 111<169.704 656> 242 110<163.558 545.913> 483 111<52 545.913>
VStem: 52 111<117.704 241.913> 546 110<352.087 482.525>
CounterMasks: 1 e0
LayerCount: 2
Fore
SplineSet
185 242 m 2,0,1
 176 242 176 242 169.5 235 c 128,-1,2
 163 228 163 228 163 219 c 2,3,-1
 163 133 l 2,4,5
 163 124 163 124 169.5 117.5 c 128,-1,6
 176 111 176 111 185 111 c 2,7,-1
 656 111 l 1,8,-1
 656 0 l 1,9,-1
 185 0 l 2,10,11
 157 0 157 0 133.5 10 c 128,-1,12
 110 20 110 20 91.5 38.5 c 128,-1,13
 73 57 73 57 62.5 81 c 128,-1,14
 52 105 52 105 52 133 c 2,15,-1
 52 219 l 2,16,17
 52 247 52 247 62.5 271 c 128,-1,18
 73 295 73 295 91.5 313.5 c 128,-1,19
 110 332 110 332 134 342 c 128,-1,20
 158 352 158 352 185 352 c 2,21,-1
 523 352 l 2,22,23
 532 352 532 352 539 359 c 128,-1,24
 546 366 546 366 546 375 c 2,25,-1
 546 461 l 2,26,27
 546 470 546 470 539 476.5 c 128,-1,28
 532 483 532 483 523 483 c 2,29,-1
 52 483 l 1,30,-1
 52 594 l 1,31,-1
 523 594 l 2,32,33
 551 594 551 594 575 583.5 c 128,-1,34
 599 573 599 573 617.5 555 c 128,-1,35
 636 537 636 537 646 512.5 c 128,-1,36
 656 488 656 488 656 461 c 2,37,-1
 656 375 l 2,38,39
 656 347 656 347 646 323 c 128,-1,40
 636 299 636 299 617.5 280.5 c 128,-1,41
 599 262 599 262 575 252 c 128,-1,42
 551 242 551 242 523 242 c 2,43,-1
 185 242 l 2,0,1
EndSplineSet
EndChar

StartChar: z.sc
Encoding: 65588 -1 244
Width: 714
Flags: W
HStem: 0 111<203 659> 483 111<55 512>
LayerCount: 2
Fore
SplineSet
55 594 m 1,0,-1
 659 594 l 1,1,-1
 659 463 l 1,2,-1
 203 111 l 1,3,-1
 659 111 l 1,4,-1
 659 0 l 1,5,-1
 55 0 l 1,6,-1
 55 131 l 1,7,-1
 512 483 l 1,8,-1
 55 483 l 1,9,-1
 55 594 l 1,0,-1
EndSplineSet
EndChar

StartChar: zero
Encoding: 48 48 246
Width: 854
Flags: W
HStem: 0 111<206 678.296> 627 110<169.558 648>
VStem: 58 111<224 626.913> 685 111<117.704 513>
LayerCount: 2
Fore
SplineSet
663 737 m 2,0,1
 691 737 691 737 714.5 727 c 128,-1,2
 738 717 738 717 756.5 698.5 c 128,-1,3
 775 680 775 680 785.5 656 c 128,-1,4
 796 632 796 632 796 604 c 2,5,-1
 796 133 l 2,6,7
 796 105 796 105 785.5 81 c 128,-1,8
 775 57 775 57 756.5 38.5 c 128,-1,9
 738 20 738 20 714 10 c 128,-1,10
 690 0 690 0 663 0 c 2,11,-1
 191 0 l 2,12,13
 163 0 163 0 139.5 10 c 128,-1,14
 116 20 116 20 97.5 38.5 c 128,-1,15
 79 57 79 57 68.5 81 c 128,-1,16
 58 105 58 105 58 133 c 2,17,-1
 58 604 l 2,18,19
 58 632 58 632 68.5 656 c 128,-1,20
 79 680 79 680 97.5 698.5 c 128,-1,21
 116 717 116 717 140 727 c 128,-1,22
 164 737 164 737 191 737 c 2,23,-1
 663 737 l 2,0,1
191 627 m 2,24,25
 182 627 182 627 175.5 620 c 128,-1,26
 169 613 169 613 169 604 c 2,27,-1
 169 224 l 1,28,-1
 648 627 l 1,29,-1
 191 627 l 2,24,25
663 111 m 2,30,31
 672 111 672 111 678.5 117.5 c 128,-1,32
 685 124 685 124 685 133 c 2,33,-1
 685 513 l 1,34,-1
 206 111 l 1,35,-1
 663 111 l 2,30,31
EndSplineSet
EndChar

StartChar: A
Encoding: 65 65 247
Width: 856
Flags: W
HStem: 0 21G<59 170 686 797> 258 111<170 686> 627 110<170.087 685.188>
VStem: 59 111<0 258 369 626.913> 686 111<0 258 369 626.913>
LayerCount: 2
Fore
SplineSet
664 737 m 2,0,1
 692 737 692 737 715.5 727 c 128,-1,2
 739 717 739 717 757.5 698.5 c 128,-1,3
 776 680 776 680 786.5 656 c 128,-1,4
 797 632 797 632 797 604 c 2,5,-1
 797 0 l 1,6,-1
 686 0 l 1,7,-1
 686 258 l 1,8,-1
 170 258 l 1,9,-1
 170 0 l 1,10,-1
 59 0 l 1,11,-1
 59 604 l 2,12,13
 59 632 59 632 69.5 656 c 128,-1,14
 80 680 80 680 98.5 698.5 c 128,-1,15
 117 717 117 717 141 727 c 128,-1,16
 165 737 165 737 193 737 c 2,17,-1
 664 737 l 2,0,1
686 369 m 1,18,-1
 686 604 l 2,19,20
 686 613 686 613 679.5 620 c 128,-1,21
 673 627 673 627 664 627 c 2,22,-1
 193 627 l 2,23,24
 184 627 184 627 177 620 c 128,-1,25
 170 613 170 613 170 604 c 2,26,-1
 170 369 l 1,27,-1
 686 369 l 1,18,-1
EndSplineSet
Substitution2: "'ss02' Style Set 2 in Latin lookup 5 subtable" A.alt2
Substitution2: "'ss01' Style Set 1 in Latin lookup 4 subtable" A.alt
AlternateSubs2: "'aalt' Access All Alternates in Latin lookup 1 subtable" A.alt A.alt2
EndChar
